<svg version="1.1" xmlns="http://www.w3.org/2000/svg"  viewBox="0 0 72 72" width="72" height="72"><path d="M0 0 C23.76 0 47.52 0 72 0 C72 23.76 72 47.52 72 72 C48.24 72 24.48 72 0 72 C0 48.24 0 24.48 0 0 Z " transform="translate(0,0)" style="fill: rgb(0, 0, 0); --darkreader-inline-fill: var(--darkreader-text-000000, #e8e6e3);" data-darkreader-inline-fill=""></path><path d="M0 0 C1.17018677 -0.00717545 1.17018677 -0.00717545 2.36401367 -0.01449585 C4.00799586 -0.01788758 5.65204615 -0.00873581 7.29589844 0.01220703 C9.80557295 0.03898858 12.31077629 0.0124405 14.8203125 -0.01953125 C16.42188482 -0.01622702 18.02345438 -0.00982049 19.625 0 C20.37096436 -0.01012115 21.11692871 -0.02024231 21.88549805 -0.03067017 C25.62202748 0.05295397 27.6785337 0.57251262 30.78271484 2.69384766 C33.34179952 6.43859437 33.53610486 9.46308344 33.4765625 13.8515625 C33.48134613 14.63168701 33.48612976 15.41181152 33.49105835 16.21557617 C33.49445008 17.85955836 33.48529831 19.50360865 33.46435547 21.14746094 C33.43757392 23.65713545 33.464122 26.16233879 33.49609375 28.671875 C33.49278952 30.27344732 33.48638299 31.87501688 33.4765625 33.4765625 C33.48668365 34.22252686 33.49680481 34.96849121 33.50723267 35.73706055 C33.42360853 39.47358998 32.90404988 41.5300962 30.78271484 44.63427734 C27.03796813 47.19336202 24.01347906 47.38766736 19.625 47.328125 C18.45481323 47.33530045 18.45481323 47.33530045 17.26098633 47.34262085 C15.61700414 47.34601258 13.97295385 47.33686081 12.32910156 47.31591797 C9.81942705 47.28913642 7.31422371 47.3156845 4.8046875 47.34765625 C3.20311518 47.34435202 1.60154562 47.33794549 0 47.328125 C-1.11894653 47.34330673 -1.11894653 47.34330673 -2.26049805 47.35879517 C-5.99702748 47.27517103 -8.0535337 46.75561238 -11.15771484 44.63427734 C-13.71679952 40.88953063 -13.91110486 37.86504156 -13.8515625 33.4765625 C-13.85634613 32.69643799 -13.86112976 31.91631348 -13.86605835 31.11254883 C-13.86945008 29.46856664 -13.86029831 27.82451635 -13.83935547 26.18066406 C-13.81257392 23.67098955 -13.839122 21.16578621 -13.87109375 18.65625 C-13.86778952 17.05467768 -13.86138299 15.45310812 -13.8515625 13.8515625 C-13.86168365 13.10559814 -13.87180481 12.35963379 -13.88223267 11.59106445 C-13.79860853 7.85453502 -13.27904988 5.7980288 -11.15771484 2.69384766 C-7.41296813 0.13476298 -4.38847906 -0.05954236 0 0 Z " transform="translate(26.1875,12.3359375)" style="fill: rgb(42, 170, 103); --darkreader-inline-fill: var(--darkreader-text-2aaa67, #5fd798);" data-darkreader-inline-fill=""></path><path d="M0 0 C0.99 0 1.98 0 3 0 C3.37125 0.928125 3.7425 1.85625 4.125 2.8125 C6.33662574 6.57226376 8.15979341 7.16337946 12 9 C12.875 11.1875 12.875 11.1875 13 13 C11.6696875 13.2784375 11.6696875 13.2784375 10.3125 13.5625 C6.38789745 15.26562941 5.25120709 16.98969508 3.078125 20.5390625 C2.72234375 21.02117188 2.3665625 21.50328125 2 22 C1.34 22 0.68 22 0 22 C0.99 18.535 0.99 18.535 2 15 C2.66 15 3.32 15 4 15 C4 14.34 4 13.68 4 13 C4.66 13 5.32 13 6 13 C6 11.68 6 10.36 6 9 C5.34 9 4.68 9 4 9 C4 8.34 4 7.68 4 7 C3.34 7 2.68 7 2 7 C1.34 4.69 0.68 2.38 0 0 Z " transform="translate(41,25)" style="fill: rgb(3, 0, 13); --darkreader-inline-fill: var(--darkreader-text-03000d, #e4e2de);" data-darkreader-inline-fill=""></path><path d="M0 0 C0.66 0 1.32 0 2 0 C1.34 2.31 0.68 4.62 0 7 C-0.66 7 -1.32 7 -2 7 C-2 7.66 -2 8.32 -2 9 C-2.66 9 -3.32 9 -4 9 C-4 10.32 -4 11.64 -4 13 C-3.34 13 -2.68 13 -2 13 C-2 13.66 -2 14.32 -2 15 C-1.34 15 -0.68 15 0 15 C0.66 17.31 1.32 19.62 2 22 C-0.87987324 20.90763429 -1.85935486 20.25571843 -3.375 17.5 C-5.47554224 14.26839655 -7.34013513 13.89463364 -11 13 C-10.875 11.1875 -10.875 11.1875 -10 9 C-9.071875 8.54625 -8.14375 8.0925 -7.1875 7.625 C-3.39091431 5.68948573 -2.21453377 3.55907213 0 0 Z " transform="translate(29,25)" style="fill: rgb(0, 0, 12); --darkreader-inline-fill: var(--darkreader-text-00000c, #e4e2de);" data-darkreader-inline-fill=""></path></svg>