<svg version="1.1" xmlns="http://www.w3.org/2000/svg"  viewBox="0 0 72 72" width="72" height="72"><path d="M0 0 C23.76 0 47.52 0 72 0 C72 23.76 72 47.52 72 72 C48.24 72 24.48 72 0 72 C0 48.24 0 24.48 0 0 Z " transform="translate(0,0)" style="fill: rgb(70, 196, 108); --darkreader-inline-fill: var(--darkreader-text-46c46c, #57c979);" data-darkreader-inline-fill=""></path><path d="M0 0 C23.76 0 47.52 0 72 0 C72 23.76 72 47.52 72 72 C48.24 72 24.48 72 0 72 C0 48.24 0 24.48 0 0 Z M4 13 C4 18.94 4 24.88 4 31 C5.98 31.99 5.98 31.99 8 33 C8 34.98 8 36.96 8 39 C6.02 39.99 6.02 39.99 4 41 C4 46.94 4 52.88 4 59 C25.12 59 46.24 59 68 59 C68 53.06 68 47.12 68 41 C66.68 40.34 65.36 39.68 64 39 C64 37.02 64 35.04 64 33 C65.32 32.34 66.64 31.68 68 31 C68 25.06 68 19.12 68 13 C46.88 13 25.76 13 4 13 Z " transform="translate(0,0)" style="fill: rgb(0, 0, 0); --darkreader-inline-fill: var(--darkreader-text-000000, #e8e6e3);" data-darkreader-inline-fill=""></path><path d="M0 0 C1.32 0 2.64 0 4 0 C4 1.98 4 3.96 4 6 C5.98 6 7.96 6 10 6 C10 7.65 10 9.3 10 11 C5.71 11 1.42 11 -3 11 C-2.67 11.66 -2.34 12.32 -2 13 C0.75385379 13.81628891 3.53064204 14.4090852 6.3359375 15.0234375 C9.42474416 16.15569801 10.41715251 17.15303539 12 20 C11.9203841 23.264252 11.48252097 24.53356306 9.125 26.8125 C7 28 7 28 4 28 C4 29.98 4 31.96 4 34 C2.68 34 1.36 34 0 34 C0 32.02 0 30.04 0 28 C-1.98 28 -3.96 28 -6 28 C-6 26.35 -6 24.7 -6 23 C-1.71 23 2.58 23 7 23 C6.67 22.34 6.34 21.68 6 21 C3.24614621 20.18371109 0.46935796 19.5909148 -2.3359375 18.9765625 C-5.42474416 17.84430199 -6.41715251 16.84696461 -8 14 C-7.9203841 10.735748 -7.48252097 9.46643694 -5.125 7.1875 C-3 6 -3 6 0 6 C0 4.02 0 2.04 0 0 Z " transform="translate(34,19)" style="fill: rgb(0, 0, 0); --darkreader-inline-fill: var(--darkreader-text-000000, #e8e6e3);" data-darkreader-inline-fill=""></path></svg>