<svg version="1.1" xmlns="http://www.w3.org/2000/svg"  viewBox="0 0 72 72" width="72" height="72"><path d="M0 0 C23.76 0 47.52 0 72 0 C72 23.76 72 47.52 72 72 C48.24 72 24.48 72 0 72 C0 48.24 0 24.48 0 0 Z " transform="translate(0,0)" style="fill: rgb(0, 0, 0); --darkreader-inline-fill: var(--darkreader-text-000000, #e8e6e3);" data-darkreader-inline-fill=""></path><path d="M0 0 C4.6519819 2.21654545 8.59556164 4.2062345 11.71411133 8.42114258 C14.13607231 17.47269714 12.87029854 27.23436924 11.71411133 36.42114258 C10.75504883 36.57583008 10.75504883 36.57583008 9.77661133 36.73364258 C9.09598633 36.96051758 8.41536133 37.18739258 7.71411133 37.42114258 C7.38411133 38.41114258 7.05411133 39.40114258 6.71411133 40.42114258 C5.72411133 40.75114258 4.73411133 41.08114258 3.71411133 41.42114258 C3.38411133 42.41114258 3.05411133 43.40114258 2.71411133 44.42114258 C1.66223633 44.52426758 0.61036133 44.62739258 -0.47338867 44.73364258 C-4.2383097 45.16510922 -4.2383097 45.16510922 -6.84838867 47.04614258 C-10.20195056 48.93789544 -11.53518447 48.31336195 -15.28588867 47.42114258 C-22.35219915 45.3389212 -29.78908547 42.49884345 -34.28588867 36.42114258 C-36.70784965 27.36958801 -35.44207588 17.60791591 -34.28588867 8.42114258 C-30.92683723 6.37286407 -27.54648751 4.36268422 -24.16088867 2.35864258 C-23.20956055 1.77791992 -22.25823242 1.19719727 -21.27807617 0.59887695 C-20.34995117 0.05424805 -19.42182617 -0.49038086 -18.46557617 -1.05151367 C-17.61721191 -1.55948486 -16.76884766 -2.06745605 -15.89477539 -2.59082031 C-10.56123233 -4.61073878 -5.03671902 -2.09754524 0 0 Z " transform="translate(47.285888671875,13.578857421875)" style="fill: rgb(254, 223, 249); --darkreader-inline-fill: var(--darkreader-text-fedff9, #fdb7f2);" data-darkreader-inline-fill=""></path><path d="M0 0 C0.88924329 3.28335985 1.09651713 5.75050403 0 9 C-3.84368397 12.23762592 -9.8023042 17 -15 17 C-15.98807024 26.77057448 -15.98807024 26.77057448 -12.75732422 35.62255859 C-9.30080527 38.66547698 -5.42521405 40.71542957 -1 42 C1.67584416 41.45153881 1.67584416 41.45153881 4 40 C5.18142578 39.36191406 5.18142578 39.36191406 6.38671875 38.7109375 C7.92867733 37.81560671 9.4703411 36.91976803 11.01171875 36.0234375 C13 35 13 35 15 35 C15 29.06 15 23.12 15 17 C17.64 15.68 20.28 14.36 23 13 C23 21.91 23 30.82 23 40 C21.02 40.495 21.02 40.495 19 41 C18.67 41.99 18.34 42.98 18 44 C17.01 44.33 16.02 44.66 15 45 C14.67 45.99 14.34 46.98 14 48 C12.948125 48.103125 11.89625 48.20625 10.8125 48.3125 C7.04757897 48.74396664 7.04757897 48.74396664 4.4375 50.625 C1.08393811 52.51675286 -0.2492958 51.89221938 -4 51 C-11.06631048 48.91777862 -18.5031968 46.07770087 -23 40 C-25.42196098 30.94844544 -24.15618721 21.18677334 -23 12 C-19.54565686 9.99304709 -16.0858937 7.99563221 -12.625 6 C-11.64015625 5.42765625 -10.6553125 4.8553125 -9.640625 4.265625 C-8.69960938 3.72421875 -7.75859375 3.1828125 -6.7890625 2.625 C-5.91975098 2.12226563 -5.05043945 1.61953125 -4.15478516 1.1015625 C-2 0 -2 0 0 0 Z " transform="translate(36,10)" style="fill: rgb(254, 115, 249); --darkreader-inline-fill: var(--darkreader-text-fe73f9, #fe6af9);" data-darkreader-inline-fill=""></path><path d="M0 0 C5.51568187 1.53311285 10.02034852 4.18752444 14.875 7.125 C15.65875 7.59292969 16.4425 8.06085937 17.25 8.54296875 C19.16982472 9.69018108 21.08630561 10.8426007 23 12 C21.29909208 13.79810266 20.19069409 14.9214789 17.875 15.875 C15.70995268 16.88368661 15.70995268 16.88368661 15.25 19.625 C15.1675 20.40875 15.085 21.1925 15 22 C14.67 22 14.34 22 14 22 C13.505 19.525 13.505 19.525 13 17 C6.82101364 17.39375893 2.39955656 20.42338675 -2.75 23.5625 C-4.4508799 24.58836702 -6.15390195 25.61069347 -7.859375 26.62890625 C-8.60670898 27.08338135 -9.35404297 27.53785645 -10.12402344 28.00610352 C-12 29 -12 29 -14 29 C-14 30.65 -14 32.3 -14 34 C-14.33 34 -14.66 34 -15 34 C-15 28.39 -15 22.78 -15 17 C-12.710625 15.865625 -10.42125 14.73125 -8.0625 13.5625 C-3.05766654 10.95553083 -3.05766654 10.95553083 0.15234375 6.46484375 C0.35632985 4.20668186 0.36215398 2.2350074 0 0 Z " transform="translate(36,10)" style="fill: rgb(254, 219, 249); --darkreader-inline-fill: var(--darkreader-text-fedbf9, #fdb4f3);" data-darkreader-inline-fill=""></path><path d="M0 0 C0 8.91 0 17.82 0 27 C-1.32 27.33 -2.64 27.66 -4 28 C-4.33 28.99 -4.66 29.98 -5 31 C-5.99 31.33 -6.98 31.66 -8 32 C-8.33 32.99 -8.66 33.98 -9 35 C-10.051875 35.103125 -11.10375 35.20625 -12.1875 35.3125 C-15.90291502 35.98249287 -17.89955421 36.96256419 -21 39 C-21.66 39 -22.32 39 -23 39 C-23.88924329 35.71664015 -24.09651713 33.24949597 -23 30 C-19.15631603 26.76237408 -13.1976958 22 -8 22 C-8 16.06 -8 10.12 -8 4 C-1 0 -1 0 0 0 Z " transform="translate(59,23)" style="fill: rgb(253, 120, 250); --darkreader-inline-fill: var(--darkreader-text-fd78fa, #fd6efa);" data-darkreader-inline-fill=""></path><path d="M0 0 C5.51568187 1.53311285 10.02034852 4.18752444 14.875 7.125 C16.050625 7.82689453 16.050625 7.82689453 17.25 8.54296875 C19.16982472 9.69018108 21.08630561 10.8426007 23 12 C21.29909208 13.79810266 20.19069409 14.9214789 17.875 15.875 C15.70995268 16.88368661 15.70995268 16.88368661 15.25 19.625 C15.1675 20.40875 15.085 21.1925 15 22 C14.67 22 14.34 22 14 22 C13.896875 21.13375 13.79375 20.2675 13.6875 19.375 C11.03096208 14.06192417 6.16704795 12.5462018 1 10 C0 9 0 9 -0.09765625 6.93359375 C-0.08605469 6.10988281 -0.07445312 5.28617188 -0.0625 4.4375 C-0.05347656 3.61121094 -0.04445312 2.78492188 -0.03515625 1.93359375 C-0.02355469 1.29550781 -0.01195312 0.65742188 0 0 Z " transform="translate(36,10)" style="fill: rgb(254, 192, 254); --darkreader-inline-fill: var(--darkreader-text-fec0fe, #fea1fe);" data-darkreader-inline-fill=""></path><path d="M0 0 C7.75929463 4.48730292 7.75929463 4.48730292 8.81640625 8.15234375 C8.79484256 10.42731288 8.60320783 12.47029866 8.10546875 14.6875 C2.58978688 13.15438715 -1.91487977 10.49997556 -6.76953125 7.5625 C-7.55328125 7.09457031 -8.33703125 6.62664063 -9.14453125 6.14453125 C-11.06435597 4.99731892 -12.98083686 3.8448993 -14.89453125 2.6875 C-9.86064665 -2.48858473 -6.68526056 -3.03137321 0 0 Z " transform="translate(27.89453125,47.3125)" style="fill: rgb(230, 86, 212); --darkreader-inline-fill: var(--darkreader-text-e656d4, #e75cd6);" data-darkreader-inline-fill=""></path><path d="M0 0 C0 2.64 0 5.28 0 8 C-2.19511314 9.401264 -4.40180955 10.76961427 -6.625 12.125 C-7.24246094 12.52332031 -7.85992187 12.92164063 -8.49609375 13.33203125 C-11.75626984 15.28813691 -13.47554315 16.09137315 -17.2734375 15.4296875 C-19.75174543 14.1301736 -21.11784132 12.99689917 -23 11 C-21.90300781 10.45730469 -20.80601563 9.91460937 -19.67578125 9.35546875 C-18.22130061 8.6329203 -16.7668765 7.91025804 -15.3125 7.1875 C-14.59126953 6.83107422 -13.87003906 6.47464844 -13.12695312 6.10742188 C-10.04436362 4.573165 -7.04926524 3.02998465 -4.10546875 1.23828125 C-2 0 -2 0 0 0 Z " transform="translate(51,37)" style="fill: rgb(254, 218, 248); --darkreader-inline-fill: var(--darkreader-text-fedaf8, #fdb3f1);" data-darkreader-inline-fill=""></path><path d="M0 0 C0.763125 0.20625 1.52625 0.4125 2.3125 0.625 C-0.55843012 3.72811602 -3.39060174 5.79900924 -7.07421875 7.859375 C-8.09451172 8.43300781 -9.11480469 9.00664063 -10.16601562 9.59765625 C-11.75446289 10.47744141 -11.75446289 10.47744141 -13.375 11.375 C-14.44556641 11.97699219 -15.51613281 12.57898438 -16.61914062 13.19921875 C-24.53235721 17.625 -24.53235721 17.625 -25.6875 17.625 C-25.6875 15.975 -25.6875 14.325 -25.6875 12.625 C-25.09735107 12.30225098 -24.50720215 11.97950195 -23.89916992 11.64697266 C-21.22367092 10.18272731 -18.54932519 8.71638804 -15.875 7.25 C-14.94623047 6.74210937 -14.01746094 6.23421875 -13.06054688 5.7109375 C-12.16787109 5.22109375 -11.27519531 4.73125 -10.35546875 4.2265625 C-9.53328857 3.77619629 -8.7111084 3.32583008 -7.86401367 2.86181641 C-2.27038124 -0.31679738 -2.27038124 -0.31679738 0 0 Z " transform="translate(47.6875,26.375)" style="fill: rgb(254, 252, 254); --darkreader-inline-fill: var(--darkreader-text-fefcfe, #f2d7f2);" data-darkreader-inline-fill=""></path><path d="M0 0 C-0.50645411 4.5652538 -0.50645411 4.5652538 -2.68652344 6.4855957 C-3.40356445 6.87835693 -4.12060547 7.27111816 -4.859375 7.67578125 C-6.03886719 8.32836914 -6.03886719 8.32836914 -7.2421875 8.99414062 C-8.48355469 9.64672852 -8.48355469 9.64672852 -9.75 10.3125 C-10.56210937 10.76689453 -11.37421875 11.22128906 -12.2109375 11.68945312 C-16.4022506 13.95917887 -19.14451171 15.27430633 -24 15 C-24 14.34 -24 13.68 -24 13 C-22.01220703 11.57958984 -22.01220703 11.57958984 -19.2578125 9.9609375 C-18.27425781 9.38085938 -17.29070313 8.80078125 -16.27734375 8.203125 C-15.23707031 7.59984375 -14.19679688 6.9965625 -13.125 6.375 C-12.09246094 5.76398437 -11.05992188 5.15296875 -9.99609375 4.5234375 C-2.27192034 0 -2.27192034 0 0 0 Z " transform="translate(50,33)" style="fill: rgb(254, 252, 254); --darkreader-inline-fill: var(--darkreader-text-fefcfe, #f2d7f2);" data-darkreader-inline-fill=""></path><path d="M0 0 C0 2.64 0 5.28 0 8 C-2.97 8 -5.94 8 -9 8 C-8.814375 7.236875 -8.62875 6.47375 -8.4375 5.6875 C-7.77180827 2.91032625 -7.77180827 2.91032625 -9 0 C-2.25 -1.125 -2.25 -1.125 0 0 Z " transform="translate(21,9)" style="fill: rgb(254, 215, 53); --darkreader-inline-fill: var(--darkreader-text-fed735, #fed93f);" data-darkreader-inline-fill=""></path><path d="M0 0 C1.65 0.33 3.3 0.66 5 1 C5 1.99 5 2.98 5 4 C3.02 4 1.04 4 -1 4 C-0.67 2.68 -0.34 1.36 0 0 Z " transform="translate(56,54)" style="fill: rgb(210, 226, 255); --darkreader-inline-fill: var(--darkreader-text-d2e2ff, #acd6ff);" data-darkreader-inline-fill=""></path><path d="M0 0 C1.485 0.99 1.485 0.99 3 2 C2.67 3.65 2.34 5.3 2 7 C1.01 6.67 0.02 6.34 -1 6 C-1.042721 4.33388095 -1.04063832 2.66617115 -1 1 C-0.67 0.67 -0.34 0.34 0 0 Z " transform="translate(52,58)" style="fill: rgb(210, 226, 254); --darkreader-inline-fill: var(--darkreader-text-d2e2fe, #aed5fd);" data-darkreader-inline-fill=""></path><path d="M0 0 C1.98 0 3.96 0 6 0 C5.67 0.99 5.34 1.98 5 3 C3.35 3 1.7 3 0 3 C0 2.01 0 1.02 0 0 Z " transform="translate(45,55)" style="fill: rgb(211, 226, 254); --darkreader-inline-fill: var(--darkreader-text-d3e2fe, #aed5fd);" data-darkreader-inline-fill=""></path></svg>