<svg version="1.1" xmlns="http://www.w3.org/2000/svg"  viewBox="0 0 72 72" width="72" height="72"><path d="M0 0 C23.76 0 47.52 0 72 0 C72 23.76 72 47.52 72 72 C48.24 72 24.48 72 0 72 C0 48.24 0 24.48 0 0 Z " transform="translate(0,0)" style="fill: rgb(0, 0, 0); --darkreader-inline-fill: var(--darkreader-text-000000, #e8e6e3);" data-darkreader-inline-fill=""></path><path d="M0 0 C3.46658605 1.15552868 3.68125556 1.66263496 5.42578125 4.69921875 C6.11631592 5.87955688 6.11631592 5.87955688 6.82080078 7.08374023 C7.31306152 7.94298096 7.80532227 8.80222168 8.3125 9.6875 C13.47674425 18.52192533 18.87589942 27.17200074 24.4543457 35.75073242 C25.01855225 36.62576416 25.58275879 37.5007959 26.1640625 38.40234375 C26.66373535 39.17054443 27.1634082 39.93874512 27.67822266 40.73022461 C29 43 29 43 31 48 C11.2 48 -8.6 48 -29 48 C-27.48179758 44.20449395 -26.08629982 41.32303455 -23.9453125 37.9296875 C-23.03084351 36.47369141 -23.03084351 36.47369141 -22.09790039 34.98828125 C-21.44684326 33.96089844 -20.79578613 32.93351562 -20.125 31.875 C-19.46040771 30.81925781 -18.79581543 29.76351562 -18.11108398 28.67578125 C-16.07796386 25.44803615 -14.03931522 22.22383359 -12 19 C-10.77963649 17.06530057 -9.5595673 15.13041545 -8.33984375 13.1953125 C-5.56437081 8.79403277 -2.78379901 4.39601781 0 0 Z " transform="translate(35,12)" style="fill: rgb(254, 107, 250); --darkreader-inline-fill: var(--darkreader-text-fe6bfa, #fe65fa);" data-darkreader-inline-fill=""></path><path d="M0 0 C2.57907535 2.36596457 4.31724924 4.90224062 6.15234375 7.875 C6.75884766 8.85194824 7.36535156 9.82889648 7.99023438 10.83544922 C8.63283203 11.87975098 9.27542969 12.92405273 9.9375 14 C11.27925691 16.16969831 12.62171491 18.3389632 13.96484375 20.5078125 C14.63757324 21.59481445 15.31030273 22.68181641 16.00341797 23.80175781 C17.87443246 26.79885855 19.7739084 29.77466845 21.69140625 32.7421875 C22.25158447 33.61230469 22.8117627 34.48242188 23.38891602 35.37890625 C24.4470557 37.01830921 25.51117401 38.65387171 26.58178711 40.28515625 C27.04979736 41.01347656 27.51780762 41.74179687 28 42.4921875 C28.4125 43.12495605 28.825 43.75772461 29.25 44.40966797 C29.4975 44.93447754 29.745 45.45928711 30 46 C29.505 46.99 29.505 46.99 29 48 C28.32582031 47.43410156 27.65164062 46.86820313 26.95703125 46.28515625 C14.65695119 37.59106239 0.48787178 38.7912494 -14 39 C-12.90670431 37.09589687 -11.80960351 35.19397827 -10.7109375 33.29296875 C-10.10040527 32.23360107 -9.48987305 31.1742334 -8.86083984 30.08276367 C-7.22913001 27.37958864 -5.49672974 24.85164994 -3.625 22.3125 C0.51984094 15.5991805 -0.0177582 7.65378219 0 0 Z " transform="translate(36,12)" style="fill: rgb(254, 175, 254); --darkreader-inline-fill: var(--darkreader-text-feaffe, #fe95fe);" data-darkreader-inline-fill=""></path><path d="M0 0 C3.52443013 1.17481004 3.83738798 1.88583059 5.69921875 4.96484375 C6.42915039 6.16463867 6.42915039 6.16463867 7.17382812 7.38867188 C7.67333984 8.22978516 8.17285156 9.07089844 8.6875 9.9375 C9.19861328 10.77474609 9.70972656 11.61199219 10.23632812 12.47460938 C14 18.72059621 14 18.72059621 14 21 C5.09 21 -3.82 21 -13 21 C-8.8809357 13.83282812 -4.69218878 6.80625185 0 0 Z " transform="translate(35,30)" style="fill: rgb(254, 219, 249); --darkreader-inline-fill: var(--darkreader-text-fedbf9, #fdb4f3);" data-darkreader-inline-fill=""></path></svg>