<svg version="1.1" xmlns="http://www.w3.org/2000/svg"  viewBox="0 0 72 72" width="72" height="72"><path d="M0 0 C23.76 0 47.52 0 72 0 C72 23.76 72 47.52 72 72 C48.24 72 24.48 72 0 72 C0 48.24 0 24.48 0 0 Z " transform="translate(0,0)" style="fill: rgb(0, 0, 0); --darkreader-inline-fill: var(--darkreader-text-000000, #e8e6e3);" data-darkreader-inline-fill=""></path><path d="M0 0 C4.6519819 2.21654545 8.59556164 4.2062345 11.71411133 8.42114258 C14.13607231 17.47269714 12.87029854 27.23436924 11.71411133 36.42114258 C8.35505988 38.46942108 4.97471017 40.47960094 1.58911133 42.48364258 C0.6377832 43.06436523 -0.31354492 43.64508789 -1.29370117 44.2434082 C-2.22182617 44.78803711 -3.14995117 45.33266602 -4.10620117 45.89379883 C-5.37874756 46.65575562 -5.37874756 46.65575562 -6.67700195 47.43310547 C-12.01054501 49.45302394 -17.53505832 46.9398304 -22.57177734 44.84228516 C-27.22375924 42.6257397 -31.16733899 40.63605066 -34.28588867 36.42114258 C-36.70784965 27.36958801 -35.44207588 17.60791591 -34.28588867 8.42114258 C-30.92683723 6.37286407 -27.54648751 4.36268422 -24.16088867 2.35864258 C-23.20956055 1.77791992 -22.25823242 1.19719727 -21.27807617 0.59887695 C-20.34995117 0.05424805 -19.42182617 -0.49038086 -18.46557617 -1.05151367 C-17.61721191 -1.55948486 -16.76884766 -2.06745605 -15.89477539 -2.59082031 C-10.56123233 -4.61073878 -5.03671902 -2.09754524 0 0 Z " transform="translate(47.285888671875,13.578857421875)" style="fill: rgb(254, 223, 249); --darkreader-inline-fill: var(--darkreader-text-fedff9, #fdb7f2);" data-darkreader-inline-fill=""></path><path d="M0 0 C0.88924329 3.28335985 1.09651713 5.75050403 0 9 C-3.84368397 12.23762592 -9.8023042 17 -15 17 C-15.98807024 26.77057448 -15.98807024 26.77057448 -12.75732422 35.62255859 C-9.30080527 38.66547698 -5.42521405 40.71542957 -1 42 C1.67584416 41.45153881 1.67584416 41.45153881 4 40 C5.18142578 39.36191406 5.18142578 39.36191406 6.38671875 38.7109375 C7.92867733 37.81560671 9.4703411 36.91976803 11.01171875 36.0234375 C13 35 13 35 15 35 C15 29.06 15 23.12 15 17 C17.64 15.68 20.28 14.36 23 13 C23 21.91 23 30.82 23 40 C19.65875 42.000625 16.3175 44.00125 12.875 46.0625 C11.83327637 46.69808838 10.79155273 47.33367676 9.71826172 47.98852539 C8.88053223 48.47828857 8.04280273 48.96805176 7.1796875 49.47265625 C5.90714111 50.23461304 5.90714111 50.23461304 4.60888672 51.01196289 C-0.72465634 53.03188136 -6.24916965 50.51868782 -11.28588867 48.42114258 C-15.93787057 46.20459712 -19.88145032 44.21490808 -23 40 C-25.42196098 30.94844544 -24.15618721 21.18677334 -23 12 C-19.54565686 9.99304709 -16.0858937 7.99563221 -12.625 6 C-11.64015625 5.42765625 -10.6553125 4.8553125 -9.640625 4.265625 C-8.69960938 3.72421875 -7.75859375 3.1828125 -6.7890625 2.625 C-5.91975098 2.12226563 -5.05043945 1.61953125 -4.15478516 1.1015625 C-2 0 -2 0 0 0 Z " transform="translate(36,10)" style="fill: rgb(254, 107, 249); --darkreader-inline-fill: var(--darkreader-text-fe6bf9, #fe65f9);" data-darkreader-inline-fill=""></path><path d="M0 0 C5.51568187 1.53311285 10.02034852 4.18752444 14.875 7.125 C15.65875 7.59292969 16.4425 8.06085937 17.25 8.54296875 C19.16982472 9.69018108 21.08630561 10.8426007 23 12 C20.53258609 14.64107354 18.42559084 15.79641403 15 17 C15 18.65 15 20.3 15 22 C14.67 22 14.34 22 14 22 C13.505 19.525 13.505 19.525 13 17 C6.82101364 17.39375893 2.39955656 20.42338675 -2.75 23.5625 C-4.4508799 24.58836702 -6.15390195 25.61069347 -7.859375 26.62890625 C-8.60670898 27.08338135 -9.35404297 27.53785645 -10.12402344 28.00610352 C-12 29 -12 29 -14 29 C-14 30.65 -14 32.3 -14 34 C-14.33 34 -14.66 34 -15 34 C-15 28.39 -15 22.78 -15 17 C-12.710625 15.865625 -10.42125 14.73125 -8.0625 13.5625 C-3.05766654 10.95553083 -3.05766654 10.95553083 0.15234375 6.46484375 C0.35632985 4.20668186 0.36215398 2.2350074 0 0 Z " transform="translate(36,10)" style="fill: rgb(254, 219, 249); --darkreader-inline-fill: var(--darkreader-text-fedbf9, #fdb4f3);" data-darkreader-inline-fill=""></path><path d="M0 0 C0 8.91 0 17.82 0 27 C-3.42375 28.98 -6.8475 30.96 -10.375 33 C-11.45313965 33.62648437 -12.5312793 34.25296875 -13.64208984 34.8984375 C-14.91366943 35.62933594 -14.91366943 35.62933594 -16.2109375 36.375 C-17.08024902 36.87773438 -17.94956055 37.38046875 -18.84521484 37.8984375 C-21 39 -21 39 -23 39 C-23.88924329 35.71664015 -24.09651713 33.24949597 -23 30 C-19.15631603 26.76237408 -13.1976958 22 -8 22 C-8 16.06 -8 10.12 -8 4 C-1 0 -1 0 0 0 Z " transform="translate(59,23)" style="fill: rgb(254, 107, 250); --darkreader-inline-fill: var(--darkreader-text-fe6bfa, #fe65fa);" data-darkreader-inline-fill=""></path><path d="M0 0 C5.51568187 1.53311285 10.02034852 4.18752444 14.875 7.125 C16.050625 7.82689453 16.050625 7.82689453 17.25 8.54296875 C19.16982472 9.69018108 21.08630561 10.8426007 23 12 C20.53258609 14.64107354 18.42559084 15.79641403 15 17 C15 18.65 15 20.3 15 22 C14.67 22 14.34 22 14 22 C13.97035156 21.25234375 13.94070312 20.5046875 13.91015625 19.734375 C12.79597121 16.38703797 11.34645409 15.73723676 8.2878418 14.171875 C7.37192261 13.71554688 7.37192261 13.71554688 6.4375 13.25 C0.3126626 9.91524871 0.3126626 9.91524871 -0.859375 6.484375 C-0.81616796 4.19440185 -0.59787319 2.20753179 0 0 Z " transform="translate(36,10)" style="fill: rgb(254, 176, 254); --darkreader-inline-fill: var(--darkreader-text-feb0fe, #fe95fe);" data-darkreader-inline-fill=""></path><path d="M0 0 C7.75929463 4.48730292 7.75929463 4.48730292 8.81640625 8.15234375 C8.79484256 10.42731288 8.60320783 12.47029866 8.10546875 14.6875 C2.58978688 13.15438715 -1.91487977 10.49997556 -6.76953125 7.5625 C-7.55328125 7.09457031 -8.33703125 6.62664063 -9.14453125 6.14453125 C-11.06435597 4.99731892 -12.98083686 3.8448993 -14.89453125 2.6875 C-9.86064665 -2.48858473 -6.68526056 -3.03137321 0 0 Z " transform="translate(27.89453125,47.3125)" style="fill: rgb(227, 76, 209); --darkreader-inline-fill: var(--darkreader-text-e34cd1, #e556d3);" data-darkreader-inline-fill=""></path><path d="M0 0 C0 2.64 0 5.28 0 8 C-2.19511314 9.401264 -4.40180955 10.76961427 -6.625 12.125 C-7.24246094 12.52332031 -7.85992187 12.92164063 -8.49609375 13.33203125 C-11.75626984 15.28813691 -13.47554315 16.09137315 -17.2734375 15.4296875 C-19.75174543 14.1301736 -21.11784132 12.99689917 -23 11 C-21.90300781 10.45730469 -20.80601563 9.91460937 -19.67578125 9.35546875 C-18.22130061 8.6329203 -16.7668765 7.91025804 -15.3125 7.1875 C-14.59126953 6.83107422 -13.87003906 6.47464844 -13.12695312 6.10742188 C-10.04436362 4.573165 -7.04926524 3.02998465 -4.10546875 1.23828125 C-2 0 -2 0 0 0 Z " transform="translate(51,37)" style="fill: rgb(254, 218, 248); --darkreader-inline-fill: var(--darkreader-text-fedaf8, #fdb3f1);" data-darkreader-inline-fill=""></path><path d="M0 0 C-2.87093012 3.10311602 -5.70310174 5.17400924 -9.38671875 7.234375 C-10.40701172 7.80800781 -11.42730469 8.38164063 -12.47851562 8.97265625 C-14.06696289 9.85244141 -14.06696289 9.85244141 -15.6875 10.75 C-16.75806641 11.35199219 -17.82863281 11.95398438 -18.93164062 12.57421875 C-26.84485721 17 -26.84485721 17 -28 17 C-28 15.35 -28 13.7 -28 12 C-24.28438346 9.78884432 -20.55059892 7.61039613 -16.8125 5.4375 C-15.75740234 4.80908203 -14.70230469 4.18066406 -13.61523438 3.53320312 C-12.59365234 2.94345703 -11.57207031 2.35371094 -10.51953125 1.74609375 C-9.58214111 1.19622803 -8.64475098 0.6463623 -7.67895508 0.07983398 C-4.60265134 -1.16016341 -3.12076172 -0.97260853 0 0 Z " transform="translate(50,27)" style="fill: rgb(254, 252, 254); --darkreader-inline-fill: var(--darkreader-text-fefcfe, #f2d7f2);" data-darkreader-inline-fill=""></path><path d="M0 0 C-0.50645411 4.5652538 -0.50645411 4.5652538 -2.68652344 6.4855957 C-3.40356445 6.87835693 -4.12060547 7.27111816 -4.859375 7.67578125 C-6.03886719 8.32836914 -6.03886719 8.32836914 -7.2421875 8.99414062 C-8.48355469 9.64672852 -8.48355469 9.64672852 -9.75 10.3125 C-10.56210937 10.76689453 -11.37421875 11.22128906 -12.2109375 11.68945312 C-16.4022506 13.95917887 -19.14451171 15.27430633 -24 15 C-24 14.34 -24 13.68 -24 13 C-22.01220703 11.57958984 -22.01220703 11.57958984 -19.2578125 9.9609375 C-18.27425781 9.38085938 -17.29070313 8.80078125 -16.27734375 8.203125 C-15.23707031 7.59984375 -14.19679688 6.9965625 -13.125 6.375 C-12.09246094 5.76398437 -11.05992188 5.15296875 -9.99609375 4.5234375 C-2.27192034 0 -2.27192034 0 0 0 Z " transform="translate(50,33)" style="fill: rgb(254, 252, 254); --darkreader-inline-fill: var(--darkreader-text-fefcfe, #f2d7f2);" data-darkreader-inline-fill=""></path></svg>