<svg version="1.1" xmlns="http://www.w3.org/2000/svg"  viewBox="0 0 72 72" width="72" height="72"><path d="M0 0 C23.76 0 47.52 0 72 0 C72 23.76 72 47.52 72 72 C48.24 72 24.48 72 0 72 C0 48.24 0 24.48 0 0 Z " transform="translate(0,0)" style="fill: rgb(0, 0, 0); --darkreader-inline-fill: var(--darkreader-text-000000, #e8e6e3);" data-darkreader-inline-fill=""></path><path d="M0 0 C2.26306177 0.02457998 4.51755366 -0.02011154 6.7800293 -0.07104492 C18.80780336 -0.1481023 18.80780336 -0.1481023 23.43041992 4.07543945 C25.21833988 6.40648003 25.80017275 7.43561339 26.03979492 10.38793945 C24.49808845 13.51625647 22.6206449 16.25761677 20.52026367 19.0246582 C16.24858714 24.81480083 12.18162393 30.7136206 8.20776367 36.7121582 C7.67497803 37.51548584 7.14219238 38.31881348 6.59326172 39.14648438 C5.33782608 41.04210769 4.08422207 42.93890774 2.83276367 44.8371582 C-0.2500124 41.93767772 -2.59000467 38.93738587 -4.91723633 35.4074707 C-5.60817383 34.36461914 -6.29911133 33.32176758 -7.01098633 32.24731445 C-7.72254883 31.16321289 -8.43411133 30.07911133 -9.16723633 28.9621582 C-9.87879883 27.88579102 -10.59036133 26.80942383 -11.32348633 25.70043945 C-12.65374077 23.68768506 -13.98208834 21.67366807 -15.30786133 19.65795898 C-16.63584396 17.64331726 -18.02940485 15.67128789 -19.46411133 13.73120117 C-21.16723633 10.8371582 -21.16723633 10.8371582 -21.04443359 8.66210938 C-16.56977988 -0.64711313 -9.16239392 -0.1301674 0 0 Z " transform="translate(36.167236328125,16.162841796875)" style="fill: rgb(250, 151, 245); --darkreader-inline-fill: var(--darkreader-text-fa97f5, #f986f3);" data-darkreader-inline-fill=""></path><path d="M0 0 C5.28 0 10.56 0 16 0 C16.98006386 4.22896058 17.95908673 8.45815752 18.9375 12.6875 C19.35418945 14.48477539 19.35418945 14.48477539 19.77929688 16.31835938 C20.04677734 17.47529297 20.31425781 18.63222656 20.58984375 19.82421875 C20.83597412 20.88729248 21.08210449 21.95036621 21.33569336 23.0456543 C21.93046178 25.69074533 22.48157346 28.3390306 23 31 C25.18383004 24.01667907 27.03119184 17.00062785 28.6875 9.875 C29.02491211 8.44027344 29.02491211 8.44027344 29.36914062 6.9765625 C29.9154878 4.65168091 30.45813938 2.32593136 31 0 C36.28 0 41.56 0 47 0 C44.34441648 4.75836131 41.53248302 9.31506934 38.453125 13.80859375 C38.03705994 14.42017838 37.62099487 15.031763 37.19232178 15.66188049 C35.88064594 17.58875716 34.56539533 19.5131611 33.25 21.4375 C32.35262561 22.75439448 31.45548803 24.07145036 30.55859375 25.38867188 C28.37512547 28.5943179 26.18845074 31.79775359 24 35 C20.92957789 32.10831789 18.58037681 29.11638123 16.25 25.60546875 C15.5590625 24.56712891 14.868125 23.52878906 14.15625 22.45898438 C13.4446875 21.37939453 12.733125 20.29980469 12 19.1875 C11.2884375 18.11951172 10.576875 17.05152344 9.84375 15.95117188 C6.37853996 10.72426457 3.01334359 5.50092149 0 0 Z " transform="translate(15,26)" style="fill: rgb(254, 116, 249); --darkreader-inline-fill: var(--darkreader-text-fe74f9, #fe6bf9);" data-darkreader-inline-fill=""></path><path d="M0 0 C4.95 0 9.9 0 15 0 C13.36169054 11.17029179 10.69420305 22.04460062 8 33 C5.43332818 30.43332818 5.26952886 28.57323588 4.4921875 25.0390625 C4.22792969 23.84539063 3.96367188 22.65171875 3.69140625 21.421875 C3.42199219 20.16890625 3.15257812 18.9159375 2.875 17.625 C2.59785156 16.37976563 2.32070313 15.13453125 2.03515625 13.8515625 C0 4.54799107 0 4.54799107 0 0 Z " transform="translate(31,26)" style="fill: rgb(254, 194, 254); --darkreader-inline-fill: var(--darkreader-text-fec2fe, #fda2fd);" data-darkreader-inline-fill=""></path><path d="M0 0 C15.30224215 -1.22690583 15.30224215 -1.22690583 19.46484375 1.78125 C20.92291847 3.80615573 22.05763659 5.69301197 23 8 C9.95140759 9.07039235 9.95140759 9.07039235 5.22265625 6.4765625 C3.27277495 4.74881958 1.56329896 3.08273376 0 1 C0 0.67 0 0.34 0 0 Z " transform="translate(22,17)" style="fill: rgb(254, 115, 250); --darkreader-inline-fill: var(--darkreader-text-fe73fa, #fe6afa);" data-darkreader-inline-fill=""></path><path d="M0 0 C4.17159411 -0.59594202 7.59810549 -0.99046895 11.15625 1.5234375 C16 6.38703893 16 6.38703893 16 8 C10.72 8 5.44 8 0 8 C0 5.36 0 2.72 0 0 Z " transform="translate(46,17)" style="fill: rgb(254, 193, 254); --darkreader-inline-fill: var(--darkreader-text-fec1fe, #fda1fd);" data-darkreader-inline-fill=""></path><path d="M0 0 C3.33727786 1.17255709 5.77437487 2.18868404 8 5 C8 5.66 8 6.32 8 7 C3.38 7 -1.24 7 -6 7 C-4.02 4.69 -2.04 2.38 0 0 Z " transform="translate(21,18)" style="fill: rgb(255, 188, 254); --darkreader-inline-fill: var(--darkreader-text-ffbcfe, #ff9dfe);" data-darkreader-inline-fill=""></path><path d="M0 0 C1.66285211 3.32570422 -0.01920148 6.68360945 -0.9375 10.125 C-1.13279297 10.87910156 -1.32808594 11.63320313 -1.52929688 12.41015625 C-2.01323358 14.27508306 -2.50580769 16.13776459 -3 18 C-5.52480693 15.47519307 -5.55738633 13.86176966 -6.125 10.375 C-6.29257812 9.37210938 -6.46015625 8.36921875 -6.6328125 7.3359375 C-6.75398438 6.56507812 -6.87515625 5.79421875 -7 5 C-6.37609375 4.70351563 -5.7521875 4.40703125 -5.109375 4.1015625 C-2.96202908 2.98017074 -1.61904165 1.78094582 0 0 Z " transform="translate(42,41)" style="fill: rgb(254, 185, 254); --darkreader-inline-fill: var(--darkreader-text-feb9fe, #fe9cfe);" data-darkreader-inline-fill=""></path><path d="M0 0 C0.99 0.33 1.98 0.66 3 1 C3 1.99 3 2.98 3 4 C4.32 4.33 5.64 4.66 7 5 C7 5.66 7 6.32 7 7 C6.01 7.33 5.02 7.66 4 8 C3.01 9.485 3.01 9.485 2 11 C1.34 11 0.68 11 0 11 C-0.33 10.01 -0.66 9.02 -1 8 C-1.99 7.67 -2.98 7.34 -4 7 C-4 6.01 -4 5.02 -4 4 C-3.01 3.67 -2.02 3.34 -1 3 C-0.67 2.01 -0.34 1.02 0 0 Z " transform="translate(54,48)" style="fill: rgb(254, 215, 53); --darkreader-inline-fill: var(--darkreader-text-fed735, #fed93f);" data-darkreader-inline-fill=""></path><path d="M0 0 C2.64752004 2.57784846 4.94432065 4.91648098 7 8 C2.38 8 -2.24 8 -7 8 C-1.125 1.125 -1.125 1.125 0 0 Z " transform="translate(38,17)" style="fill: rgb(231, 86, 214); --darkreader-inline-fill: var(--darkreader-text-e756d6, #e85cd7);" data-darkreader-inline-fill=""></path><path d="M0 0 C2.64 0 5.28 0 8 0 C8 2.64 8 5.28 8 8 C5.36 8.33 2.72 8.66 0 9 C-1.53445094 5.93109813 -0.54984289 3.29905734 0 0 Z " transform="translate(8,13)" style="fill: rgb(254, 215, 53); --darkreader-inline-fill: var(--darkreader-text-fed735, #fed93f);" data-darkreader-inline-fill=""></path><path d="M0 0 C3.3 0 6.6 0 10 0 C5.60546875 5.46875 5.60546875 5.46875 4 7 C3.01 7 2.02 7 1 7 C0.67 4.69 0.34 2.38 0 0 Z " transform="translate(31,26)" style="fill: rgb(255, 191, 254); --darkreader-inline-fill: var(--darkreader-text-ffbffe, #ff9ffe);" data-darkreader-inline-fill=""></path><path d="M0 0 C1.0209375 0.2165625 1.0209375 0.2165625 2.0625 0.4375 C0.89843677 1.60156323 -0.26620939 2.76504865 -1.43359375 3.92578125 C-2.4778339 4.97544602 -3.51097976 6.03621848 -4.53515625 7.10546875 C-5.96611348 8.58564809 -7.44902221 10.01517678 -8.9375 11.4375 C-9.5975 11.4375 -10.2575 11.4375 -10.9375 11.4375 C-10.00310071 5.88028319 -5.63218628 0.83883625 0 0 Z " transform="translate(43.9375,25.5625)" style="fill: rgb(254, 251, 255); --darkreader-inline-fill: var(--darkreader-text-fefbff, #f2c9ff);" data-darkreader-inline-fill=""></path><path d="M0 0 C2.31 0 4.62 0 7 0 C7 2.64 7 5.28 7 8 C5.8274869 7.04882866 4.66212985 6.08882991 3.5 5.125 C2.8503125 4.59132813 2.200625 4.05765625 1.53125 3.5078125 C1.0259375 3.01023437 0.520625 2.51265625 0 2 C0 1.34 0 0.68 0 0 Z " transform="translate(39,17)" style="fill: rgb(253, 112, 247); --darkreader-inline-fill: var(--darkreader-text-fd70f7, #fd69f7);" data-darkreader-inline-fill=""></path><path d="M0 0 C0.33 1.32 0.66 2.64 1 4 C-1.31 5.98 -3.62 7.96 -6 10 C-6 6 -6 6 -4.6875 4.296875 C-4.130625 3.78640625 -3.57375 3.2759375 -3 2.75 C-2.1646875 1.96882813 -2.1646875 1.96882813 -1.3125 1.171875 C-0.879375 0.78515625 -0.44625 0.3984375 0 0 Z " transform="translate(42,37)" style="fill: rgb(254, 250, 254); --darkreader-inline-fill: var(--darkreader-text-fefafe, #f6d1f6);" data-darkreader-inline-fill=""></path><path d="M0 0 C2.31 0 4.62 0 7 0 C6.02433888 1.16959987 5.044375 2.33561177 4.0625 3.5 C3.51722656 4.1496875 2.97195312 4.799375 2.41015625 5.46875 C1.94480469 5.9740625 1.47945312 6.479375 1 7 C0.67 7 0.34 7 0 7 C0 4.69 0 2.38 0 0 Z " transform="translate(47,17)" style="fill: rgb(254, 221, 248); --darkreader-inline-fill: var(--darkreader-text-feddf8, #fdb6f0);" data-darkreader-inline-fill=""></path><path d="M0 0 C1.65 0 3.3 0 5 0 C5.33 0.66 5.66 1.32 6 2 C5.67 2.66 5.34 3.32 5 4 C3.35 4 1.7 4 0 4 C0 2.68 0 1.36 0 0 Z " transform="translate(21,49)" style="fill: rgb(210, 227, 255); --darkreader-inline-fill: var(--darkreader-text-d2e3ff, #acd6ff);" data-darkreader-inline-fill=""></path><path d="M0 0 C1.32 0 2.64 0 4 0 C4 1.65 4 3.3 4 5 C2.68 5 1.36 5 0 5 C0 3.35 0 1.7 0 0 Z " transform="translate(16,43)" style="fill: rgb(211, 227, 255); --darkreader-inline-fill: var(--darkreader-text-d3e3ff, #add6ff);" data-darkreader-inline-fill=""></path><path d="M0 0 C0.99 0.33 1.98 0.66 3 1 C3 2.65 3 4.3 3 6 C1.68 5.67 0.36 5.34 -1 5 C-0.67 3.35 -0.34 1.7 0 0 Z " transform="translate(17,53)" style="fill: rgb(211, 227, 255); --darkreader-inline-fill: var(--darkreader-text-d3e3ff, #add6ff);" data-darkreader-inline-fill=""></path><path d="M0 0 C1.65 0 3.3 0 5 0 C5 1.32 5 2.64 5 4 C3.35 3.67 1.7 3.34 0 3 C0 2.01 0 1.02 0 0 Z " transform="translate(10,49)" style="fill: rgb(211, 227, 254); --darkreader-inline-fill: var(--darkreader-text-d3e3fe, #aed6fd);" data-darkreader-inline-fill=""></path></svg>