<svg version="1.1" xmlns="http://www.w3.org/2000/svg"  viewBox="0 0 72 72" width="72" height="72"><path d="M0 0 C23.76 0 47.52 0 72 0 C72 23.76 72 47.52 72 72 C48.24 72 24.48 72 0 72 C0 48.24 0 24.48 0 0 Z " transform="translate(0,0)" style="fill: rgb(0, 0, 0); --darkreader-inline-fill: var(--darkreader-text-000000, #e8e6e3);" data-darkreader-inline-fill=""></path><path d="M0 0 C7.27101301 3.46039727 14.12328369 8.8370606 18 16 C19.90555252 23.81879392 20.39691505 34.53472137 17.10058594 42.05078125 C16.0546875 43.71875 16.0546875 43.71875 14 46 C13.34 46 12.68 46 12 46 C11.773125 46.598125 11.54625 47.19625 11.3125 47.8125 C9.64880506 50.58532489 7.79334541 51.43300136 5 53 C3.24850835 54.58245275 3.24850835 54.58245275 2 56 C-5.36072011 52.49690961 -11.91457096 47.12998444 -16 40 C-18.54372145 32.25058697 -18.63301548 23.73170484 -16 16 C-11.95954996 9.44968333 -6.13318452 4.54279757 0 0 Z " transform="translate(35,8)" style="fill: rgb(254, 116, 249); --darkreader-inline-fill: var(--darkreader-text-fe74f9, #fe6bf9);" data-darkreader-inline-fill=""></path><path d="M0 0 C5.62219846 4.66522851 11.16010796 9.51259405 16 15 C16 15.66 16 16.32 16 17 C13.69 17.99 11.38 18.98 9 20 C9.00902344 21.14597656 9.01804687 22.29195312 9.02734375 23.47265625 C8.87720021 35.5492458 8.87720021 35.5492458 6.375 39.6875 C4.66218189 41.34506591 3.01979224 42.73960745 1 44 C-2.88645007 42.41663145 -5.41245789 40.30043637 -8 37 C-8.76662928 34.02306983 -8.80784925 31.18757055 -8.75 28.125 C-8.74476318 27.31144043 -8.73952637 26.49788086 -8.73413086 25.65966797 C-8.58944972 22.08071339 -8.47042785 19.70504629 -6.45703125 16.6875 C-5.21108623 15.65991648 -3.93329306 14.66958611 -2.625 13.72265625 C0.73341264 10.16241593 0.05346859 4.65176744 0 0 Z " transform="translate(36,8)" style="fill: rgb(254, 221, 248); --darkreader-inline-fill: var(--darkreader-text-feddf8, #fdb6f0);" data-darkreader-inline-fill=""></path><path d="M0 0 C0.11668214 3.87474457 0.18741231 7.74903396 0.25 11.625 C0.30027344 13.26662109 0.30027344 13.26662109 0.3515625 14.94140625 C0.4275409 21.20962433 0.42227739 25.33204054 -4 30 C-4.66 30 -5.32 30 -6 30 C-6.226875 30.598125 -6.45375 31.19625 -6.6875 31.8125 C-8.36067582 34.60112637 -10.17017853 35.45033586 -13 37 C-14.34315996 37.98676192 -15.67822854 38.98476703 -17 40 C-17.42184994 35.92211724 -17.61020951 32.06461592 -17 28 C-15.4765625 26.2421875 -15.4765625 26.2421875 -13.5625 24.8125 C-10.51513786 22.37952539 -9.74331003 20.56646276 -9.3125 16.796875 C-9.01688777 12.53072374 -8.96633718 8.27517838 -9 4 C-7.68872739 3.3309224 -6.3759455 2.66480194 -5.0625 2 C-4.33160156 1.62875 -3.60070312 1.2575 -2.84765625 0.875 C-1 0 -1 0 0 0 Z " transform="translate(53,24)" style="fill: rgb(252, 121, 250); --darkreader-inline-fill: var(--darkreader-text-fc79fa, #fc6ffa);" data-darkreader-inline-fill=""></path><path d="M0 0 C1.12588014 0.95729916 2.2506715 1.91587895 3.375 2.875 C4.00148438 3.40867188 4.62796875 3.94234375 5.2734375 4.4921875 C8.98132238 7.73029511 8.98132238 7.73029511 9.1953125 10.8203125 C9.17210938 11.91085938 9.14890625 13.00140625 9.125 14.125 C9.10695313 15.22070312 9.08890625 16.31640625 9.0703125 17.4453125 C9.04710938 18.28835937 9.02390625 19.13140625 9 20 C3.37780154 15.33477149 -2.16010796 10.48740595 -7 5 C-7 4.34 -7 3.68 -7 3 C-4.69 2.01 -2.38 1.02 0 0 Z " transform="translate(27,44)" style="fill: rgb(230, 85, 212); --darkreader-inline-fill: var(--darkreader-text-e655d4, #e75cd6);" data-darkreader-inline-fill=""></path><path d="M0 0 C5.62219846 4.66522851 11.16010796 9.51259405 16 15 C16 15.66 16 16.32 16 17 C13.36 17.99 10.72 18.98 8 20 C3.82642553 16.83255509 0.35647809 14.1493532 -0.53125 8.796875 C-0.50311065 5.82817387 -0.3536128 2.94677337 0 0 Z " transform="translate(36,8)" style="fill: rgb(254, 191, 254); --darkreader-inline-fill: var(--darkreader-text-febffe, #fea0fe);" data-darkreader-inline-fill=""></path><path d="M0 0 C3.36720387 1.39332574 4.9859524 2.9789286 7 6 C4.85714108 8.16968191 2.71091768 10.33583475 0.5625 12.5 C-0.35499023 13.43005859 -0.35499023 13.43005859 -1.29101562 14.37890625 C-1.87431641 14.96542969 -2.45761719 15.55195312 -3.05859375 16.15625 C-3.59798584 16.70087891 -4.13737793 17.24550781 -4.69311523 17.80664062 C-6 19 -6 19 -7 19 C-8.0735426 8.62242152 -8.0735426 8.62242152 -5.44140625 4.64453125 C-3.70296491 2.94806435 -1.96595538 1.42431461 0 0 Z " transform="translate(35,20)" style="fill: rgb(254, 220, 249); --darkreader-inline-fill: var(--darkreader-text-fedcf9, #fdb5f2);" data-darkreader-inline-fill=""></path><path d="M0 0 C0.99 0.33 1.98 0.66 3 1 C1.68285542 3.91537501 0.26341874 5.9847013 -2.00390625 8.234375 C-2.57947266 8.80800781 -3.15503906 9.38164063 -3.74804688 9.97265625 C-4.34681641 10.55917969 -4.94558594 11.14570312 -5.5625 11.75 C-6.16513672 12.35199219 -6.76777344 12.95398438 -7.38867188 13.57421875 C-11.85961416 18 -11.85961416 18 -13 18 C-13.40625 15.92578125 -13.40625 15.92578125 -13 13 C-11.09840772 10.4546395 -8.81912527 8.34992761 -6.5 6.1875 C-5.56994141 5.2912793 -5.56994141 5.2912793 -4.62109375 4.37695312 C-3.09174512 2.90642559 -1.54728534 1.4516427 0 0 Z " transform="translate(41,26)" style="fill: rgb(254, 250, 253); --darkreader-inline-fill: var(--darkreader-text-fefafd, #f6d1ed);" data-darkreader-inline-fill=""></path><path d="M0 0 C0 2.64 0 5.28 0 8 C-2.97 8 -5.94 8 -9 8 C-8.814375 7.236875 -8.62875 6.47375 -8.4375 5.6875 C-7.77180827 2.91032625 -7.77180827 2.91032625 -9 0 C-2.25 -1.125 -2.25 -1.125 0 0 Z " transform="translate(21,9)" style="fill: rgb(254, 215, 53); --darkreader-inline-fill: var(--darkreader-text-fed735, #fed93f);" data-darkreader-inline-fill=""></path><path d="M0 0 C0.80078125 1.671875 0.80078125 1.671875 1 4 C-1.01953125 6.578125 -1.01953125 6.578125 -3.8125 9.25 C-4.72644531 10.14203125 -5.64039063 11.0340625 -6.58203125 11.953125 C-9 14 -9 14 -11 14 C-10.52590352 9.68269587 -7.96603297 7.66352539 -4.9375 4.75 C-4.01839844 3.85796875 -3.09929688 2.9659375 -2.15234375 2.046875 C-1.44207031 1.37140625 -0.73179688 0.6959375 0 0 Z " transform="translate(43,35)" style="fill: rgb(254, 253, 254); --darkreader-inline-fill: var(--darkreader-text-fefdfe, #eddced);" data-darkreader-inline-fill=""></path><path d="M0 0 C1.98 0 3.96 0 6 0 C5.67 1.32 5.34 2.64 5 4 C3.35 3.67 1.7 3.34 0 3 C0 2.01 0 1.02 0 0 Z " transform="translate(51,54)" style="fill: rgb(210, 226, 254); --darkreader-inline-fill: var(--darkreader-text-d2e2fe, #aed5fd);" data-darkreader-inline-fill=""></path><path d="M0 0 C0.99 0 1.98 0 3 0 C3 1.98 3 3.96 3 6 C2.01 6 1.02 6 0 6 C0 4.02 0 2.04 0 0 Z " transform="translate(47,58)" style="fill: rgb(211, 227, 255); --darkreader-inline-fill: var(--darkreader-text-d3e3ff, #add6ff);" data-darkreader-inline-fill=""></path><path d="M0 0 C1.65 0 3.3 0 5 0 C4.67 1.32 4.34 2.64 4 4 C2.68 3.67 1.36 3.34 0 3 C0 2.01 0 1.02 0 0 Z " transform="translate(41,54)" style="fill: rgb(217, 211, 254); --darkreader-inline-fill: var(--darkreader-text-d9d3fe, #b9aefd);" data-darkreader-inline-fill=""></path></svg>