<svg version="1.1" xmlns="http://www.w3.org/2000/svg"  viewBox="0 0 72 72" width="72" height="72"><path d="M0 0 C23.76 0 47.52 0 72 0 C72 23.76 72 47.52 72 72 C48.24 72 24.48 72 0 72 C0 48.24 0 24.48 0 0 Z " transform="translate(0,0)" style="fill: rgb(0, 0, 0); --darkreader-inline-fill: var(--darkreader-text-000000, #e8e6e3);" data-darkreader-inline-fill=""></path><path d="M0 0 C7.36072011 3.50309039 13.91457096 8.87001556 18 16 C20.54372145 23.74941303 20.63301548 32.26829516 18 40 C13.95954996 46.55031667 8.13318452 51.45720243 2 56 C-5.36072011 52.49690961 -11.91457096 47.12998444 -16 40 C-18.54372145 32.25058697 -18.63301548 23.73170484 -16 16 C-11.95954996 9.44968333 -6.13318452 4.54279757 0 0 Z " transform="translate(35,8)" style="fill: rgb(254, 108, 249); --darkreader-inline-fill: var(--darkreader-text-fe6cf9, #fe65f9);" data-darkreader-inline-fill=""></path><path d="M0 0 C5.62219846 4.66522851 11.16010796 9.51259405 16 15 C16 15.66 16 16.32 16 17 C13.69 17.99 11.38 18.98 9 20 C9.00902344 21.14597656 9.01804687 22.29195312 9.02734375 23.47265625 C8.87720021 35.5492458 8.87720021 35.5492458 6.375 39.6875 C4.66218189 41.34506591 3.01979224 42.73960745 1 44 C-2.88645007 42.41663145 -5.41245789 40.30043637 -8 37 C-8.76662928 34.02306983 -8.80784925 31.18757055 -8.75 28.125 C-8.74476318 27.31144043 -8.73952637 26.49788086 -8.73413086 25.65966797 C-8.58944972 22.08071339 -8.47042785 19.70504629 -6.45703125 16.6875 C-5.21108623 15.65991648 -3.93329306 14.66958611 -2.625 13.72265625 C0.73341264 10.16241593 0.05346859 4.65176744 0 0 Z " transform="translate(36,8)" style="fill: rgb(254, 220, 248); --darkreader-inline-fill: var(--darkreader-text-fedcf8, #fdb5f0);" data-darkreader-inline-fill=""></path><path d="M0 0 C5.62219846 4.66522851 11.16010796 9.51259405 16 15 C16 15.66 16 16.32 16 17 C13.36 17.99 10.72 18.98 8 20 C3.82642553 16.83255509 0.35647809 14.1493532 -0.53125 8.796875 C-0.50311065 5.82817387 -0.3536128 2.94677337 0 0 Z " transform="translate(36,8)" style="fill: rgb(254, 175, 254); --darkreader-inline-fill: var(--darkreader-text-feaffe, #fe95fe);" data-darkreader-inline-fill=""></path></svg>