<svg version="1.1" xmlns="http://www.w3.org/2000/svg"  viewBox="0 0 72 72" width="72" height="72"><path d="M0 0 C23.76 0 47.52 0 72 0 C72 23.76 72 47.52 72 72 C48.24 72 24.48 72 0 72 C0 48.24 0 24.48 0 0 Z " transform="translate(0,0)" style="fill: rgb(0, 0, 0); --darkreader-inline-fill: var(--darkreader-text-000000, #e8e6e3);" data-darkreader-inline-fill=""></path><path d="M0 0 C0.87269531 -0.0038269 1.74539062 -0.00765381 2.64453125 -0.01159668 C4.48699092 -0.0143149 6.32948924 -0.00695994 8.171875 0.00976562 C10.99045934 0.03117752 13.80649485 0.00996199 16.625 -0.015625 C18.41667229 -0.01298171 20.20834299 -0.00785669 22 0 C22.84175781 -0.00809692 23.68351562 -0.01619385 24.55078125 -0.02453613 C28.13136419 0.03278396 30.39761762 0.18098442 33.52929688 2.00195312 C35.73374916 5.79314264 35.57275697 9.21617695 35.53125 13.53125 C35.5350769 14.40394531 35.53890381 15.27664062 35.54284668 16.17578125 C35.5455649 18.01824092 35.53820994 19.86073924 35.52148438 21.703125 C35.50007248 24.52170934 35.52128801 27.33774485 35.546875 30.15625 C35.54423171 31.94792229 35.53910669 33.73959299 35.53125 35.53125 C35.53934692 36.37300781 35.54744385 37.21476562 35.55578613 38.08203125 C35.49846604 41.66261419 35.35026558 43.92886762 33.52929688 47.06054688 C29.73810736 49.26499916 26.31507305 49.10400697 22 49.0625 C21.12730469 49.0663269 20.25460938 49.07015381 19.35546875 49.07409668 C17.51300908 49.0768149 15.67051076 49.06945994 13.828125 49.05273438 C11.00954066 49.03132248 8.19350515 49.05253801 5.375 49.078125 C3.58332771 49.07548171 1.79165701 49.07035669 0 49.0625 C-0.84175781 49.07059692 -1.68351562 49.07869385 -2.55078125 49.08703613 C-6.13136419 49.02971604 -8.39761762 48.88151558 -11.52929688 47.06054688 C-13.73374916 43.26935736 -13.57275697 39.84632305 -13.53125 35.53125 C-13.5350769 34.65855469 -13.53890381 33.78585938 -13.54284668 32.88671875 C-13.5455649 31.04425908 -13.53820994 29.20176076 -13.52148438 27.359375 C-13.50007248 24.54079066 -13.52128801 21.72475515 -13.546875 18.90625 C-13.54423171 17.11457771 -13.53910669 15.32290701 -13.53125 13.53125 C-13.53934692 12.68949219 -13.54744385 11.84773438 -13.55578613 10.98046875 C-13.49846604 7.39988581 -13.35026558 5.13363238 -11.52929688 2.00195312 C-7.73810736 -0.20249916 -4.31507305 -0.04150697 0 0 Z " transform="translate(25,11.46875)" style="fill: rgb(254, 223, 249); --darkreader-inline-fill: var(--darkreader-text-fedff9, #fdb7f2);" data-darkreader-inline-fill=""></path><path d="M0 0 C4.11129758 5.23256055 5.25078771 8.40389978 5.1953125 15.171875 C5.1924826 15.8542926 5.18965271 16.53671021 5.18673706 17.23980713 C5.17558098 19.41005307 5.15048557 21.57987971 5.125 23.75 C5.11496426 25.22525444 5.10583944 26.70051537 5.09765625 28.17578125 C5.07736175 31.78414397 5.03820653 35.39160504 5 39 C14.9 39 24.8 39 35 39 C34.95359375 36.855 34.9071875 34.71 34.859375 32.5 C34.82808648 30.39829875 34.80385208 28.29662448 34.78027344 26.19482422 C34.76028705 24.74581083 34.73308803 23.29687675 34.69824219 21.84814453 C34.50704595 13.6885639 34.36215717 7.01154192 39 0 C41.46069336 1.4375 41.46069336 1.4375 44 4 C44.75397929 6.9924417 44.67730381 9.92726052 44.62890625 13 C44.63131821 13.87269531 44.63373016 14.74539062 44.63621521 15.64453125 C44.63523704 17.48702546 44.62185055 19.32954916 44.59692383 21.171875 C44.56261442 23.99059984 44.57626475 26.80618937 44.59570312 29.625 C44.5888045 31.41668 44.57913196 33.20835191 44.56640625 35 C44.57136612 35.84175781 44.57632599 36.68351562 44.58143616 37.55078125 C44.50950329 41.128349 44.34839557 43.40172747 42.52709961 46.52929688 C38.7375134 48.73473281 35.31405814 48.57274721 31 48.53125 C30.12730469 48.5350769 29.25460938 48.53890381 28.35546875 48.54284668 C26.51300908 48.5455649 24.67051076 48.53820994 22.828125 48.52148438 C20.00954066 48.50007248 17.19350515 48.52128801 14.375 48.546875 C12.58332771 48.54423171 10.79165701 48.53910669 9 48.53125 C8.15824219 48.53934692 7.31648438 48.54744385 6.44921875 48.55578613 C2.86863581 48.49846604 0.60238238 48.35026558 -2.52929688 46.52929688 C-4.73374916 42.73810736 -4.57275697 39.31507305 -4.53125 35 C-4.5350769 34.12730469 -4.53890381 33.25460938 -4.54284668 32.35546875 C-4.5455649 30.51300908 -4.53820994 28.67051076 -4.52148438 26.828125 C-4.50007248 24.00954066 -4.52128801 21.19350515 -4.546875 18.375 C-4.54423171 16.58332771 -4.53910669 14.79165701 -4.53125 13 C-4.53934692 12.15824219 -4.54744385 11.31648438 -4.55578613 10.44921875 C-4.46186177 4.58209667 -4.46186177 4.58209667 -1.96679688 1.4375 C-1.31775391 0.963125 -0.66871094 0.48875 0 0 Z " transform="translate(16,12)" style="fill: rgb(254, 107, 249); --darkreader-inline-fill: var(--darkreader-text-fe6bf9, #fe65f9);" data-darkreader-inline-fill=""></path><path d="M0 0 C12.54 0 25.08 0 38 0 C36 6 36 6 34 9 C31.01904297 9.34057617 31.01904297 9.34057617 27.2421875 9.29296875 C26.57913605 9.28872391 25.91608459 9.28447906 25.23294067 9.28010559 C23.11321559 9.26329971 20.99443812 9.22564701 18.875 9.1875 C17.43881581 9.17245549 16.00261672 9.15876668 14.56640625 9.14648438 C11.04396236 9.1133909 7.52207364 9.0615968 4 9 C0 2.25 0 2.25 0 0 Z " transform="translate(17,12)" style="fill: rgb(254, 175, 254); --darkreader-inline-fill: var(--darkreader-text-feaffe, #fe95fe);" data-darkreader-inline-fill=""></path><path d="M0 0 C7.92 0 15.84 0 24 0 C17.23832509 7.88862073 17.23832509 7.88862073 13.73046875 11.40234375 C12.61575195 12.51899414 12.61575195 12.51899414 11.47851562 13.65820312 C10.34446289 14.78645508 10.34446289 14.78645508 9.1875 15.9375 C8.41212891 16.71673828 7.63675781 17.49597656 6.83789062 18.29882812 C6.10119141 19.03423828 5.36449219 19.76964844 4.60546875 20.52734375 C3.93668701 21.19499756 3.26790527 21.86265137 2.57885742 22.55053711 C1 24 1 24 0 24 C0 16.08 0 8.16 0 0 Z " transform="translate(21,21)" style="fill: rgb(254, 222, 248); --darkreader-inline-fill: var(--darkreader-text-fedef8, #fdb6f0);" data-darkreader-inline-fill=""></path><path d="M0 0 C-1.61594832 2.04119788 -3.2856382 4.04072937 -5 6 C-5.66 6 -6.32 6 -7 6 C-7.268125 6.598125 -7.53625 7.19625 -7.8125 7.8125 C-8.99917406 9.99847854 -10.09599113 11.41332594 -12 13 C-12.66 13 -13.32 13 -14 13 C-14.2475 13.5775 -14.495 14.155 -14.75 14.75 C-16.18299988 17.32939979 -17.78424676 19.06121592 -20 21 C-20.66 21 -21.32 21 -22 21 C-22.33 21.99 -22.66 22.98 -23 24 C-23.66 24 -24.32 24 -25 24 C-25.33 24.99 -25.66 25.98 -26 27 C-26.66 27 -27.32 27 -28 27 C-28.33 27.99 -28.66 28.98 -29 30 C-29.33 30 -29.66 30 -30 30 C-30.47734052 26.00588098 -30.3048501 24.41712985 -27.89208984 21.11572266 C-26.93151172 20.11574717 -25.95324549 19.13255936 -24.9609375 18.1640625 C-24.44246246 17.63984711 -23.92398743 17.11563171 -23.38980103 16.57553101 C-22.29246104 15.47411835 -21.18754806 14.38020553 -20.07568359 13.29345703 C-18.38008083 11.62998455 -16.71887142 9.93692978 -15.05859375 8.23828125 C-13.98629344 7.16994597 -12.91213328 6.10347353 -11.8359375 5.0390625 C-11.34193451 4.53291412 -10.84793152 4.02676575 -10.33895874 3.50527954 C-6.90431995 0.20595977 -4.72286246 -0.56443326 0 0 Z " transform="translate(51,21)" style="fill: rgb(254, 251, 254); --darkreader-inline-fill: var(--darkreader-text-fefbfe, #f4d3f4);" data-darkreader-inline-fill=""></path><path d="M0 0 C0.33396689 3.15829337 0.2927454 4.58684868 -1.57299805 7.2199707 C-2.29527588 7.94788818 -3.01755371 8.67580566 -3.76171875 9.42578125 C-4.55126953 10.22177734 -5.34082031 11.01777344 -6.15429688 11.83789062 C-7.40823242 13.06282227 -7.40823242 13.06282227 -8.6875 14.3125 C-9.50412109 15.14845703 -10.32074219 15.98441406 -11.16210938 16.84570312 C-12.35610352 18.0300293 -12.35610352 18.0300293 -13.57421875 19.23828125 C-14.66609497 20.321698 -14.66609497 20.321698 -15.7800293 21.42700195 C-18.41315132 23.2927454 -19.84170663 23.33396689 -23 23 C-18.47783954 17.58052896 -13.69081573 12.53850008 -8.6875 7.5625 C-7.95982422 6.83095703 -7.23214844 6.09941406 -6.48242188 5.34570312 C-5.79083984 4.65541016 -5.09925781 3.96511719 -4.38671875 3.25390625 C-3.75983154 2.62814697 -3.13294434 2.0023877 -2.48706055 1.35766602 C-1 0 -1 0 0 0 Z " transform="translate(51,28)" style="fill: rgb(254, 254, 254); --darkreader-inline-fill: var(--darkreader-text-fefefe, #e7e5e2);" data-darkreader-inline-fill=""></path><path d="M0 0 C1.65 1.65 3.3 3.3 5 5 C-0.75 8 -0.75 8 -3 8 C-1.125 2.25 -1.125 2.25 0 0 Z " transform="translate(55,12)" style="fill: rgb(228, 77, 211); --darkreader-inline-fill: var(--darkreader-text-e44dd3, #e556d5);" data-darkreader-inline-fill=""></path><path d="M0 0 C5.75 1.75 5.75 1.75 8 4 C6.35 5.32 4.7 6.64 3 8 C0 2.25 0 2.25 0 0 Z " transform="translate(52,52)" style="fill: rgb(255, 188, 254); --darkreader-inline-fill: var(--darkreader-text-ffbcfe, #ff9dfe);" data-darkreader-inline-fill=""></path><path d="M0 0 C-1.75 5.75 -1.75 5.75 -4 8 C-5.32 6.35 -6.64 4.7 -8 3 C-2.25 0 -2.25 0 0 0 Z " transform="translate(20,52)" style="fill: rgb(227, 76, 210); --darkreader-inline-fill: var(--darkreader-text-e34cd2, #e556d4);" data-darkreader-inline-fill=""></path></svg>