<svg version="1.1" xmlns="http://www.w3.org/2000/svg"  viewBox="0 0 72 72" width="72" height="72"><path d="M0 0 C23.76 0 47.52 0 72 0 C72 23.76 72 47.52 72 72 C48.24 72 24.48 72 0 72 C0 48.24 0 24.48 0 0 Z " transform="translate(0,0)" style="fill: rgb(0, 0, 0); --darkreader-inline-fill: var(--darkreader-text-000000, #e8e6e3);" data-darkreader-inline-fill=""></path><path d="M0 0 C4.10108886 1.62156024 6.83148167 4.5767703 9.859375 7.6640625 C10.683237 8.49216934 10.683237 8.49216934 11.52374268 9.33700562 C13.27059293 11.09501815 15.01034601 12.8598689 16.75 14.625 C17.93573591 15.8207708 19.1219288 17.01608865 20.30859375 18.2109375 C23.21105085 21.13540253 26.1071641 24.06601874 29 27 C27.37843976 31.10108886 24.4232297 33.83148167 21.3359375 36.859375 C20.78386627 37.40861633 20.23179504 37.95785767 19.66299438 38.52374268 C17.90498185 40.27059293 16.1401311 42.01034601 14.375 43.75 C13.1792292 44.93573591 11.98391135 46.1219288 10.7890625 47.30859375 C7.86459747 50.21105085 4.93398126 53.1071641 2 56 C-2.10108886 54.37843976 -4.83148167 51.4232297 -7.859375 48.3359375 C-8.40861633 47.78386627 -8.95785767 47.23179504 -9.52374268 46.66299438 C-11.27059293 44.90498185 -13.01034601 43.1401311 -14.75 41.375 C-15.93573591 40.1792292 -17.1219288 38.98391135 -18.30859375 37.7890625 C-21.21105085 34.86459747 -24.1071641 31.93398126 -27 29 C-25.37843976 24.89891114 -22.4232297 22.16851833 -19.3359375 19.140625 C-18.78386627 18.59138367 -18.23179504 18.04214233 -17.66299438 17.47625732 C-15.90498185 15.72940707 -14.1401311 13.98965399 -12.375 12.25 C-11.1792292 11.06426409 -9.98391135 9.8780712 -8.7890625 8.69140625 C-5.86459747 5.78894915 -2.93398126 2.8928359 0 0 Z " transform="translate(35,8)" style="fill: rgb(254, 109, 249); --darkreader-inline-fill: var(--darkreader-text-fe6df9, #fe66f9);" data-darkreader-inline-fill=""></path><path d="M0 0 C5.82628086 4.80809586 11.17223502 10.01804955 16.50024414 15.36987305 C17.95539571 16.83046259 19.41591857 18.28553203 20.87695312 19.74023438 C22.25077148 21.11598633 22.25077148 21.11598633 23.65234375 22.51953125 C24.48757568 23.35589111 25.32280762 24.19225098 26.18334961 25.05395508 C28 27 28 27 28 28 C27.2265625 27.99097656 26.453125 27.98195313 25.65625 27.97265625 C18.69512671 28.17080704 14.75607759 29.01782395 9.82421875 34.01171875 C9.22222656 34.66785156 8.62023437 35.32398438 8 36 C6.66943202 37.31530334 5.33622605 38.62794513 4 39.9375 C2.99739287 40.95577287 1.99636187 41.97561545 1 43 C-3.04135587 41.40069566 -5.67907152 38.51339591 -8.625 35.4375 C-11.96402902 31.77285984 -11.96402902 31.77285984 -16 29 C-14.63025857 25.22640771 -12.16166228 23.22524566 -9.25073242 20.63354492 C-2.12134268 14.24678345 -2.12134268 14.24678345 0.3125 5.1875 C0.28434742 2.30496833 0.28434742 2.30496833 0 0 Z " transform="translate(36,8)" style="fill: rgb(254, 222, 248); --darkreader-inline-fill: var(--darkreader-text-fedef8, #fdb6f0);" data-darkreader-inline-fill=""></path><path d="M0 0 C5.82628086 4.80809586 11.17223502 10.01804955 16.50024414 15.36987305 C17.95539571 16.83046259 19.41591857 18.28553203 20.87695312 19.74023438 C22.25077148 21.11598633 22.25077148 21.11598633 23.65234375 22.51953125 C24.48757568 23.35589111 25.32280762 24.19225098 26.18334961 25.05395508 C28 27 28 27 28 28 C16.73165472 30.16894466 16.73165472 30.16894466 12.82421875 27.53125 C11.06990227 25.43413605 9.54711418 23.25315381 8 21 C6.71700751 19.63824955 5.40532845 18.30278386 4.0625 17 C3.47597656 16.4225 2.88945313 15.845 2.28515625 15.25 C1.86105469 14.8375 1.43695313 14.425 1 14 C-4.66129431 18.69766975 -9.85228904 23.74723372 -15 29 C-15 26 -15 26 -13.73071289 24.56469727 C-13.1505542 24.07026123 -12.57039551 23.5758252 -11.97265625 23.06640625 C-3.10911575 15.67216351 -3.10911575 15.67216351 0.375 5.125 C0.32473333 2.26957476 0.32473333 2.26957476 0 0 Z " transform="translate(36,8)" style="fill: rgb(254, 178, 254); --darkreader-inline-fill: var(--darkreader-text-feb2fe, #fe97fe);" data-darkreader-inline-fill=""></path></svg>