<svg version="1.1" xmlns="http://www.w3.org/2000/svg"  viewBox="0 0 72 72" width="72" height="72"><path d="M0 0 C23.76 0 47.52 0 72 0 C72 23.76 72 47.52 72 72 C48.24 72 24.48 72 0 72 C0 48.24 0 24.48 0 0 Z " transform="translate(0,0)" style="fill: rgb(0, 0, 0); --darkreader-inline-fill: var(--darkreader-text-000000, #e8e6e3);" data-darkreader-inline-fill=""></path><path d="M0 0 C4.01442944 1.33814315 4.17529351 3.00119447 6.125 6.6875 C11.34623389 14.95281176 18.9033681 16.64314537 28 19 C25.93470598 22.71135101 23.98889899 26.1829441 21.25 29.4375 C18.35918962 33.36263703 18.60792725 36.2167125 19 41 C19 44.50935186 18.62457273 47.56484998 18 51 C9.6065338 49.28107664 9.6065338 49.28107664 6.4375 47.8125 C0.5946875 45.86489583 -5.4906873 48.33372327 -11.01953125 50.37890625 C-13 51 -13 51 -16 51 C-15.96777344 49.83984375 -15.93554688 48.6796875 -15.90234375 47.484375 C-15.88562901 37.09003361 -17.09091058 31.02269014 -24.06640625 23.1875 C-26 21 -26 21 -26 19 C-24.87722656 18.71769531 -23.75445312 18.43539063 -22.59765625 18.14453125 C-12.27455563 15.22535516 -6.75505082 12.02381461 -1.37109375 2.6328125 C-0.91863281 1.76398437 -0.46617188 0.89515625 0 0 Z " transform="translate(35,8)" style="fill: rgb(248, 182, 254); --darkreader-inline-fill: var(--darkreader-text-f8b6fe, #f59afe);" data-darkreader-inline-fill=""></path><path d="M0 0 C0.33 0 0.66 0 1 0 C2.03099006 12.52461994 2.03099006 12.52461994 -1.5 17.6875 C-4.87324862 21.52073706 -8.03337136 22.31494777 -13 23 C-12.175 23.94875 -11.35 24.8975 -10.5 25.875 C-7.20920745 30.38941118 -7.51238547 34.61456845 -8 40 C-6.88625 39.505 -6.88625 39.505 -5.75 39 C-3 38 -3 38 1 38 C1 40.64 1 43.28 1 46 C-1.26882087 46.83919398 -3.53977027 47.67151724 -5.8125 48.5 C-6.45509766 48.73847656 -7.09769531 48.97695313 -7.75976562 49.22265625 C-10.64933739 50.27068746 -12.90076061 51 -16 51 C-15.96777344 49.83984375 -15.93554688 48.6796875 -15.90234375 47.484375 C-15.88562901 37.09003361 -17.09091058 31.02269014 -24.06640625 23.1875 C-26 21 -26 21 -26 19 C-24.87722656 18.71769531 -23.75445312 18.43539063 -22.59765625 18.14453125 C-12.26094613 15.22118042 -6.81498996 12.05315729 -1.46875 2.6328125 C-0.9840625 1.76398437 -0.499375 0.89515625 0 0 Z " transform="translate(35,8)" style="fill: rgb(254, 115, 249); --darkreader-inline-fill: var(--darkreader-text-fe73f9, #fe6af9);" data-darkreader-inline-fill=""></path><path d="M0 0 C3 1 3 1 5.25 3.9375 C8.06008946 7.52100857 10.60545871 8.13832524 15 9 C14.360625 9.94875 13.72125 10.8975 13.0625 11.875 C10.44562504 16.3782442 10.20600549 20.88076363 10 26 C9.3709375 25.83242188 8.741875 25.66484375 8.09375 25.4921875 C1.95979429 24.03260165 -2.01397476 24.00465825 -8 26 C-8.02578125 25.33613281 -8.0515625 24.67226563 -8.078125 23.98828125 C-8.43924656 18.36627513 -8.93810315 15.19292578 -13 11 C-13 10.34 -13 9.68 -13 9 C-12.39671875 8.76925781 -11.7934375 8.53851563 -11.171875 8.30078125 C-6.21230418 6.27695638 -2.98217526 4.66775259 0 0 Z " transform="translate(35,22)" style="fill: rgb(254, 222, 248); --darkreader-inline-fill: var(--darkreader-text-fedef8, #fdb6f0);" data-darkreader-inline-fill=""></path><path d="M0 0 C0 2.97 0 5.94 0 9 C0.7425 8.67 1.485 8.34 2.25 8 C5 7 5 7 9 7 C9 9.64 9 12.28 9 15 C6.73117913 15.83919398 4.46022973 16.67151724 2.1875 17.5 C1.54490234 17.73847656 0.90230469 17.97695313 0.24023438 18.22265625 C-2.64933739 19.27068746 -4.90076061 20 -8 20 C-8 14.06 -8 8.12 -8 2 C-2 0 -2 0 0 0 Z " transform="translate(27,39)" style="fill: rgb(230, 86, 212); --darkreader-inline-fill: var(--darkreader-text-e656d4, #e75cd6);" data-darkreader-inline-fill=""></path><path d="M0 0 C2.84113148 2.63266271 4.5075471 4.91805722 6.1875 8.375 C10.62913247 15.42798595 19.42714916 16.84958022 27 19 C20.56885966 22.22233979 15.70433984 24.12008091 8.375 22.375 C5.05001263 20.45000731 3.34702313 18.04478677 1 15 C0.34 14.34 -0.32 13.68 -1 13 C-0.9765625 9.9609375 -0.9765625 9.9609375 -0.625 6.375 C-0.51414063 5.18648437 -0.40328125 3.99796875 -0.2890625 2.7734375 C-0.19367187 1.85820312 -0.09828125 0.94296875 0 0 Z " transform="translate(36,8)" style="fill: rgb(254, 175, 254); --darkreader-inline-fill: var(--darkreader-text-feaffe, #fe95fe);" data-darkreader-inline-fill=""></path><path d="M0 0 C-1.46818668 3.10742423 -3.20025 5.90471739 -5.125 8.75 C-5.93324219 9.94882812 -5.93324219 9.94882812 -6.7578125 11.171875 C-7.16773438 11.77515625 -7.57765625 12.3784375 -8 13 C-10.64 12.67 -13.28 12.34 -16 12 C-16 7.76929781 -14.73915167 6.20681172 -12 3 C-8.09041477 1.09460648 -4.3514578 0 0 0 Z " transform="translate(62,28)" style="fill: rgb(254, 118, 250); --darkreader-inline-fill: var(--darkreader-text-fe76fa, #fe6cfa);" data-darkreader-inline-fill=""></path><path d="M0 0 C9.85191522 2.00864291 9.85191522 2.00864291 13.125 6.5625 C15 10 15 10 15 12 C13.22868439 11.69024532 11.45796222 11.37709575 9.6875 11.0625 C8.70136719 10.88847656 7.71523438 10.71445312 6.69921875 10.53515625 C4 10 4 10 1 9 C0.67 6.03 0.34 3.06 0 0 Z " transform="translate(35,45)" style="fill: rgb(254, 117, 249); --darkreader-inline-fill: var(--darkreader-text-fe75f9, #fe6cf9);" data-darkreader-inline-fill=""></path><path d="M0 0 C0.66 0.33 1.32 0.66 2 1 C1.01 2.485 1.01 2.485 0 4 C-0.45601261 6.50896686 -0.45601261 6.50896686 -0.625 9.1875 C-0.69976562 10.08855469 -0.77453125 10.98960938 -0.8515625 11.91796875 C-0.90054688 12.60503906 -0.94953125 13.29210938 -1 14 C-1.66386719 13.84402344 -2.32773437 13.68804687 -3.01171875 13.52734375 C-3.89472656 13.33269531 -4.77773438 13.13804688 -5.6875 12.9375 C-6.55761719 12.74027344 -7.42773438 12.54304688 -8.32421875 12.33984375 C-11.16001276 11.97967721 -13.24789982 12.29090031 -16 13 C-11.3126338 7.82773385 -5.68271819 4.01074507 0 0 Z " transform="translate(46,34)" style="fill: rgb(254, 216, 249); --darkreader-inline-fill: var(--darkreader-text-fed8f9, #fdb2f3);" data-darkreader-inline-fill=""></path><path d="M0 0 C3 1 3 1 4.1875 3.0625 C4.455625 3.701875 4.72375 4.34125 5 5 C4.25234375 5.47050781 3.5046875 5.94101562 2.734375 6.42578125 C1.74953125 7.04839844 0.7646875 7.67101562 -0.25 8.3125 C-1.22453125 8.92738281 -2.1990625 9.54226562 -3.203125 10.17578125 C-5.54733713 11.70475759 -7.78784032 13.28820977 -10 15 C-13 11.25 -13 11.25 -13 9 C-12.39671875 8.76925781 -11.7934375 8.53851563 -11.171875 8.30078125 C-6.21230418 6.27695638 -2.98217526 4.66775259 0 0 Z " transform="translate(35,22)" style="fill: rgb(254, 217, 249); --darkreader-inline-fill: var(--darkreader-text-fed9f9, #fdb3f3);" data-darkreader-inline-fill=""></path><path d="M0 0 C-3.89953388 4.12581244 -8.09985419 7.47967098 -12.6875 10.8125 C-13.36361328 11.31458984 -14.03972656 11.81667969 -14.73632812 12.33398438 C-19.74904337 16 -19.74904337 16 -22 16 C-22 12 -22 12 -20.51879883 10.44433594 C-19.83841553 9.96254883 -19.15803223 9.48076172 -18.45703125 8.984375 C-17.71259766 8.45585938 -16.96816406 7.92734375 -16.20117188 7.3828125 C-15.41291016 6.84398437 -14.62464844 6.30515625 -13.8125 5.75 C-13.04357422 5.19570313 -12.27464844 4.64140625 -11.48242188 4.0703125 C-7.40810225 1.23052921 -5.10342232 -0.35422641 0 0 Z " transform="translate(50,31)" style="fill: rgb(254, 251, 254); --darkreader-inline-fill: var(--darkreader-text-fefbfe, #f4d3f4);" data-darkreader-inline-fill=""></path><path d="M0 0 C2.97 0 5.94 0 9 0 C9 2.64 9 5.28 9 8 C6.36 8.33 3.72 8.66 1 9 C-0.06546953 5.8035914 -0.07427838 3.34252724 0 0 Z " transform="translate(12,13)" style="fill: rgb(254, 214, 53); --darkreader-inline-fill: var(--darkreader-text-fed635, #fed83f);" data-darkreader-inline-fill=""></path><path d="M0 0 C-1.52763464 4.08596252 -4.11084191 5.79826179 -7.625 8.25 C-8.62789062 8.95640625 -9.63078125 9.6628125 -10.6640625 10.390625 C-11.43492188 10.92171875 -12.20578125 11.4528125 -13 12 C-13.66 11.67 -14.32 11.34 -15 11 C-13.50814889 7.19030112 -11.39723489 5.54171208 -8.0625 3.25 C-7.18722656 2.63640625 -6.31195313 2.0228125 -5.41015625 1.390625 C-3 0 -3 0 0 0 Z " transform="translate(41,27)" style="fill: rgb(254, 251, 254); --darkreader-inline-fill: var(--darkreader-text-fefbfe, #f4d3f4);" data-darkreader-inline-fill=""></path><path d="M0 0 C1.32 0 2.64 0 4 0 C4 2.31 4 4.62 4 7 C-0.455 6.01 -0.455 6.01 -5 5 C-1 4 -1 4 1 5 C0.67 3.35 0.34 1.7 0 0 Z " transform="translate(49,52)" style="fill: rgb(252, 166, 253); --darkreader-inline-fill: var(--darkreader-text-fca6fd, #fb8ffc);" data-darkreader-inline-fill=""></path><path d="M0 0 C0.99 0.33 1.98 0.66 3 1 C3 2.65 3 4.3 3 6 C1.68 6 0.36 6 -1 6 C-1.042721 4.33388095 -1.04063832 2.66617115 -1 1 C-0.67 0.67 -0.34 0.34 0 0 Z " transform="translate(56,53)" style="fill: rgb(210, 226, 255); --darkreader-inline-fill: var(--darkreader-text-d2e2ff, #acd6ff);" data-darkreader-inline-fill=""></path><path d="M0 0 C1.65 0 3.3 0 5 0 C5 1.32 5 2.64 5 4 C3.35 4 1.7 4 0 4 C0 2.68 0 1.36 0 0 Z " transform="translate(60,49)" style="fill: rgb(210, 227, 255); --darkreader-inline-fill: var(--darkreader-text-d2e3ff, #acd6ff);" data-darkreader-inline-fill=""></path><path d="M0 0 C1.32 0 2.64 0 4 0 C4 1.65 4 3.3 4 5 C2.68 5 1.36 5 0 5 C0 3.35 0 1.7 0 0 Z " transform="translate(55,43)" style="fill: rgb(210, 226, 255); --darkreader-inline-fill: var(--darkreader-text-d2e2ff, #acd6ff);" data-darkreader-inline-fill=""></path></svg>