<svg version="1.1" xmlns="http://www.w3.org/2000/svg"  viewBox="0 0 72 72" width="72" height="72"><path d="M0 0 C23.76 0 47.52 0 72 0 C72 23.76 72 47.52 72 72 C48.24 72 24.48 72 0 72 C0 48.24 0 24.48 0 0 Z " transform="translate(0,0)" style="fill: rgb(0, 0, 0); --darkreader-inline-fill: var(--darkreader-text-000000, #e8e6e3);" data-darkreader-inline-fill=""></path><path d="M0 0 C3.0625 1.8125 3.0625 1.8125 5 5 C6.24448713 10.95439227 5.46558314 15.9550469 2.625 21.3125 C-0.86676303 26.50049863 -5.2324504 29.64818366 -11 32 C-14.625 32.375 -14.625 32.375 -17 32 C-17.33257813 32.77923828 -17.33257813 32.77923828 -17.671875 33.57421875 C-20.61674802 38.9529427 -24.85994792 43.59030141 -28.69482422 48.35449219 C-29.77495993 49.71627945 -30.81666301 51.1084517 -31.84765625 52.5078125 C-33.3125 54.4375 -33.3125 54.4375 -36 57 C-39.375 56.9375 -39.375 56.9375 -42 56 C-42.41435191 53.04489684 -42.48988691 50.83892274 -40.95556641 48.21142578 C-39.46715243 46.26981381 -37.91590404 44.41026808 -36.3125 42.5625 C-27.7357823 33.49816527 -27.7357823 33.49816527 -24.4375 22.0625 C-24.03765714 14.04565058 -21.8825695 9.46114767 -15.9375 4.0625 C-11.02833477 -0.0740135 -6.29188514 -0.91458225 0 0 Z " transform="translate(48,6)" style="fill: rgb(179, 224, 204); --darkreader-inline-fill: var(--darkreader-text-b3e0cc, #a6dbc3);" data-darkreader-inline-fill=""></path><path d="M0 0 C6.78427996 3.03468867 10.99782902 9.47661724 14.07421875 16.0703125 C16.6991276 24.37698608 16.0714335 32.69874605 12.4375 40.5625 C9.7193484 45.29693307 6.85547388 49.33528223 2 52 C-1.75 53 -1.75 53 -5 53 C-5.99 52.34 -6.98 51.68 -8 51 C-8.47446226 47.39408679 -7.83832664 45.10217621 -6 42 C-9.66628882 37.97890904 -13.57948778 35.19310625 -18.20703125 32.33203125 C-18.79871094 31.89246094 -19.39039062 31.45289062 -20 31 C-20 30.34 -20 29.68 -20 29 C-18.845 28.773125 -17.69 28.54625 -16.5 28.3125 C-9.83697568 26.59072734 -4.75037454 23.78051934 -1 17.875 C1.58314892 12.71737044 1.6771621 7.6591404 1 2 C0.67 1.34 0.34 0.68 0 0 Z " transform="translate(51,9)" style="fill: rgb(35, 165, 90); --darkreader-inline-fill: var(--darkreader-text-23a55a, #61de96);" data-darkreader-inline-fill=""></path></svg>