<svg version="1.1" xmlns="http://www.w3.org/2000/svg"  viewBox="0 0 72 72" width="72" height="72"><path d="M0 0 C23.76 0 47.52 0 72 0 C72 23.76 72 47.52 72 72 C48.24 72 24.48 72 0 72 C0 48.24 0 24.48 0 0 Z " transform="translate(0,0)" style="fill: rgb(0, 0, 0); --darkreader-inline-fill: var(--darkreader-text-000000, #e8e6e3);" data-darkreader-inline-fill=""></path><path d="M0 0 C5.09985052 0.39229619 8.51676277 2.27088986 12.82421875 4.8046875 C15.11417578 6.15279514 15.11417578 6.15279514 18.3125 7.0625 C21.49716627 8.17343009 22.94609928 9.3375361 25 12 C25.36442233 13.66014616 25.69972883 15.32706064 26 17 C26.53625 17.515625 27.0725 18.03125 27.625 18.5625 C29 20 29 20 29 21.875 C27.58597216 24.87980917 25.41903456 26.76704502 23 29 C20.04590299 27.62845496 17.55991624 26.01136276 15 24 C14.278125 24.928125 13.55625 25.85625 12.8125 26.8125 C11.22270769 28.85651869 9.97249087 30.01596093 7.7109375 31.328125 C4.2621965 33.45501426 1.64471452 36.06327488 -1.1875 38.9375 C-1.72052734 39.46279297 -2.25355469 39.98808594 -2.80273438 40.52929688 C-5.44705404 43.1869213 -7.51616133 45.55269804 -9 49 C-11.1875 51.8125 -11.1875 51.8125 -14 54 C-17.8125 53.8125 -17.8125 53.8125 -21 53 C-21.8125 49.8125 -21.8125 49.8125 -22 46 C-20.38214437 43.88005124 -19.04686658 42.64736849 -17 41 C-15.38992112 39.56912511 -13.78635242 38.13090843 -12.1875 36.6875 C-11.31996094 35.90890625 -10.45242187 35.1303125 -9.55859375 34.328125 C-3.33408109 28.66429363 2.15730229 22.89717553 7 16 C6.4946875 15.01257812 5.989375 14.02515625 5.46875 13.0078125 C4.81228987 11.71364824 4.15605133 10.41937155 3.5 9.125 C3.16613281 8.47402344 2.83226563 7.82304687 2.48828125 7.15234375 C0 2.2265625 0 2.2265625 0 0 Z " transform="translate(34,9)" style="fill: rgb(87, 100, 241); --darkreader-inline-fill: var(--darkreader-text-5764f1, #5a96f1);" data-darkreader-inline-fill=""></path><path d="M0 0 C0.7425 0.2475 1.485 0.495 2.25 0.75 C2.31058594 1.30171875 2.37117188 1.8534375 2.43359375 2.421875 C3.61123477 5.78012402 5.76490331 7.54914749 8.3125 10 C9.69115234 11.33804687 9.69115234 11.33804687 11.09765625 12.703125 C12.16306641 13.71632813 12.16306641 13.71632813 13.25 14.75 C12.20125002 17.37187494 11.60068687 18.54371361 9.125 20 C8.50625 20.2475 7.8875 20.495 7.25 20.75 C6.50234375 19.96753906 5.7546875 19.18507813 4.984375 18.37890625 C3.98998846 17.3563767 2.99517428 16.3342629 2 15.3125 C1.50886719 14.79623047 1.01773437 14.27996094 0.51171875 13.74804688 C-3.01951001 10.10870137 -3.01951001 10.10870137 -7.75 8.75 C-7.404156 5.63740396 -6.87620033 3.92127187 -5 1.375 C-2.75 -0.25 -2.75 -0.25 0 0 Z " transform="translate(16.75,15.25)" style="fill: rgb(87, 100, 241); --darkreader-inline-fill: var(--darkreader-text-5764f1, #5a96f1);" data-darkreader-inline-fill=""></path><path d="M0 0 C5.58181966 0.6862893 9.89341461 4.7231707 13.4375 8.8125 C13.953125 9.534375 14.46875 10.25625 15 11 C13.7251791 13.84383123 12.54862922 16.13754018 10 18 C6.52067626 17.60154984 5.0904007 16.368579 2.9375 13.6875 C2.42960937 13.05585937 1.92171875 12.42421875 1.3984375 11.7734375 C0.93695313 11.18820313 0.47546875 10.60296875 0 10 C-0.9590625 8.9171875 -0.9590625 8.9171875 -1.9375 7.8125 C-3 6 -3 6 -2.8125 3.875 C-2 2 -2 2 0 0 Z " transform="translate(42,45)" style="fill: rgb(87, 100, 241); --darkreader-inline-fill: var(--darkreader-text-5764f1, #5a96f1);" data-darkreader-inline-fill=""></path></svg>