<svg version="1.1" xmlns="http://www.w3.org/2000/svg"  viewBox="0 0 72 72" width="72" height="72"><path d="M0 0 C23.76 0 47.52 0 72 0 C72 23.76 72 47.52 72 72 C48.24 72 24.48 72 0 72 C0 48.24 0 24.48 0 0 Z " transform="translate(0,0)" style="fill: rgb(0, 0, 0); --darkreader-inline-fill: var(--darkreader-text-000000, #e8e6e3);" data-darkreader-inline-fill=""></path><path d="M0 0 C0.83563477 0.00684814 1.67126953 0.01369629 2.53222656 0.02075195 C11.47998121 0.25342146 17.69247794 2.74939667 24.6953125 8.2109375 C27.95673679 10.28398856 31.59873668 11.30103723 35.26953125 12.4453125 C37.625 13.4375 37.625 13.4375 39.625 16.4375 C35.335 16.4375 31.045 16.4375 26.625 16.4375 C26.625 17.7575 26.625 19.0775 26.625 20.4375 C27.615 20.7675 28.605 21.0975 29.625 21.4375 C30.17045455 31.8415404 30.17045455 31.8415404 26.625 36.4375 C26.150625 37.324375 25.67625 38.21125 25.1875 39.125 C23.40044188 41.76984602 22.57859597 42.33171566 19.625 43.4375 C15.24404477 43.81485048 10.85818847 43.766759 6.46313477 43.75317383 C4.32971548 43.75002541 2.19769999 43.773447 0.06445312 43.79882812 C-1.30728994 43.80110269 -2.67903669 43.80180388 -4.05078125 43.80078125 C-5.9057019 43.80525269 -5.9057019 43.80525269 -7.7980957 43.80981445 C-11.94021256 43.3786679 -14.65152937 42.24559893 -18.375 40.4375 C-18.33375 41.38625 -18.2925 42.335 -18.25 43.3125 C-18.375 46.4375 -18.375 46.4375 -20.375 48.4375 C-24.93055556 47.88194444 -24.93055556 47.88194444 -26.375 46.4375 C-26.66109016 43.14065145 -26.82390147 39.84368875 -26.99609375 36.5390625 C-27.15899964 33.27431654 -27.15899964 33.27431654 -29.375 30.4375 C-30.63408889 22.47210609 -28.94145553 16.01042841 -24.375 9.4375 C-17.84176827 1.92111204 -9.62180524 -0.12119364 0 0 Z " transform="translate(32.375,11.5625)" style="fill: rgb(155, 183, 252); --darkreader-inline-fill: var(--darkreader-text-9bb7fc, #87befb);" data-darkreader-inline-fill=""></path><path d="M0 0 C3.125 2.125 3.125 2.125 5 4 C5 4.66 5 5.32 5 6 C4.21496094 6.10957031 3.42992187 6.21914063 2.62109375 6.33203125 C-3.38199715 7.2380192 -8.56153426 8.28076713 -14 11 C-13.67 11.99 -13.34 12.98 -13 14 C-13.96866644 16.59871843 -14.99406741 19.00873912 -16.1875 21.5 C-16.64479492 22.51513672 -16.64479492 22.51513672 -17.11132812 23.55078125 C-18.86183775 27.27199038 -20.33316931 29.99576956 -24 32 C-24.66 32 -25.32 32 -26 32 C-25.97679687 32.69867188 -25.95359375 33.39734375 -25.9296875 34.1171875 C-25.90261719 35.48230469 -25.90261719 35.48230469 -25.875 36.875 C-25.85179687 37.77992187 -25.82859375 38.68484375 -25.8046875 39.6171875 C-26 42 -26 42 -28 44 C-32.55555556 43.44444444 -32.55555556 43.44444444 -34 42 C-34.28609016 38.70315145 -34.44890147 35.40618875 -34.62109375 32.1015625 C-34.78399964 28.83681654 -34.78399964 28.83681654 -37 26 C-38.25908889 18.03460609 -36.56645553 11.57292841 -32 5 C-23.02964104 -5.32026735 -11.78566294 -5.85301504 0 0 Z " transform="translate(40,16)" style="fill: rgb(253, 252, 253); --darkreader-inline-fill: var(--darkreader-text-fdfcfd, #e6e4e1);" data-darkreader-inline-fill=""></path><path d="M0 0 C0.98484375 -0.00128906 1.9696875 -0.00257812 2.984375 -0.00390625 C4.02078125 -0.00003906 5.0571875 0.00382812 6.125 0.0078125 C7.67960937 0.00201172 7.67960937 0.00201172 9.265625 -0.00390625 C10.25046875 -0.00261719 11.2353125 -0.00132813 12.25 0 C13.16007812 0.00112793 14.07015625 0.00225586 15.0078125 0.00341797 C17.125 0.1328125 17.125 0.1328125 18.125 1.1328125 C18.3984375 3.27734375 18.3984375 3.27734375 18.5 5.9453125 C18.57347656 7.25435547 18.57347656 7.25435547 18.6484375 8.58984375 C18.125 11.1328125 18.125 11.1328125 16.0390625 13.421875 C10.7478545 16.52850919 5.05959939 15.92598091 -0.875 15.1328125 C-4.25 13.1953125 -4.25 13.1953125 -5.875 10.1328125 C-6.29044761 7.07407946 -6.3171045 4.18964934 -5.875 1.1328125 C-4.22105883 -0.52112867 -2.27184587 0.00281567 0 0 Z " transform="translate(43.875,31.8671875)" style="fill: rgb(198, 215, 247); --darkreader-inline-fill: var(--darkreader-text-c6d7f7, #aacef3);" data-darkreader-inline-fill=""></path><path d="M0 0 C10.82220755 -0.6694149 18.5082123 1.09581868 27.0703125 7.7734375 C30.33173679 9.84648856 33.97373668 10.86353723 37.64453125 12.0078125 C40 13 40 13 42 16 C31.8605888 16.07167069 21.75645591 15.85536416 11.625 15.5 C10.19531976 15.45160782 8.76563226 15.40342976 7.3359375 15.35546875 C3.89053817 15.23943423 0.44524471 15.1205483 -3 15 C0.31853749 11.45828601 3.46705078 10.12830298 8.390625 9.87890625 C10.59770066 9.87543601 12.79483514 9.91179341 15 10 C10.79489908 4.9538789 6.13340841 3.13180603 0 1 C0 0.67 0 0.34 0 0 Z " transform="translate(30,12)" style="fill: rgb(123, 138, 178); --darkreader-inline-fill: var(--darkreader-text-7b8ab2, #829bb6);" data-darkreader-inline-fill=""></path><path d="M0 0 C2 2 2 2 2.3125 4.875 C1.9736202 8.26379801 1.27183419 9.53884629 -1 12 C-7.875 11.125 -7.875 11.125 -9 10 C-9.46153846 2.84615385 -9.46153846 2.84615385 -7.875 -0.0625 C-5.00457974 -1.49771013 -3.01840612 -0.83487829 0 0 Z " transform="translate(14,30)" style="fill: rgb(138, 141, 170); --darkreader-inline-fill: var(--darkreader-text-8a8daa, #a8a195);" data-darkreader-inline-fill=""></path><path d="M0 0 C0.763125 0.309375 1.52625 0.61875 2.3125 0.9375 C4.18789677 1.67893593 6.08684652 2.36228217 8 3 C8.05395478 4.62463842 8.09277195 6.24978541 8.125 7.875 C8.14820313 8.77992187 8.17140625 9.68484375 8.1953125 10.6171875 C8 13 8 13 6 15 C1.44444444 14.44444444 1.44444444 14.44444444 0 13 C-0.07258946 10.81360547 -0.08373783 8.62499611 -0.0625 6.4375 C-0.05347656 5.23996094 -0.04445313 4.04242188 -0.03515625 2.80859375 C-0.02355469 1.88175781 -0.01195312 0.95492187 0 0 Z " transform="translate(6,45)" style="fill: rgb(254, 144, 64); --darkreader-inline-fill: var(--darkreader-text-fe9040, #fe9447);" data-darkreader-inline-fill=""></path><path d="M0 0 C0.99 0 1.98 0 3 0 C-1.23201175 13.85022026 -1.23201175 13.85022026 -5.8125 19.0625 C-9.05922088 20.4539518 -11.61996261 19.71500791 -15 19 C-15 18.67 -15 18.34 -15 18 C-13.7625 17.83757813 -12.525 17.67515625 -11.25 17.5078125 C-8.64707435 16.85708109 -7.36322743 16.45942341 -5.68359375 14.33496094 C-4.64309117 12.21417186 -3.79518605 10.09921605 -3 7.875 C-2.70222656 7.12089844 -2.40445312 6.36679687 -2.09765625 5.58984375 C-1.37067632 3.73721749 -0.68149004 1.86983828 0 0 Z " transform="translate(24,28)" style="fill: rgb(209, 216, 233); --darkreader-inline-fill: var(--darkreader-text-d1d8e9, #bccddf);" data-darkreader-inline-fill=""></path><path d="M0 0 C7.34403216 0.27713329 12.92858469 2.89106236 19 7 C19.99 8.485 19.99 8.485 21 10 C14.61319452 9.9710349 11.1655363 8.89648284 6.57421875 4.43359375 C4.58548323 2.62251202 2.558122 1.77518849 0 1 C0 0.67 0 0.34 0 0 Z " transform="translate(38,12)" style="fill: rgb(253, 249, 246); --darkreader-inline-fill: var(--darkreader-text-fdf9f6, #f4dfcf);" data-darkreader-inline-fill=""></path><path d="M0 0 C6.34554317 -0.45325308 10.71025881 0.33697125 16 4 C18.5 6.75 18.5 6.75 20 9 C15.82329804 9.33765956 13.8977082 8.61005709 10.5625 6.125 C7.1307961 3.69181864 4.12205997 2.05693845 0 1 C0 0.67 0 0.34 0 0 Z " transform="translate(30,12)" style="fill: rgb(254, 151, 74); --darkreader-inline-fill: var(--darkreader-text-fe974a, #fe994e);" data-darkreader-inline-fill=""></path><path d="M0 0 C2.5 0.125 2.5 0.125 3.5 1.125 C3.6875 3.5625 3.6875 3.5625 3.5 6.125 C2.84 6.785 2.18 7.445 1.5 8.125 C-1.125 7.75 -1.125 7.75 -3.5 7.125 C-3.54254356 5.12545254 -3.54080783 3.12458364 -3.5 1.125 C-2.5 0.125 -2.5 0.125 0 0 Z " transform="translate(9.5,31.875)" style="fill: rgb(250, 143, 65); --darkreader-inline-fill: var(--darkreader-text-fa8f41, #fa9348);" data-darkreader-inline-fill=""></path><path d="M0 0 C5.75 0.75 5.75 0.75 8 3 C8.125 6.125 8.125 6.125 8 9 C7.01 9 6.02 9 5 9 C4.731875 8.030625 4.46375 7.06125 4.1875 6.0625 C3.795625 5.051875 3.40375 4.04125 3 3 C2.01 2.67 1.02 2.34 0 2 C0 1.34 0 0.68 0 0 Z " transform="translate(8,29)" style="fill: rgb(130, 143, 180); --darkreader-inline-fill: var(--darkreader-text-828fb4, #889eb7);" data-darkreader-inline-fill=""></path><path d="M0 0 C2.0625 0.4375 2.0625 0.4375 4 1 C4.33 2.32 4.66 3.64 5 5 C3.35 5.33 1.7 5.66 0 6 C-0.38218767 4.34385343 -0.71395102 2.67542976 -1 1 C-0.67 0.67 -0.34 0.34 0 0 Z " transform="translate(29,35)" style="fill: rgb(18, 21, 29); --darkreader-inline-fill: var(--darkreader-text-12151d, #d9d6d1);" data-darkreader-inline-fill=""></path></svg>