<svg version="1.1" xmlns="http://www.w3.org/2000/svg"  viewBox="0 0 72 72" width="72" height="72"><path d="M0 0 C23.76 0 47.52 0 72 0 C72 23.76 72 47.52 72 72 C48.24 72 24.48 72 0 72 C0 48.24 0 24.48 0 0 Z " transform="translate(0,0)" style="fill: rgb(0, 0, 0); --darkreader-inline-fill: var(--darkreader-text-000000, #e8e6e3);" data-darkreader-inline-fill=""></path><path d="M0 0 C10.56 0 21.12 0 32 0 C34.124375 3.691875 36.24875 7.38375 38.4375 11.1875 C39.4418811 12.92036255 39.4418811 12.92036255 40.46655273 14.68823242 C41.25461304 16.0703894 41.25461304 16.0703894 42.05859375 17.48046875 C42.59798584 18.41785889 43.13737793 19.35524902 43.69311523 20.32104492 C44.99743342 22.99473882 45.76039749 25.03777857 46 28 C45.2590332 30.01708984 45.2590332 30.01708984 44.05078125 31.9609375 C43.61443359 32.68023437 43.17808594 33.39953125 42.72851562 34.140625 C42.26123047 34.87796875 41.79394531 35.6153125 41.3125 36.375 C40.41246134 37.84096225 39.51271844 39.30710614 38.61328125 40.7734375 C38.20891846 41.41716309 37.80455566 42.06088867 37.38793945 42.72412109 C35.52619043 45.77693102 33.77405284 48.89540753 32 52 C21.44 52 10.88 52 0 52 C-2.124375 48.2875 -4.24875 44.575 -6.4375 40.75 C-7.1070874 39.5856543 -7.7766748 38.42130859 -8.46655273 37.22167969 C-9.25461304 35.83577637 -9.25461304 35.83577637 -10.05859375 34.421875 C-10.59798584 33.47924805 -11.13737793 32.53662109 -11.69311523 31.56542969 C-13.84944124 27.33253716 -13.84944124 27.33253716 -14 25 C-12.82836914 22.25097656 -12.82836914 22.25097656 -11.03515625 19.140625 C-10.46418213 18.13547852 -9.89320801 17.13033203 -9.30493164 16.09472656 C-8.19492798 14.19158691 -8.19492798 14.19158691 -7.0625 12.25 C-4.731875 8.2075 -2.40125 4.165 0 0 Z " transform="translate(20,10)" style="fill: rgb(61, 112, 220); --darkreader-inline-fill: var(--darkreader-text-3d70dc, #4c93df);" data-darkreader-inline-fill=""></path><path d="M0 0 C2.97 0.495 2.97 0.495 6 1 C1.545 15.355 1.545 15.355 -3 30 C-4.98 29.67 -6.96 29.34 -9 29 C-6.03 19.43 -3.06 9.86 0 0 Z " transform="translate(38,21)" style="fill: rgb(0, 0, 0); --darkreader-inline-fill: var(--darkreader-text-000000, #e8e6e3);" data-darkreader-inline-fill=""></path><path d="M0 0 C3.80635497 3.20760251 7.54563567 6.40746109 11 10 C9.52651292 13.42527887 7.59092154 15.64955058 4.9375 18.25 C4.22464844 18.95640625 3.51179688 19.6628125 2.77734375 20.390625 C1 22 1 22 0 22 C-0.25 19.25 -0.25 19.25 0 16 C2 13.625 2 13.625 4 12 C2.84826645 9.53199953 1.95216435 7.95216435 0 6 C-0.125 2.875 -0.125 2.875 0 0 Z " transform="translate(47,25)" style="fill: rgb(0, 0, 0); --darkreader-inline-fill: var(--darkreader-text-000000, #e8e6e3);" data-darkreader-inline-fill=""></path><path d="M0 0 C0.25 2.75 0.25 2.75 0 6 C-2 8.375 -2 8.375 -4 10 C-2.84826645 12.46800047 -1.95216435 14.04783565 0 16 C0.125 19.125 0.125 19.125 0 22 C-3.80635497 18.79239749 -7.54563567 15.59253891 -11 12 C-9.52651292 8.57472113 -7.59092154 6.35044942 -4.9375 3.75 C-4.22464844 3.04359375 -3.51179688 2.3371875 -2.77734375 1.609375 C-1 0 -1 0 0 0 Z " transform="translate(25,25)" style="fill: rgb(0, 0, 0); --darkreader-inline-fill: var(--darkreader-text-000000, #e8e6e3);" data-darkreader-inline-fill=""></path></svg>