<svg version="1.1" xmlns="http://www.w3.org/2000/svg"  viewBox="0 0 72 72" width="72" height="72"><path d="M0 0 C23.76 0 47.52 0 72 0 C72 23.76 72 47.52 72 72 C48.24 72 24.48 72 0 72 C0 48.24 0 24.48 0 0 Z " transform="translate(0,0)" style="fill: rgb(0, 0, 0); --darkreader-inline-fill: var(--darkreader-text-000000, #e8e6e3);" data-darkreader-inline-fill=""></path><path d="M0 0 C8.04634767 4.99509724 14.01626979 13.04880937 17 22 C18.01850189 32.40419016 17.14334804 40.20445766 11 49 C7.78663519 52.82962656 5.10837359 54.66185212 0.3125 56.125 C-3 56 -3 56 -5.4375 54.0625 C-5.953125 53.381875 -6.46875 52.70125 -7 52 C-6.46375 51.278125 -5.9275 50.55625 -5.375 49.8125 C-3.68961791 47.13050974 -3.68961791 47.13050974 -4.609375 44.56640625 C-6.28119325 41.48105627 -7.99877724 40.11360506 -10.875 38.125 C-11.73867188 37.50882813 -12.60234375 36.89265625 -13.4921875 36.2578125 C-15.83509039 34.79417851 -15.83509039 34.79417851 -17.99511719 35.23925781 C-21.45083782 36.55051274 -23.23984366 39.74292528 -25.375 42.625 C-26.35500719 43.90009446 -27.33547147 45.17483775 -28.31640625 46.44921875 C-29.84385592 48.45991141 -31.35060211 50.48012391 -32.83984375 52.51953125 C-34.3125 54.4375 -34.3125 54.4375 -37 57 C-40.375 56.9375 -40.375 56.9375 -43 56 C-43.49162771 52.05498739 -43.14575781 49.76814214 -40.8046875 46.6328125 C-39.84147538 45.45251974 -38.86421092 44.28358981 -37.875 43.125 C-37.37307129 42.50641113 -36.87114258 41.88782227 -36.35400391 41.25048828 C-34.27775402 38.69360635 -32.16761807 36.18695861 -29.96875 33.734375 C-25.84497217 28.92330086 -25.5059692 25.15516715 -25.24609375 18.89453125 C-24.69134094 12.36958157 -21.68518402 8.373816 -16.9375 4.0625 C-11.85988082 -0.21595455 -6.50650389 -1.39885232 0 0 Z " transform="translate(49,6)" style="fill: rgb(254, 233, 188); --darkreader-inline-fill: var(--darkreader-text-fee9bc, #fedf9e);" data-darkreader-inline-fill=""></path><path d="M0 0 C-0.44637458 10.46630933 -1.1214634 20.67716783 -3 31 C-3.99 31 -4.98 31 -6 31 C-6.33257813 31.77923828 -6.33257813 31.77923828 -6.671875 32.57421875 C-9.61674802 37.9529427 -13.85994792 42.59030141 -17.69482422 47.35449219 C-18.77495993 48.71627945 -19.81666301 50.1084517 -20.84765625 51.5078125 C-22.3125 53.4375 -22.3125 53.4375 -25 56 C-28.375 55.9375 -28.375 55.9375 -31 55 C-31.49162771 51.05498739 -31.14575781 48.76814214 -28.8046875 45.6328125 C-27.84147538 44.45251974 -26.86421092 43.28358981 -25.875 42.125 C-25.37307129 41.50641113 -24.87114258 40.88782227 -24.35400391 40.25048828 C-22.27775402 37.69360635 -20.16761807 35.18695861 -17.96875 32.734375 C-13.84497217 27.92330086 -13.5059692 24.15516715 -13.24609375 17.89453125 C-12.68500009 11.29500107 -9.63506197 7.32993468 -4.8125 3 C-1.203125 0 -1.203125 0 0 0 Z " transform="translate(37,7)" style="fill: rgb(254, 213, 109); --darkreader-inline-fill: var(--darkreader-text-fed56d, #fed366);" data-darkreader-inline-fill=""></path><path d="M0 0 C3.78125 0.7578125 3.78125 0.7578125 5.75 2.9375 C7.57920285 7.41904697 7.85991701 11.23262009 7 16 C4.74862243 21.22407029 2.46896778 25.81241289 -3 28 C-2.45462284 18.55636393 -1.46291615 9.34561968 0 0 Z " transform="translate(46,6)" style="fill: rgb(254, 214, 113); --darkreader-inline-fill: var(--darkreader-text-fed671, #fed469);" data-darkreader-inline-fill=""></path><path d="M0 0 C1.65 0 3.3 0 5 0 C4.53571062 10.24638634 3.07002769 19.97533762 1 30 C-0.32 30.33 -1.64 30.66 -3 31 C-2.43174786 20.59201341 -1.39777395 10.32724245 0 0 Z " transform="translate(41,6)" style="fill: rgb(254, 253, 250); --darkreader-inline-fill: var(--darkreader-text-fefdfa, #f6edd1);" data-darkreader-inline-fill=""></path><path d="M0 0 C1.51231017 3.02462034 0.68346079 5.4344343 0.22265625 8.7578125 C0.13245712 9.42086395 0.042258 10.08391541 -0.05067444 10.76705933 C-0.34045997 12.88722123 -0.63887295 15.00606716 -0.9375 17.125 C-1.13533446 18.56111967 -1.33260719 19.99731684 -1.52929688 21.43359375 C-2.01301324 24.95665219 -2.50447474 28.47858085 -3 32 C-3.66 32 -4.32 32 -5 32 C-5.17830947 25.24855515 -4.49967749 18.75294177 -3.625 12.0625 C-3.49867187 11.00998047 -3.37234375 9.95746094 -3.2421875 8.87304688 C-3.11328125 7.87466797 -2.984375 6.87628906 -2.8515625 5.84765625 C-2.73635254 4.94023682 -2.62114258 4.03281738 -2.50244141 3.09790039 C-2.33663574 2.40559326 -2.17083008 1.71328613 -2 1 C-1.34 0.67 -0.68 0.34 0 0 Z " transform="translate(39,6)" style="fill: rgb(254, 250, 239); --darkreader-inline-fill: var(--darkreader-text-fefaef, #fbecc4);" data-darkreader-inline-fill=""></path></svg>