<svg version="1.1" xmlns="http://www.w3.org/2000/svg"  viewBox="0 0 72 72" width="72" height="72"><path d="M0 0 C23.76 0 47.52 0 72 0 C72 23.76 72 47.52 72 72 C48.24 72 24.48 72 0 72 C0 48.24 0 24.48 0 0 Z " transform="translate(0,0)" style="fill: rgb(0, 0, 0); --darkreader-inline-fill: var(--darkreader-text-000000, #e8e6e3);" data-darkreader-inline-fill=""></path><path d="M0 0 C16.5 0 33 0 50 0 C50.185625 5.61 50.37125 11.22 50.5625 17 C50.64443604 18.75441406 50.72637207 20.50882813 50.81079102 22.31640625 C51.11340011 33.32387982 51.11340011 33.32387982 48.19384766 37.71899414 C45.90571243 39.76814636 43.60788422 41.3844497 41 43 C39.80450515 43.96167812 38.62064279 44.93813661 37.453125 45.93359375 C36.38802636 46.7715569 35.32038487 47.6062999 34.25 48.4375 C33.71246094 48.86998047 33.17492188 49.30246094 32.62109375 49.74804688 C26.96011257 54.14873662 26.96011257 54.14873662 23 54 C20.69284143 52.43064837 18.83205533 50.94530188 16.8125 49.0625 C15.75818863 48.11401663 14.70214401 47.16745698 13.64453125 46.22265625 C13.08894531 45.69945801 12.53335937 45.17625977 11.9609375 44.63720703 C9.97831439 42.88874328 9.97831439 42.88874328 7.3671875 41.46826172 C4.26743768 39.52981888 2.20759318 37.93151604 0 35 C-1.24168381 28.9084989 -0.94624437 23.19063494 -0.625 17 C-0.41875 11.39 -0.2125 5.78 0 0 Z " transform="translate(11,9)" style="fill: rgb(155, 131, 238); --darkreader-inline-fill: var(--darkreader-text-9b83ee, #957bed);" data-darkreader-inline-fill=""></path><path d="M0 0 C6.81709487 2.72683795 13.88574001 5.94101069 17 13 C17.4125 12.154375 17.825 11.30875 18.25 10.4375 C21.60925087 5.26277163 27.70551145 2.81373763 33 0 C31.6404241 4.2205965 30.05956153 8.0681098 28 12 C28.99 12.33 29.98 12.66 31 13 C26.38 16.3 21.76 19.6 17 23 C12 19.66666667 7 16.33333333 2 13 C2.99 12.67 3.98 12.34 5 12 C3.35 8.04 1.7 4.08 0 0 Z " transform="translate(19,25)" style="fill: rgb(0, 0, 0); --darkreader-inline-fill: var(--darkreader-text-000000, #e8e6e3);" data-darkreader-inline-fill=""></path></svg>