<svg version="1.1" xmlns="http://www.w3.org/2000/svg"  viewBox="0 0 72 72" width="72" height="72"><path d="M0 0 C23.76 0 47.52 0 72 0 C72 23.76 72 47.52 72 72 C48.24 72 24.48 72 0 72 C0 48.24 0 24.48 0 0 Z " transform="translate(0,0)" style="fill: rgb(0, 0, 0); --darkreader-inline-fill: var(--darkreader-text-000000, #e8e6e3);" data-darkreader-inline-fill=""></path><path d="M0 0 C3.57191607 1.73477148 6.16324772 4.26470596 8.93408203 7.04443359 C9.52867218 7.63045349 10.12326233 8.21647339 10.73587036 8.82025146 C11.98638529 10.05930398 13.23172373 11.30359995 14.47216797 12.55273438 C16.37655764 14.46346226 18.30608784 16.34597287 20.23876953 18.22802734 C21.45132624 19.43603964 22.66231956 20.64562366 23.87158203 21.85693359 C24.45165009 22.41858215 25.03171814 22.98023071 25.62936401 23.55889893 C29.43873211 27.45874509 29.43873211 27.45874509 29.72070312 30.71191406 C27.98593165 34.28383013 25.45599716 36.87516178 22.67626953 39.64599609 C22.09024963 40.24058624 21.50422974 40.83517639 20.90045166 41.44778442 C19.66139915 42.69829935 18.41710318 43.94363779 17.16796875 45.18408203 C15.25724087 47.0884717 13.37473026 49.0180019 11.49267578 50.95068359 C10.28466349 52.1632403 9.07507946 53.37423362 7.86376953 54.58349609 C7.30212097 55.16356415 6.74047241 55.7436322 6.1618042 56.34127808 C2.26195803 60.15064617 2.26195803 60.15064617 -0.99121094 60.43261719 C-4.563127 58.69784571 -7.15445866 56.16791122 -9.92529297 53.38818359 C-10.51988312 52.8021637 -11.11447327 52.2161438 -11.7270813 51.61236572 C-12.97759623 50.37331321 -14.22293467 49.12901724 -15.46337891 47.87988281 C-17.36776857 45.96915493 -19.29729878 44.08664432 -21.22998047 42.20458984 C-22.44253717 40.99657755 -23.6535305 39.78699352 -24.86279297 38.57568359 C-25.44286102 38.01403503 -26.02292908 37.45238647 -26.62057495 36.87371826 C-30.42994305 32.9738721 -30.42994305 32.9738721 -30.71191406 29.72070312 C-28.97714258 26.14878706 -26.4472081 23.5574554 -23.66748047 20.78662109 C-23.08146057 20.19203094 -22.49544067 19.5974408 -21.8916626 18.98483276 C-20.65261009 17.73431783 -19.40831411 16.48897939 -18.15917969 15.24853516 C-16.2484518 13.34414549 -14.3659412 11.41461529 -12.48388672 9.48193359 C-11.27587442 8.26937689 -10.0662904 7.05838356 -8.85498047 5.84912109 C-8.29333191 5.26905304 -7.73168335 4.68898499 -7.15301514 4.09133911 C-3.25316897 0.28197101 -3.25316897 0.28197101 0 0 Z " transform="translate(36.49560546875,5.78369140625)" style="fill: rgb(68, 220, 191); --darkreader-inline-fill: var(--darkreader-text-44dcbf, #51dec3);" data-darkreader-inline-fill=""></path><path d="M0 0 C4.01295501 1.60518201 6.43356787 2.82646659 9.75 5.375 C10.52859375 5.96023437 11.3071875 6.54546875 12.109375 7.1484375 C14.13728913 9.13445258 14.6338021 10.22910257 15 13 C15.66 13 16.32 13 17 13 C17.21398437 12.26394531 17.42796875 11.52789062 17.6484375 10.76953125 C19.36982583 7.24217771 21.4070302 5.89517695 24.625 3.6875 C25.62789062 2.99011719 26.63078125 2.29273438 27.6640625 1.57421875 C28.43492188 1.05472656 29.20578125 0.53523438 30 0 C30.66 0.33 31.32 0.66 32 1 C30.35 4.3 28.7 7.6 27 11 C27.99 11.33 28.98 11.66 30 12 C28.11741837 13.54029406 26.22186184 15.05605156 24.3125 16.5625 C23.51682617 17.21895508 23.51682617 17.21895508 22.70507812 17.88867188 C20.2570796 19.79600815 18.6228594 20.99231038 15.46875 21.03125 C12.33559392 19.72246328 9.89097949 17.98953865 7.1875 15.9375 C6.21167969 15.20402344 5.23585938 14.47054687 4.23046875 13.71484375 C3.49441406 13.14894531 2.75835938 12.58304688 2 12 C2.99 11.67 3.98 11.34 5 11 C3.35 7.37 1.7 3.74 0 0 Z " transform="translate(20,30)" style="fill: rgb(0, 0, 0); --darkreader-inline-fill: var(--darkreader-text-000000, #e8e6e3);" data-darkreader-inline-fill=""></path></svg>