<svg version="1.1" xmlns="http://www.w3.org/2000/svg"  viewBox="0 0 72 72" width="72" height="72"><path d="M0 0 C23.76 0 47.52 0 72 0 C72 23.76 72 47.52 72 72 C48.24 72 24.48 72 0 72 C0 48.24 0 24.48 0 0 Z " transform="translate(0,0)" style="fill: rgb(0, 0, 0); --darkreader-inline-fill: var(--darkreader-text-000000, #e8e6e3);" data-darkreader-inline-fill=""></path><path d="M0 0 C5.97862438 4.46845283 10.37480943 9.38290353 12.2578125 16.6875 C13.26670319 25.65069726 12.76022523 33.32547556 7.2578125 40.6875 C1.84603539 46.59668309 -2.91381094 50.1440216 -11.0390625 51.05859375 C-20.45905315 51.23974742 -27.00611124 50.02491664 -34.0625 43.5625 C-40.8906896 36.31825583 -42.29632917 30.09358831 -42.109375 20.2265625 C-41.1926731 11.3911165 -36.63798447 5.97041399 -30.12109375 0.28125 C-21.39060475 -5.56774756 -8.9226357 -5.18278509 0 0 Z " transform="translate(50.7421875,12.3125)" style="fill: rgb(243, 122, 102); --darkreader-inline-fill: var(--darkreader-text-f37a66, #f37965);" data-darkreader-inline-fill=""></path><path d="M0 0 C4.44084528 1.48028176 8.62922698 3.71983915 12 7 C12.703125 9.1640625 12.703125 9.1640625 13 11 C13.66 11 14.32 11 15 11 C15.23460937 10.24332031 15.46921875 9.48664062 15.7109375 8.70703125 C17.23509672 5.50629689 18.63506942 4.52417164 21.625 2.6875 C22.85089844 1.91986328 22.85089844 1.91986328 24.1015625 1.13671875 C24.72804688 0.76160156 25.35453125 0.38648437 26 0 C26.66 0.33 27.32 0.66 28 1 C26.68 3.64 25.36 6.28 24 9 C24.99 9.33 25.98 9.66 27 10 C23.04 12.97 19.08 15.94 15 19 C11.62369726 17.31184863 8.81066899 15.54968586 5.75 13.375 C4.85796875 12.74335937 3.9659375 12.11171875 3.046875 11.4609375 C2.37140625 10.97882812 1.6959375 10.49671875 1 10 C1.99 9.67 2.98 9.34 4 9 C2.68 6.03 1.36 3.06 0 0 Z " transform="translate(22,29)" style="fill: rgb(0, 0, 0); --darkreader-inline-fill: var(--darkreader-text-000000, #e8e6e3);" data-darkreader-inline-fill=""></path></svg>