<svg version="1.1" xmlns="http://www.w3.org/2000/svg"  viewBox="0 0 72 72" width="72" height="72"><path d="M0 0 C23.76 0 47.52 0 72 0 C72 23.76 72 47.52 72 72 C48.24 72 24.48 72 0 72 C0 48.24 0 24.48 0 0 Z " transform="translate(0,0)" style="fill: rgb(0, 0, 0); --darkreader-inline-fill: var(--darkreader-text-000000, #e8e6e3);" data-darkreader-inline-fill=""></path><path d="M0 0 C5.75766843 2.12364594 10.53685248 5.43311047 15.625 8.8125 C16.57890625 9.42931641 17.5328125 10.04613281 18.515625 10.68164062 C19.43085938 11.28814453 20.34609375 11.89464844 21.2890625 12.51953125 C22.12131348 13.06714111 22.95356445 13.61475098 23.81103516 14.17895508 C26.27211542 16.22637842 27.57204093 18.14841953 29 21 C29 21.66 29 22.32 29 23 C29.66 23 30.32 23 31 23 C31.23203125 22.08863281 31.4640625 21.17726563 31.703125 20.23828125 C33.20332574 16.49229807 34.45071894 15.42769232 37.75 13.1875 C38.72324219 12.52105469 39.69648437 11.85460937 40.69921875 11.16796875 C42.33310547 10.09482422 42.33310547 10.09482422 44 9 C44.61182129 8.59217285 45.22364258 8.1843457 45.85400391 7.76416016 C47.75114519 6.50052768 49.65466043 5.24741455 51.5625 4 C52.1699707 3.60192139 52.77744141 3.20384277 53.40332031 2.79370117 C57.76127217 0 57.76127217 0 60 0 C59.40440894 4.86872054 57.27522585 8.59328841 54.9375 12.8125 C54.56044922 13.50537109 54.18339844 14.19824219 53.79492188 14.91210938 C52.86916148 16.61128985 51.93537688 18.30609425 51 20 C53.31 20.66 55.62 21.32 58 22 C53.91096844 26.40607377 49.37829988 29.72369399 44.4375 33.125 C42.93588517 34.16882107 41.43457316 35.21307793 39.93359375 36.2578125 C39.27415771 36.7130127 38.61472168 37.16821289 37.93530273 37.63720703 C35.93979978 38.9858108 35.93979978 38.9858108 34.06665039 40.73388672 C32 42 32 42 29.51123047 41.86035156 C26.87098912 40.95580067 25.05627078 39.89513157 22.8203125 38.234375 C22.05589844 37.67363281 21.29148437 37.11289062 20.50390625 36.53515625 C19.71886719 35.94605469 18.93382813 35.35695312 18.125 34.75 C16.565164 33.59887725 15.00526897 32.44783448 13.4453125 31.296875 C12.69926758 30.74193359 11.95322266 30.18699219 11.18457031 29.61523438 C8.14995522 27.37149125 5.07819659 25.18346745 2 23 C2.33 22.34 2.66 21.68 3 21 C4.98 21 6.96 21 9 21 C8.72736328 20.47043701 8.45472656 19.94087402 8.17382812 19.39526367 C6.94294648 16.99583348 5.7213928 14.59177321 4.5 12.1875 C4.07074219 11.35412109 3.64148438 10.52074219 3.19921875 9.66210938 C2.79316406 8.85966797 2.38710937 8.05722656 1.96875 7.23046875 C1.40317383 6.12288208 1.40317383 6.12288208 0.82617188 4.99291992 C0 3 0 3 0 0 Z " transform="translate(6,20)" style="fill: rgb(250, 183, 71); --darkreader-inline-fill: var(--darkreader-text-fab747, #fab94d);" data-darkreader-inline-fill=""></path><path d="M0 0 C0.99 0.33 1.98 0.66 3 1 C3.6875 3.0625 3.6875 3.0625 4 5 C6.31 5.33 8.62 5.66 11 6 C9.125 9.875 9.125 9.875 8 11 C7.63239269 13.32817964 7.29758419 15.6618385 7 18 C5.7625 17.814375 4.525 17.62875 3.25 17.4375 C0.23720423 17.05288777 -2.10010827 16.9125406 -5 18 C-5.103125 16.906875 -5.20625 15.81375 -5.3125 14.6875 C-5.99727202 11.01463192 -6.27919304 10.24762314 -9 8 C-9 7.34 -9 6.68 -9 6 C-5.535 5.505 -5.535 5.505 -2 5 C-1.34 3.35 -0.68 1.7 0 0 Z " transform="translate(35,6)" style="fill: rgb(250, 183, 71); --darkreader-inline-fill: var(--darkreader-text-fab747, #fab94d);" data-darkreader-inline-fill=""></path></svg>