<svg version="1.1" xmlns="http://www.w3.org/2000/svg"  viewBox="0 0 140 140" width="140" height="140"><path d="M0 0 C46.2 0 92.4 0 140 0 C140 46.2 140 92.4 140 140 C93.8 140 47.6 140 0 140 C0 93.8 0 47.6 0 0 Z " transform="translate(0,0)" style="fill: rgb(0, 0, 0); --darkreader-inline-fill: var(--darkreader-text-000000, #e8e6e3);" data-darkreader-inline-fill=""></path><path d="M0 0 C0.75172485 -0.00671722 1.50344971 -0.01343445 2.2779541 -0.02035522 C4.75975173 -0.03933236 7.24127889 -0.04325926 9.72314453 -0.04541016 C11.45183421 -0.05183834 13.18052281 -0.05856672 14.90921021 -0.06558228 C18.53227256 -0.07755435 22.15523957 -0.08126318 25.77832031 -0.08007812 C30.414335 -0.07987495 35.04973657 -0.10717547 39.685606 -0.14162254 C43.25618278 -0.16389185 46.82661202 -0.16791566 50.39725113 -0.16685867 C52.10604083 -0.16921465 53.8148346 -0.17803802 55.52355576 -0.19352341 C57.91717859 -0.21318445 60.30947955 -0.20734584 62.703125 -0.1953125 C63.75537766 -0.21217102 63.75537766 -0.21217102 64.82888794 -0.22937012 C69.81658419 -0.16585541 72.68329155 1.09621245 76.48095703 4.29052734 C79.10406598 7.73182021 78.77682857 11.64946894 78.77148438 15.80957031 C78.7782016 16.56129517 78.78491882 17.31302002 78.7918396 18.08752441 C78.81081673 20.56932205 78.81474363 23.0508492 78.81689453 25.53271484 C78.82332272 27.26140453 78.83005109 28.99009312 78.83706665 30.71878052 C78.84903873 34.34184287 78.85274755 37.96480988 78.8515625 41.58789062 C78.85135933 46.22390532 78.87865984 50.85930689 78.91310692 55.49517632 C78.93537622 59.06575309 78.93940003 62.63618233 78.93834305 66.20682144 C78.94069902 67.91561114 78.9495224 69.62440491 78.96500778 71.33312607 C78.98466883 73.7267489 78.97883022 76.11904986 78.96679688 78.51269531 C78.97803589 79.21419708 78.9892749 79.91569885 79.00085449 80.63845825 C78.93733979 85.6261545 77.67527192 88.49286187 74.48095703 92.29052734 C71.03966417 94.9136363 67.12201544 94.58639888 62.96191406 94.58105469 C61.83432678 94.59113052 61.83432678 94.59113052 60.68395996 94.60140991 C58.20216233 94.62038704 55.72063518 94.62431395 53.23876953 94.62646484 C51.51007985 94.63289303 49.78139126 94.63962141 48.05270386 94.64663696 C44.4296415 94.65860904 40.80667449 94.66231787 37.18359375 94.66113281 C32.54757906 94.66092964 27.91217749 94.68823016 23.27630806 94.72267723 C19.70573128 94.74494654 16.13530204 94.74897035 12.56466293 94.74791336 C10.85587323 94.75026933 9.14707946 94.75909271 7.43835831 94.77457809 C5.04473548 94.79423914 2.65243451 94.78840053 0.25878906 94.77636719 C-0.44271271 94.7876062 -1.14421448 94.79884521 -1.86697388 94.8104248 C-6.85467013 94.7469101 -9.72137749 93.48484224 -13.51904297 90.29052734 C-16.14215192 86.84923448 -15.81491451 82.93158575 -15.80957031 78.77148438 C-15.81628754 78.01975952 -15.82300476 77.26803467 -15.82992554 76.49353027 C-15.84890267 74.01173264 -15.85282957 71.53020549 -15.85498047 69.04833984 C-15.86140865 67.31965016 -15.86813703 65.59096157 -15.87515259 63.86227417 C-15.88712466 60.23921181 -15.89083349 56.6162448 -15.88964844 52.99316406 C-15.88944526 48.35714937 -15.91674578 43.7217478 -15.95119286 39.08587837 C-15.97346216 35.51530159 -15.97748597 31.94487236 -15.97642899 28.37423325 C-15.97878496 26.66544354 -15.98760833 24.95664978 -16.00309372 23.24792862 C-16.02275476 20.85430579 -16.01691615 18.46200482 -16.00488281 16.06835938 C-16.01612183 15.3668576 -16.02736084 14.66535583 -16.03894043 13.94259644 C-15.97542572 8.95490018 -14.71335786 6.08819282 -11.51904297 2.29052734 C-8.0777501 -0.33258161 -4.16010138 -0.0053442 0 0 Z " transform="translate(38.51904296875,22.70947265625)" style="fill: rgb(15, 96, 237); --darkreader-inline-fill: var(--darkreader-text-0f60ed, #419af3);" data-darkreader-inline-fill=""></path><path d="M0 0 C0.75172485 -0.00671722 1.50344971 -0.01343445 2.2779541 -0.02035522 C4.75975173 -0.03933236 7.24127889 -0.04325926 9.72314453 -0.04541016 C11.45183421 -0.05183834 13.18052281 -0.05856672 14.90921021 -0.06558228 C18.53227256 -0.07755435 22.15523957 -0.08126318 25.77832031 -0.08007812 C30.414335 -0.07987495 35.04973657 -0.10717547 39.685606 -0.14162254 C43.25618278 -0.16389185 46.82661202 -0.16791566 50.39725113 -0.16685867 C52.10604083 -0.16921465 53.8148346 -0.17803802 55.52355576 -0.19352341 C57.91717859 -0.21318445 60.30947955 -0.20734584 62.703125 -0.1953125 C63.75537766 -0.21217102 63.75537766 -0.21217102 64.82888794 -0.22937012 C69.81658419 -0.16585541 72.68329155 1.09621245 76.48095703 4.29052734 C78.53604174 7.22970727 78.72663916 9.61092231 78.70800781 13.15087891 C78.70785675 14.11157288 78.70770569 15.07226685 78.70755005 16.06207275 C78.69722748 17.09136902 78.68690491 18.12066528 78.67626953 19.18115234 C78.67343964 20.24090271 78.67060974 21.30065308 78.66769409 22.39251709 C78.65650438 25.77530231 78.63140173 29.15782222 78.60595703 32.54052734 C78.59592568 34.83479435 78.5868001 37.12906551 78.57861328 39.42333984 C78.5582711 45.04591999 78.51911948 50.66792687 78.48095703 56.29052734 C69.57095703 56.29052734 60.66095703 56.29052734 51.48095703 56.29052734 C51.81095703 54.97052734 52.14095703 53.65052734 52.48095703 52.29052734 C53.1912574 45.44369755 52.61988231 39.93011559 48.48095703 34.29052734 C43.52939439 29.010425 38.96102082 26.27126216 31.66845703 25.91552734 C25.5903168 26.06906135 21.17076903 27.76808143 16.72314453 31.93896484 C11.51510859 37.70051185 10.25371206 42.19413062 10.31298828 49.88818359 C10.43154098 52.58665379 10.43154098 52.58665379 11.48095703 56.29052734 C2.57095703 56.29052734 -6.33904297 56.29052734 -15.51904297 56.29052734 C-15.61098048 49.5637664 -15.69058955 42.83919383 -15.73876953 36.11230469 C-15.75885813 33.82512008 -15.78613425 31.53798666 -15.82080078 29.25097656 C-15.86943855 25.959344 -15.89203976 22.66839177 -15.90966797 19.37646484 C-15.93031311 18.35749115 -15.95095825 17.33851746 -15.972229 16.28866577 C-15.97405807 10.47353171 -15.62723905 6.77997989 -11.51904297 2.29052734 C-7.90988795 -0.16115097 -4.21153383 -0.00541027 0 0 Z " transform="translate(38.51904296875,22.70947265625)" style="fill: rgb(227, 216, 232); --darkreader-inline-fill: var(--darkreader-text-e3d8e8, #d4c4dc);" data-darkreader-inline-fill=""></path><path d="M0 0 C4.72924803 3.51511396 9.62553351 8.51681264 10.88671875 14.40234375 C11.63719801 21.25195603 11.06504024 26.78081373 6.88671875 32.40234375 C1.54286055 38.05857779 -3.05640299 41.38207818 -10.92578125 41.77734375 C-17.2042382 41.60966983 -21.52590825 39.84682436 -26.09375 35.53125 C-31.52974305 29.6020947 -33.63401372 25.04671499 -33.41796875 16.95703125 C-32.55633033 9.73252449 -28.56772217 5.25956772 -23.046875 0.8125 C-16.19799223 -4.18234178 -7.32720325 -4.17635723 0 0 Z " transform="translate(81.11328125,50.59765625)" style="fill: rgb(19, 28, 48); --darkreader-inline-fill: var(--darkreader-text-131c30, #d3cfc9);" data-darkreader-inline-fill=""></path><path d="M0 0 C8.91 0 17.82 0 27 0 C27 5.94 27 11.88 27 18 C18.09 18 9.18 18 0 18 C0.33 16.68 0.66 15.36 1 14 C1.09070579 12.3352819 1.13008286 10.66717967 1.125 9 C1.12886719 7.7315625 1.12886719 7.7315625 1.1328125 6.4375 C1.06128897 3.70853854 1.06128897 3.70853854 0 0 Z " transform="translate(90,61)" style="fill: rgb(239, 176, 74); --darkreader-inline-fill: var(--darkreader-text-efb04a, #f0b351);" data-darkreader-inline-fill=""></path><path d="M0 0 C8.91 0 17.82 0 27 0 C26.67 1.32 26.34 2.64 26 4 C25.90929421 5.6647181 25.86991714 7.33282033 25.875 9 C25.87242188 9.845625 25.86984375 10.69125 25.8671875 11.5625 C25.93871103 14.29146146 25.93871103 14.29146146 27 18 C18.09 18 9.18 18 0 18 C0 12.06 0 6.12 0 0 Z " transform="translate(23,61)" style="fill: rgb(239, 176, 74); --darkreader-inline-fill: var(--darkreader-text-efb04a, #f0b351);" data-darkreader-inline-fill=""></path><path d="M0 0 C3.55247432 0.87379409 4.94828114 2.4927342 6.9375 5.4765625 C7.63597125 8.3162489 7.63597125 10.6368761 6.9375 13.4765625 C4.94828114 16.4603908 3.55247432 18.07933091 0 18.953125 C-3.92313492 19.23547183 -5.73362371 18.69581336 -9.0625 16.4765625 C-11.28175086 13.14768621 -11.82140933 11.33719742 -11.5390625 7.4140625 C-10.07519871 1.46261629 -5.59135555 -0.40240816 0 0 Z " transform="translate(72.0625,60.5234375)" style="fill: rgb(221, 210, 227); --darkreader-inline-fill: var(--darkreader-text-ddd2e3, #d1cdc7);" data-darkreader-inline-fill=""></path></svg>