<svg version="1.1" xmlns="http://www.w3.org/2000/svg"  viewBox="0 0 72 72" width="72" height="72"><path d="M0 0 C23.76 0 47.52 0 72 0 C72 23.76 72 47.52 72 72 C48.24 72 24.48 72 0 72 C0 48.24 0 24.48 0 0 Z " transform="translate(0,0)" style="fill: rgb(0, 0, 0); --darkreader-inline-fill: var(--darkreader-text-000000, #e8e6e3);" data-darkreader-inline-fill=""></path><path d="M0 0 C9.57 0 19.14 0 29 0 C30.32 2.31 31.64 4.62 33 7 C34.813697 8.40183436 34.813697 8.40183436 36.75 8.9375 C37.8225 9.288125 38.895 9.63875 40 10 C40.7804411 22.42202084 38.01897007 31.3733153 30.421875 41.26953125 C26.16911057 46.06418018 21.45459474 50.60256671 16 54 C10.82790724 54.18508483 5.90656816 48.37526655 2.20703125 45.109375 C-5.14737248 38.24954689 -10.63057068 28.9351958 -11.171875 18.7734375 C-11.18560918 15.84119081 -11.1338061 12.92886692 -11 10 C-10.45730469 9.78085937 -9.91460937 9.56171875 -9.35546875 9.3359375 C-8.64003906 9.01882812 -7.92460937 8.70171875 -7.1875 8.375 C-6.47980469 8.07335938 -5.77210937 7.77171875 -5.04296875 7.4609375 C-2.27777343 5.72406758 -2.27777343 5.72406758 0 0 Z " transform="translate(20,9)" style="fill: rgb(251, 149, 74); --darkreader-inline-fill: var(--darkreader-text-fb954a, #fb984e);" data-darkreader-inline-fill=""></path><path d="M0 0 C2.64 0 5.28 0 8 0 C8 10.23 8 20.46 8 31 C0.51691814 27.25845907 -3.53997724 22.22634003 -6.35546875 14.37890625 C-7.13240716 11.5112972 -7.31093523 8.95388471 -7 6 C-6.21625 5.7525 -5.4325 5.505 -4.625 5.25 C-1.67682892 3.84610901 -1.0975223 2.99324263 0 0 Z " transform="translate(26,19)" style="fill: rgb(0, 0, 0); --darkreader-inline-fill: var(--darkreader-text-000000, #e8e6e3);" data-darkreader-inline-fill=""></path></svg>