<svg version="1.1" xmlns="http://www.w3.org/2000/svg"  viewBox="0 0 72 72" width="72" height="72"><path d="M0 0 C23.76 0 47.52 0 72 0 C72 23.76 72 47.52 72 72 C48.24 72 24.48 72 0 72 C0 48.24 0 24.48 0 0 Z " transform="translate(0,0)" style="fill: rgb(0, 0, 0); --darkreader-inline-fill: var(--darkreader-text-000000, #e8e6e3);" data-darkreader-inline-fill=""></path><path d="M0 0 C4.55315922 -0.09958121 9.10567152 -0.17179985 13.65966797 -0.21972656 C15.20567887 -0.23972503 16.75161527 -0.26693331 18.29736328 -0.30175781 C35.65623251 -0.68277883 35.65623251 -0.68277883 43.2421875 5.96484375 C43.78101563 6.61582031 44.31984375 7.26679688 44.875 7.9375 C45.70644531 8.91009766 45.70644531 8.91009766 46.5546875 9.90234375 C50.84146554 16.12396485 50.82482003 22.68080755 50 30 C47.80112415 36.90344745 43.27502465 41.54114097 37 45 C30.49251116 47.8282044 23.46801095 47.45764896 16.796875 45.28125 C10.6826454 42.57418651 6.64950058 38.22402386 3.625 32.3125 C3 30 3 30 3 26 C1.02 26 -0.96 26 -3 26 C-3.33 24.35 -3.66 22.7 -4 21 C-0.37 20.67 3.26 20.34 7 20 C6.67 19.34 6.34 18.68 6 18 C2.66554777 17.68243312 -0.6480713 17.61991485 -3.99609375 17.5390625 C-4.98738281 17.36117188 -5.97867187 17.18328125 -7 17 C-8.41015625 14.9609375 -8.41015625 14.9609375 -9 13 C-7 11 -7 11 -5.12060547 10.77294922 C-4.37697754 10.78342285 -3.63334961 10.79389648 -2.8671875 10.8046875 C-1.65869141 10.81435547 -1.65869141 10.81435547 -0.42578125 10.82421875 C0.83685547 10.84935547 0.83685547 10.84935547 2.125 10.875 C3.39923828 10.88853516 3.39923828 10.88853516 4.69921875 10.90234375 C6.79959884 10.92594353 8.89983444 10.96181517 11 11 C11 10.01 11 9.02 11 8 C10.38511719 8.02320313 9.77023438 8.04640625 9.13671875 8.0703125 C7.92435547 8.09738281 7.92435547 8.09738281 6.6875 8.125 C5.88699219 8.14820313 5.08648437 8.17140625 4.26171875 8.1953125 C2 8 2 8 -1 6 C-0.67 4.02 -0.34 2.04 0 0 Z " transform="translate(19,14)" style="fill: rgb(79, 93, 127); --darkreader-inline-fill: var(--darkreader-text-4f5d7f, #a79f94);" data-darkreader-inline-fill=""></path><path d="M0 0 C4.43672189 2.24181085 6.48167463 4.64814889 8.03515625 9.30859375 C8.57060577 13.59218989 8.34550912 15.71087711 6.34765625 19.55859375 C3.47665531 22.97275703 1.43775165 24.94820444 -3.07421875 25.625 C-7.15444312 25.83722644 -9.6075757 25.4806117 -13.33984375 23.68359375 C-17.31133464 20.09034009 -18.73985852 17.10847557 -19.40234375 11.80859375 C-18.75706721 6.64638143 -16.67182484 3.73107799 -12.71484375 0.43359375 C-8.35908707 -1.34830671 -4.40597164 -1.55041149 0 0 Z " transform="translate(50.96484375,24.69140625)" style="fill: rgb(246, 247, 249); --darkreader-inline-fill: var(--darkreader-text-f6f7f9, #e3e1dd);" data-darkreader-inline-fill=""></path><path d="M0 0 C3.4253033 -0.41901769 6.58963743 -0.59785319 10 0 C12.4666895 1.92975924 14.00285187 4.02668557 15 7 C14.66796875 9.0625 14.66796875 9.0625 14 11 C13.71125 11.9075 13.4225 12.815 13.125 13.75 C11 16 11 16 8.35546875 16.31640625 C5.55419656 16.31281027 2.79266495 16.2133615 0 16 C-2.94623656 11.58064516 -2.94623656 11.58064516 -4 9 C-3.375 6.3125 -3.375 6.3125 -2 4 C-1.3265591 2.67007535 -0.65877227 1.3372514 0 0 Z " transform="translate(40,29)" style="fill: rgb(198, 207, 221); --darkreader-inline-fill: var(--darkreader-text-c6cfdd, #b7c6d4);" data-darkreader-inline-fill=""></path><path d="M0 0 C1.65 0.33 3.3 0.66 5 1 C4.67 2.65 4.34 4.3 4 6 C2.35 5.67 0.7 5.34 -1 5 C-0.67 3.35 -0.34 1.7 0 0 Z " transform="translate(4,25)" style="fill: rgb(78, 92, 126); --darkreader-inline-fill: var(--darkreader-text-4e5c7e, #a8a095);" data-darkreader-inline-fill=""></path></svg>