<svg version="1.1" xmlns="http://www.w3.org/2000/svg"  viewBox="0 0 80 80" width="80" height="80"><path d="M0 0 C26.4 0 52.8 0 80 0 C80 26.4 80 52.8 80 80 C53.6 80 27.2 80 0 80 C0 53.6 0 27.2 0 0 Z " transform="translate(0,0)" style="fill: rgb(0, 0, 0); --darkreader-inline-fill: var(--darkreader-text-000000, #e8e6e3);" data-darkreader-inline-fill=""></path><path d="M0 0 C6.67100892 -0.10192421 13.34181493 -0.17168442 20.01342773 -0.21972656 C22.28010563 -0.23976707 24.54673232 -0.26700711 26.81323242 -0.30175781 C30.08264856 -0.35060868 33.35137757 -0.37304512 36.62109375 -0.390625 C37.62458359 -0.41127014 38.62807343 -0.43191528 39.66197205 -0.45318604 C49.24008596 -0.45619939 56.26534231 2.57484397 63.2734375 9.06640625 C68.76980624 15.22184183 70.35248467 22.30311304 70.19921875 30.35546875 C69.49253291 39.73637683 64.92162446 45.81164554 58 52 C50.80739552 57.39098871 41.55063338 56.98065614 33 56 C26.02457073 53.95266621 20.45263488 49.71044135 16 44 C15.484375 42.906875 14.96875 41.81375 14.4375 40.6875 C13.963125 39.800625 13.48875 38.91375 13 38 C11.52853516 37.61908203 11.52853516 37.61908203 10.02734375 37.23046875 C7 36 7 36 5.7578125 33.1015625 C5.54898437 31.95429687 5.34015625 30.80703125 5.125 29.625 C4.90070312 28.48289062 4.67640625 27.34078125 4.4453125 26.1640625 C4 23 4 23 4 19 C7.3 19 10.6 19 14 19 C14 18.34 14 17.68 14 17 C10.37 17 6.74 17 3 17 C2.49255577 15.10614563 1.99435426 13.20981334 1.5 11.3125 C1.2215625 10.25675781 0.943125 9.20101563 0.65625 8.11328125 C0.05766551 5.27356794 -0.05127345 2.88199527 0 0 Z " transform="translate(4,12)" style="fill: rgb(252, 110, 144); --darkreader-inline-fill: var(--darkreader-text-fc6e90, #fc688b);" data-darkreader-inline-fill=""></path><path d="M0 0 C6.67100892 -0.10192421 13.34181493 -0.17168442 20.01342773 -0.21972656 C22.28010563 -0.23976707 24.54673232 -0.26700711 26.81323242 -0.30175781 C30.08264856 -0.35060868 33.35137757 -0.37304512 36.62109375 -0.390625 C37.62458359 -0.41127014 38.62807343 -0.43191528 39.66197205 -0.45318604 C49.24008596 -0.45619939 56.26534231 2.57484397 63.2734375 9.06640625 C68.76980624 15.22184183 70.35248467 22.30311304 70.19921875 30.35546875 C69.49253291 39.73637683 64.92162446 45.81164554 58 52 C50.80739552 57.39098871 41.55063338 56.98065614 33 56 C26.02457073 53.95266621 20.45263488 49.71044135 16 44 C15.484375 42.906875 14.96875 41.81375 14.4375 40.6875 C13.963125 39.800625 13.48875 38.91375 13 38 C11.52853516 37.61908203 11.52853516 37.61908203 10.02734375 37.23046875 C7 36 7 36 5.7578125 33.1015625 C5.54898437 31.95429687 5.34015625 30.80703125 5.125 29.625 C4.90070312 28.48289062 4.67640625 27.34078125 4.4453125 26.1640625 C4 23 4 23 4 19 C7.3 19 10.6 19 14 19 C14 18.34 14 17.68 14 17 C10.37 17 6.74 17 3 17 C2.49255577 15.10614563 1.99435426 13.20981334 1.5 11.3125 C1.2215625 10.25675781 0.943125 9.20101563 0.65625 8.11328125 C0.05766551 5.27356794 -0.05127345 2.88199527 0 0 Z M32.5625 4.1875 C30.99323431 4.66103512 29.42288641 5.13099633 27.8515625 5.59765625 C27.05524414 5.83500488 26.25892578 6.07235352 25.43847656 6.31689453 C20.75581585 7.62867714 15.98702358 8.61689092 11.21899414 9.56713867 C8.97178113 10.02214025 8.97178113 10.02214025 6 11 C5.67 11.99 5.34 12.98 5 14 C9.29 14 13.58 14 18 14 C17.34 15.32 16.68 16.64 16 18 C16 19.32 16 20.64 16 22 C13.03 22 10.06 22 7 22 C7.66264086 28.06264222 7.66264086 28.06264222 9 34 C9.886875 33.95875 10.77375 33.9175 11.6875 33.875 C15 35 15 35 16.30078125 37.1171875 C17.11487052 38.90447143 17.92193346 40.69496918 18.72265625 42.48828125 C21.49216427 47.93413342 26.46413048 50.6933877 32 53 C40.77248773 55.09776881 48.1399735 54.43449989 56 50 C61.55275083 45.7532261 65.7679887 41.00555443 67 34 C67.85030403 25.01107168 66.82463384 18.3653432 61.9375 10.8125 C57.12981367 5.51246025 50.1280083 2.73551525 43.12182617 2.01147461 C39.39586613 1.99132502 36.08553382 3.06291908 32.5625 4.1875 Z " transform="translate(4,12)" style="fill: rgb(174, 13, 129); --darkreader-inline-fill: var(--darkreader-text-ae0d81, #f256c7);" data-darkreader-inline-fill=""></path><path d="M0 0 C4.79765866 2.39882933 7.565249 5.22414226 10 10 C10.65293024 15.22344192 9.845108 18.58517724 7 23 C3.32297423 26.40124883 0.71377437 27.83832317 -4.3125 28.3125 C-9.44690309 27.87738109 -12.12076255 25.74963487 -15.8125 22.3125 C-17.68427139 18.66747151 -18.11343626 15.0766155 -18 11 C-15.1251707 2.53522485 -8.68318104 -1.15019749 0 0 Z " transform="translate(49,26)" style="fill: rgb(147, 4, 68); --darkreader-inline-fill: var(--darkreader-text-930444, #fb66a9);" data-darkreader-inline-fill=""></path><path d="M0 0 C4.36213267 1.81225628 8.63605786 3.63605786 12 7 C12 7.99 12 8.98 12 10 C5.8843951 12.03853497 0.19794538 12.13699669 -6.1875 11.75 C-11.39368027 11.5676824 -13.93702756 12.85991881 -18 16 C-22.35755542 19.01452326 -26.58540842 20.07533924 -31.6875 21.1875 C-32.84475586 21.45336914 -32.84475586 21.45336914 -34.02539062 21.72460938 C-39.66370053 23 -39.66370053 23 -42 23 C-42 21.68 -42 20.36 -42 19 C-39.03 19 -36.06 19 -33 19 C-32.7834375 17.576875 -32.7834375 17.576875 -32.5625 16.125 C-32 13 -32 13 -31 11 C-35.29 11 -39.58 11 -44 11 C-43.67 10.01 -43.34 9.02 -43 8 C-40.55680569 7.16828243 -38.26266302 6.54440171 -35.75390625 5.9921875 C-35.02759506 5.82123566 -34.30128387 5.65028381 -33.55296326 5.47415161 C-31.22547082 4.92879421 -28.8943462 4.40139886 -26.5625 3.875 C-24.23519116 3.33787334 -21.90876123 2.79713485 -19.58274841 2.25442505 C-18.13354036 1.9175866 -16.68341031 1.58468631 -15.23231506 1.256073 C-4.69655155 -1.15476267 -4.69655155 -1.15476267 0 0 Z " transform="translate(53,15)" style="fill: rgb(253, 126, 189); --darkreader-inline-fill: var(--darkreader-text-fd7ebd, #fd72b7);" data-darkreader-inline-fill=""></path><path d="M0 0 C-0.10699219 0.58007812 -0.21398437 1.16015625 -0.32421875 1.7578125 C-1.15417845 7.16593698 -1.03611484 10.21228044 2 15 C2.33 15.66 2.66 16.32 3 17 C1.23050388 17.50471197 -0.54065223 18.00360685 -2.3125 18.5 C-3.29863281 18.7784375 -4.28476562 19.056875 -5.30078125 19.34375 C-8 20 -8 20 -11 20 C-11.37125 18.865625 -11.7425 17.73125 -12.125 16.5625 C-12.86637873 14.6185869 -12.86637873 14.6185869 -14 13 C-17.08369887 11.94250443 -17.08369887 11.94250443 -20 12 C-20.33 9.36 -20.66 6.72 -21 4 C-16.99327393 2.5531267 -12.92843326 1.40010418 -8.8125 0.3125 C-7.27529297 -0.09548828 -7.27529297 -0.09548828 -5.70703125 -0.51171875 C-3 -1 -3 -1 0 0 Z " transform="translate(33,34)" style="fill: rgb(252, 60, 106); --darkreader-inline-fill: var(--darkreader-text-fc3c6a, #fc4470);" data-darkreader-inline-fill=""></path><path d="M0 0 C5.37382635 6.09033653 6.27090296 11.14381426 6 19 C4.39743892 19.50512244 2.79288208 20.00391627 1.1875 20.5 C0.29417969 20.7784375 -0.59914063 21.056875 -1.51953125 21.34375 C-4 22 -4 22 -7 22 C-6.95359375 21.41992188 -6.9071875 20.83984375 -6.859375 20.2421875 C-6.59676953 14.55865473 -7.22876075 11.5254871 -11 7 C-11.99168195 5.99175057 -12.98992158 4.98981897 -14 4 C-12.4176994 3.66179834 -10.83410625 3.32964061 -9.25 3 C-8.36828125 2.814375 -7.4865625 2.62875 -6.578125 2.4375 C-4 2 -4 2 0 2 C0 1.34 0 0.68 0 0 Z " transform="translate(65,23)" style="fill: rgb(253, 61, 106); --darkreader-inline-fill: var(--darkreader-text-fd3d6a, #fd4570);" data-darkreader-inline-fill=""></path><path d="M0 0 C12.54 0 25.08 0 38 0 C35.22348353 2.77651647 32.08272519 3.11106018 28.3671875 3.9453125 C27.61535187 4.12005096 26.86351624 4.29478943 26.08889771 4.474823 C23.68577926 5.03169753 21.28048568 5.57845139 18.875 6.125 C17.24594051 6.50063815 15.61703211 6.87693214 13.98828125 7.25390625 C9.99390119 8.176892 5.99754118 9.09080737 2 10 C0.26265853 6.19956554 0 4.40285423 0 0 Z " transform="translate(7,14)" style="fill: rgb(254, 62, 107); --darkreader-inline-fill: var(--darkreader-text-fe3e6b, #fe4570);" data-darkreader-inline-fill=""></path><path d="M0 0 C1.98 0 3.96 0 6 0 C6.37511719 0.74765625 6.75023437 1.4953125 7.13671875 2.265625 C11.22693572 10.13697453 14.70870015 14.44658578 23 18 C31.80735491 20.10610661 39.07578492 19.35831829 47 15 C49.29317679 13.13451888 51.05689794 11.24990764 53 9 C53.99 9.33 54.98 9.66 56 10 C51.55900738 15.96027957 47.24732611 19.88542027 40 22 C30.53254825 23.181031 21.95595397 22.84219498 14 17 C10.19798306 13.8918873 7.51646433 11.07265669 5.375 6.625 C4.25104758 3.73562126 4.25104758 3.73562126 1.3125 3.125 C0.1678125 3.063125 0.1678125 3.063125 -1 3 C-0.67 2.01 -0.34 1.02 0 0 Z " transform="translate(13,46)" style="fill: rgb(178, 13, 127); --darkreader-inline-fill: var(--darkreader-text-b20d7f, #f253c1);" data-darkreader-inline-fill=""></path><path d="M0 0 C3.22692549 2.15128366 3.41328964 2.36789323 4.1875 5.875 C4.34605469 6.55304687 4.50460938 7.23109375 4.66796875 7.9296875 C5 10 5 10 5 14 C9.29 14 13.58 14 18 14 C17.34 16.64 16.68 19.28 16 22 C13.03 22 10.06 22 7 22 C7.495 23.8253125 7.495 23.8253125 8 25.6875 C8.80322213 28.87210604 9.20641973 31.6972843 9 35 C8.01 35.495 8.01 35.495 7 36 C6.49453964 33.91798472 5.99583165 31.83432933 5.5 29.75 C5.2215625 28.58984375 4.943125 27.4296875 4.65625 26.234375 C4 23 4 23 4 19 C7.3 19 10.6 19 14 19 C14 18.34 14 17.68 14 17 C10.37 17 6.74 17 3 17 C2.49255577 15.10614563 1.99435426 13.20981334 1.5 11.3125 C1.2215625 10.25675781 0.943125 9.20101563 0.65625 8.11328125 C0.0608285 5.28857328 -0.12786492 2.87163292 0 0 Z " transform="translate(4,12)" style="fill: rgb(141, 6, 67); --darkreader-inline-fill: var(--darkreader-text-8d0643, #f96bab);" data-darkreader-inline-fill=""></path><path d="M0 0 C-6.00658855 5.83086388 -11.39782967 10.01007995 -20 10.3125 C-24.17575029 10.15508084 -27.99324148 9.14478815 -32 8 C-28.98995748 5.99330499 -27.00057581 5.36106838 -23.52734375 4.52734375 C-21.93116211 4.13772461 -21.93116211 4.13772461 -20.30273438 3.74023438 C-19.19220703 3.47533203 -18.08167969 3.21042969 -16.9375 2.9375 C-14.73779147 2.40697458 -12.53854719 1.87451936 -10.33984375 1.33984375 C-9.36394287 1.10644287 -8.38804199 0.87304199 -7.38256836 0.63256836 C-2.21680356 -0.73893452 -2.21680356 -0.73893452 0 0 Z " transform="translate(66,56)" style="fill: rgb(253, 61, 107); --darkreader-inline-fill: var(--darkreader-text-fd3d6b, #fd4571);" data-darkreader-inline-fill=""></path><path d="M0 0 C-0.33 2.31 -0.66 4.62 -1 7 C-2.093125 7.226875 -3.18625 7.45375 -4.3125 7.6875 C-8.15105949 8.60256623 -8.15105949 8.60256623 -9.5 11.625 C-9.995 12.40875 -10.49 13.1925 -11 14 C-14.6875 14.3125 -14.6875 14.3125 -18 14 C-17.61104749 8.55466487 -15.7851047 5.87313039 -12 2 C-8.3563904 -0.76411763 -4.39189536 -0.14639651 0 0 Z " transform="translate(49,26)" style="fill: rgb(121, 6, 73); --darkreader-inline-fill: var(--darkreader-text-790649, #f87ac4);" data-darkreader-inline-fill=""></path><path d="M0 0 C0.70125 0.00515625 1.4025 0.0103125 2.125 0.015625 C2.82625 0.01046875 3.5275 0.0053125 4.25 0 C6.125 0.265625 6.125 0.265625 8.125 2.265625 C8.390625 4.140625 8.390625 4.140625 8.375 6.265625 C8.38015625 6.966875 8.3853125 7.668125 8.390625 8.390625 C8.125 10.265625 8.125 10.265625 6.125 12.265625 C-1.0122549 12.94536356 -1.0122549 12.94536356 -3.9375 10.640625 C-5.19356608 7.45859094 -4.79570253 5.52349548 -3.875 2.265625 C-1.875 0.265625 -1.875 0.265625 0 0 Z " transform="translate(42.875,33.734375)" style="fill: rgb(249, 57, 104); --darkreader-inline-fill: var(--darkreader-text-f93968, #f94370);" data-darkreader-inline-fill=""></path><path d="M0 0 C6.19081546 3.09540773 10.44847408 7.84557951 12.875 14.3125 C15.13341527 22.23039638 14.87306078 30.60452592 11 38 C10.01 38.66 9.02 39.32 8 40 C7.67 39.34 7.34 38.68 7 38 C7.474375 36.88625 7.94875 35.7725 8.4375 34.625 C11.0750011 27.94008938 11.08771051 20.35727395 8.75 13.5625 C6.26082807 8.49525714 3.03612782 4.8919804 -1 1 C-0.67 0.67 -0.34 0.34 0 0 Z " transform="translate(60,16)" style="fill: rgb(161, 7, 75); --darkreader-inline-fill: var(--darkreader-text-a1074b, #f85da2);" data-darkreader-inline-fill=""></path><path d="M0 0 C1.43739513 -0.02712066 2.87493863 -0.04645067 4.3125 -0.0625 C5.51326172 -0.07990234 5.51326172 -0.07990234 6.73828125 -0.09765625 C9 0 9 0 12 1 C12 1.66 12 2.32 12 3 C9.03 3 6.06 3 3 3 C3.33 4.216875 3.66 5.43375 4 6.6875 C4.80322213 9.87210604 5.20641973 12.6972843 5 16 C4.34 16.33 3.68 16.66 3 17 C2.49453964 14.91798472 1.99583165 12.83432933 1.5 10.75 C1.2215625 9.58984375 0.943125 8.4296875 0.65625 7.234375 C0 4 0 4 0 0 Z " transform="translate(8,31)" style="fill: rgb(170, 1, 65); --darkreader-inline-fill: var(--darkreader-text-aa0141, #fe5595);" data-darkreader-inline-fill=""></path><path d="M0 0 C3.54295139 2.36196759 3.77042481 3.92015058 4.66015625 7.95703125 C5.05564067 10.33448358 5.15030725 12.59508395 5 15 C4.01 15.495 4.01 15.495 3 16 C2.49193553 14.27318563 1.99389533 12.54342021 1.5 10.8125 C1.08234375 9.36810547 1.08234375 9.36810547 0.65625 7.89453125 C0.03322392 5.14654124 -0.12302812 2.80401584 0 0 Z " transform="translate(4,12)" style="fill: rgb(172, 4, 67); --darkreader-inline-fill: var(--darkreader-text-ac0443, #fb5593);" data-darkreader-inline-fill=""></path><path d="M0 0 C1.258125 -0.020625 2.51625 -0.04125 3.8125 -0.0625 C4.52019531 -0.07410156 5.22789063 -0.08570312 5.95703125 -0.09765625 C8 0 8 0 11 1 C11 1.66 11 2.32 11 3 C7.7 3 4.4 3 1 3 C0.67 2.01 0.34 1.02 0 0 Z " transform="translate(9,31)" style="fill: rgb(175, 14, 127); --darkreader-inline-fill: var(--darkreader-text-af0e7f, #f155c3);" data-darkreader-inline-fill=""></path></svg>