<svg version="1.1" xmlns="http://www.w3.org/2000/svg"  viewBox="0 0 80 80" width="80" height="80"><path d="M0 0 C26.4 0 52.8 0 80 0 C80 26.4 80 52.8 80 80 C53.6 80 27.2 80 0 80 C0 53.6 0 27.2 0 0 Z " transform="translate(0,0)" style="fill: rgb(0, 0, 0); --darkreader-inline-fill: var(--darkreader-text-000000, #e8e6e3);" data-darkreader-inline-fill=""></path><path d="M0 0 C6.67100892 -0.10192421 13.34181493 -0.17168442 20.01342773 -0.21972656 C22.28010563 -0.23976707 24.54673232 -0.26700711 26.81323242 -0.30175781 C30.08264856 -0.35060868 33.35137757 -0.37304512 36.62109375 -0.390625 C37.62458359 -0.41127014 38.62807343 -0.43191528 39.66197205 -0.45318604 C49.24008596 -0.45619939 56.26534231 2.57484397 63.2734375 9.06640625 C68.76980624 15.22184183 70.35248467 22.30311304 70.19921875 30.35546875 C69.49253291 39.73637683 64.92162446 45.81164554 58 52 C50.80739552 57.39098871 41.55063338 56.98065614 33 56 C26.02457073 53.95266621 20.45263488 49.71044135 16 44 C15.484375 42.906875 14.96875 41.81375 14.4375 40.6875 C13.963125 39.800625 13.48875 38.91375 13 38 C11.52853516 37.61908203 11.52853516 37.61908203 10.02734375 37.23046875 C7 36 7 36 5.7578125 33.1015625 C5.54898437 31.95429687 5.34015625 30.80703125 5.125 29.625 C4.90070312 28.48289062 4.67640625 27.34078125 4.4453125 26.1640625 C4 23 4 23 4 19 C7.3 19 10.6 19 14 19 C14 18.34 14 17.68 14 17 C10.37 17 6.74 17 3 17 C2.49255577 15.10614563 1.99435426 13.20981334 1.5 11.3125 C1.2215625 10.25675781 0.943125 9.20101563 0.65625 8.11328125 C0.05766551 5.27356794 -0.05127345 2.88199527 0 0 Z " transform="translate(4,12)" style="fill: rgb(1, 147, 221); --darkreader-inline-fill: var(--darkreader-text-0193dd, #32b9fe);" data-darkreader-inline-fill=""></path><path d="M0 0 C6.68937834 -0.07636198 13.37864333 -0.12873047 20.06835938 -0.16479492 C22.34183961 -0.17983716 24.61529104 -0.20027603 26.88867188 -0.22631836 C30.16543711 -0.26290221 33.44181706 -0.27977248 36.71875 -0.29296875 C37.72740112 -0.30845261 38.73605225 -0.32393646 39.77526855 -0.33988953 C45.8545225 -0.34132385 50.54985889 0.18892882 56 3 C56.58093262 5.01057434 56.58093262 5.01057434 57 7 C58.32848691 8.00642948 59.66150329 9.00692179 61 10 C61 10.99 61 11.98 61 13 C54.8843951 15.03853497 49.19794538 15.13699669 42.8125 14.75 C37.60631973 14.5676824 35.06297244 15.85991881 31 19 C26.37567539 22.29852515 21.66891804 23.13699706 16.1875 24.1875 C15.30384766 24.36474609 14.42019531 24.54199219 13.50976562 24.72460938 C11.34138494 25.15828551 9.17166113 25.58312004 7 26 C6.34 23.69 5.68 21.38 5 19 C7.97 19 10.94 19 14 19 C14 18.34 14 17.68 14 17 C10.37 17 6.74 17 3 17 C2.49255577 15.10614563 1.99435426 13.20981334 1.5 11.3125 C1.2215625 10.25675781 0.943125 9.20101563 0.65625 8.11328125 C0.05766551 5.27356794 -0.05127345 2.88199527 0 0 Z " transform="translate(4,12)" style="fill: rgb(119, 208, 253); --darkreader-inline-fill: var(--darkreader-text-77d0fd, #6ecdfd);" data-darkreader-inline-fill=""></path><path d="M0 0 C4.79765866 2.39882933 7.565249 5.22414226 10 10 C10.65293024 15.22344192 9.845108 18.58517724 7 23 C3.32297423 26.40124883 0.71377437 27.83832317 -4.3125 28.3125 C-9.38552442 27.88258268 -11.99118703 25.66246591 -15.8125 22.5 C-18.66402267 18.89807662 -18.37947281 14.40188455 -18 10 C-14.19674018 2.53975959 -8.39570848 -1.64555886 0 0 Z " transform="translate(49,26)" style="fill: rgb(2, 86, 178); --darkreader-inline-fill: var(--darkreader-text-0256b2, #62b6fd);" data-darkreader-inline-fill=""></path><path d="M0 0 C6.19081546 3.09540773 10.44847408 7.84557951 12.875 14.3125 C15.14105252 22.25717224 14.94029761 30.63226891 11 38 C6.3156403 44.56586236 1.12184732 50.32647814 -7 52 C-16.50620754 53.01360184 -24.99791747 52.87606798 -33 47 C-36.77543116 43.91362091 -39.47056247 41.12240757 -41.5625 36.6875 C-42.036875 35.800625 -42.51125 34.91375 -43 34 C-44.46953125 33.61908203 -44.46953125 33.61908203 -45.96875 33.23046875 C-49 32 -49 32 -50.27734375 29.1015625 C-50.49519531 27.95429687 -50.71304688 26.80703125 -50.9375 25.625 C-51.17339844 24.48289062 -51.40929688 23.34078125 -51.65234375 22.1640625 C-51.9633057 19.33395935 -51.94340844 17.64154363 -51 15 C-48.54510684 20.12325529 -47.49658297 24.33895411 -47 30 C-45.02 30 -43.04 30 -41 30 C-40.62488281 30.74765625 -40.24976563 31.4953125 -39.86328125 32.265625 C-36.15765077 39.68422745 -36.15765077 39.68422745 -30 45 C-29.44957031 45.36738281 -28.89914063 45.73476563 -28.33203125 46.11328125 C-22.46193897 49.63533662 -16.69897472 49.86215891 -10 49 C-2.77576354 47.03612989 3.30599864 44.05934978 7.25 37.5 C10.66296557 30.67406886 11.13250367 23.0879393 9.46875 15.61328125 C7.33323982 9.52011362 3.56233354 5.39939306 -1 1 C-0.67 0.67 -0.34 0.34 0 0 Z " transform="translate(60,16)" style="fill: rgb(1, 70, 146); --darkreader-inline-fill: var(--darkreader-text-014692, #75bffe);" data-darkreader-inline-fill=""></path><path d="M0 0 C-0.33 0.66 -0.66 1.32 -1 2 C-1.26235755 6.63498344 -0.82801019 9.77272643 1 14 C1 15.32 1 16.64 1 18 C-2.96 18.66 -6.92 19.32 -11 20 C-11.37125 18.865625 -11.7425 17.73125 -12.125 16.5625 C-12.86637873 14.6185869 -12.86637873 14.6185869 -14 13 C-17.08369887 11.94250443 -17.08369887 11.94250443 -20 12 C-20.33 9.36 -20.66 6.72 -21 4 C-17.18664337 2.36468414 -13.41197547 1.26374135 -9.375 0.3125 C-8.24835937 0.04050781 -7.12171875 -0.23148438 -5.9609375 -0.51171875 C-3 -1 -3 -1 0 0 Z " transform="translate(33,34)" style="fill: rgb(53, 168, 253); --darkreader-inline-fill: var(--darkreader-text-35a8fd, #3fadfd);" data-darkreader-inline-fill=""></path><path d="M0 0 C20.295 0.495 20.295 0.495 41 1 C38.27210951 3.72789049 35.26961632 4.0591858 31.62109375 4.875 C30.12825188 5.22394407 28.63541344 5.57290285 27.14257812 5.921875 C24.78379342 6.4638412 22.42438387 7.00299057 20.06469727 7.54101562 C17.79019064 8.06220244 15.51814302 8.59322066 13.24609375 9.125 C12.53569443 9.28339355 11.8252951 9.44178711 11.09336853 9.60498047 C9.37963509 10.00727138 7.68662089 10.49598585 6 11 C5.67 11.66 5.34 12.32 5 13 C9.29 13 13.58 13 18 13 C17.34 15.31 16.68 17.62 16 20 C15.01 19.67 14.02 19.34 13 19 C13.33 18.01 13.66 17.02 14 16 C10.37 16 6.74 16 3 16 C2.49411853 14.08487728 1.99551609 12.16783078 1.5 10.25 C1.2215625 9.18265625 0.943125 8.1153125 0.65625 7.015625 C0 4 0 4 0 0 Z " transform="translate(4,13)" style="fill: rgb(55, 170, 254); --darkreader-inline-fill: var(--darkreader-text-37aafe, #40affe);" data-darkreader-inline-fill=""></path><path d="M0 0 C5.37382635 6.09033653 6.27090296 11.14381426 6 19 C-0.435 20.485 -0.435 20.485 -7 22 C-6.9175 20.63875 -6.835 19.2775 -6.75 17.875 C-6.74130989 12.3480906 -8.79074192 9.24616693 -12.63671875 5.3359375 C-13.08660156 4.89507813 -13.53648438 4.45421875 -14 4 C-12.4176994 3.66179834 -10.83410625 3.32964061 -9.25 3 C-8.36828125 2.814375 -7.4865625 2.62875 -6.578125 2.4375 C-4 2 -4 2 0 2 C0 1.34 0 0.68 0 0 Z " transform="translate(65,23)" style="fill: rgb(53, 169, 253); --darkreader-inline-fill: var(--darkreader-text-35a9fd, #3faefd);" data-darkreader-inline-fill=""></path><path d="M0 0 C-1.4587471 3.86526773 -3.24854146 4.97031959 -6.9375 6.6875 C-7.81277344 7.10386719 -8.68804687 7.52023438 -9.58984375 7.94921875 C-13.54403527 9.67316935 -16.64378557 10.18631079 -20.9375 10.25 C-21.97777344 10.27578125 -23.01804687 10.3015625 -24.08984375 10.328125 C-27.36934683 9.95835553 -28.49644366 9.03727023 -31 7 C-26.9619897 5.82041697 -22.91906406 4.65864225 -18.875 3.5 C-17.73289062 3.16613281 -16.59078125 2.83226562 -15.4140625 2.48828125 C-14.30546875 2.17246094 -13.196875 1.85664062 -12.0546875 1.53125 C-11.03874512 1.23798828 -10.02280273 0.94472656 -8.97607422 0.64257812 C-5.89551596 -0.02255964 -3.14154638 -0.11468487 0 0 Z " transform="translate(65,56)" style="fill: rgb(50, 165, 249); --darkreader-inline-fill: var(--darkreader-text-32a5f9, #3eabf9);" data-darkreader-inline-fill=""></path><path d="M0 0 C-0.33 2.31 -0.66 4.62 -1 7 C-2.093125 7.226875 -3.18625 7.45375 -4.3125 7.6875 C-8.15105949 8.60256623 -8.15105949 8.60256623 -9.5 11.625 C-9.995 12.40875 -10.49 13.1925 -11 14 C-14.6875 14.3125 -14.6875 14.3125 -18 14 C-17.61104749 8.55466487 -15.7851047 5.87313039 -12 2 C-8.3563904 -0.76411763 -4.39189536 -0.14639651 0 0 Z " transform="translate(49,26)" style="fill: rgb(5, 79, 136); --darkreader-inline-fill: var(--darkreader-text-054f88, #7cc5fa);" data-darkreader-inline-fill=""></path><path d="M0 0 C3.5625 0.3125 3.5625 0.3125 5.5 1.4375 C7.04974515 4.17234439 6.88412076 6.2249407 6.5625 9.3125 C5.5725 10.7975 5.5725 10.7975 4.5625 12.3125 C2.6875 12.67578125 2.6875 12.67578125 0.5625 12.625 C-0.13875 12.62113281 -0.84 12.61726563 -1.5625 12.61328125 C-3.4375 12.3125 -3.4375 12.3125 -5.4375 10.3125 C-5.703125 8.4375 -5.703125 8.4375 -5.6875 6.3125 C-5.69265625 5.61125 -5.6978125 4.91 -5.703125 4.1875 C-5.17728713 0.47570326 -3.48462745 0.31678431 0 0 Z " transform="translate(44.4375,33.6875)" style="fill: rgb(52, 167, 252); --darkreader-inline-fill: var(--darkreader-text-34a7fc, #3fadfc);" data-darkreader-inline-fill=""></path><path d="M0 0 C6.68937834 -0.07636198 13.37864333 -0.12873047 20.06835938 -0.16479492 C22.34183961 -0.17983716 24.61529104 -0.20027603 26.88867188 -0.22631836 C30.16543711 -0.26290221 33.44181706 -0.27977248 36.71875 -0.29296875 C37.72740112 -0.30845261 38.73605225 -0.32393646 39.77526855 -0.33988953 C45.90088643 -0.34133479 50.40153574 0.48243334 56 3 C55.67 3.99 55.34 4.98 55 6 C54.47135849 5.7885585 53.94271698 5.577117 53.39805603 5.35926819 C47.33680466 3.1147797 41.99505269 2.55941216 35.56640625 2.55859375 C34.1276841 2.53878197 34.1276841 2.53878197 32.65989685 2.51856995 C29.6274003 2.477999 26.59520508 2.456073 23.5625 2.4375 C20.5048903 2.41371565 17.44756421 2.38568873 14.39012146 2.34571838 C12.4949283 2.32134101 10.59958374 2.30649903 8.70423889 2.30210876 C7.42666969 2.28682884 7.42666969 2.28682884 6.12329102 2.27124023 C5.37322281 2.26696518 4.6231546 2.26269012 3.85035706 2.25828552 C2 2 2 2 0 0 Z " transform="translate(4,12)" style="fill: rgb(76, 213, 218); --darkreader-inline-fill: var(--darkreader-text-4cd5da, #57d8dc);" data-darkreader-inline-fill=""></path><path d="M0 0 C6.19081546 3.09540773 10.44847408 7.84557951 12.875 14.3125 C15.13341527 22.23039638 14.87306078 30.60452592 11 38 C10.01 38.66 9.02 39.32 8 40 C7.67 39.34 7.34 38.68 7 38 C7.474375 36.88625 7.94875 35.7725 8.4375 34.625 C11.0750011 27.94008938 11.08771051 20.35727395 8.75 13.5625 C6.26082807 8.49525714 3.03612782 4.8919804 -1 1 C-0.67 0.67 -0.34 0.34 0 0 Z " transform="translate(60,16)" style="fill: rgb(4, 112, 146); --darkreader-inline-fill: var(--darkreader-text-047092, #67d7fb);" data-darkreader-inline-fill=""></path><path d="M0 0 C0.99 0.33 1.98 0.66 3 1 C4.34256953 5.31035482 5 8.47781648 5 13 C9.29 13 13.58 13 18 13 C17.34 15.31 16.68 17.62 16 20 C15.01 19.67 14.02 19.34 13 19 C13.33 18.01 13.66 17.02 14 16 C10.37 16 6.74 16 3 16 C2.49411853 14.08487728 1.99551609 12.16783078 1.5 10.25 C1.2215625 9.18265625 0.943125 8.1153125 0.65625 7.015625 C0 4 0 4 0 0 Z " transform="translate(4,13)" style="fill: rgb(6, 85, 147); --darkreader-inline-fill: var(--darkreader-text-065593, #76c1f9);" data-darkreader-inline-fill=""></path><path d="M0 0 C0.99 0.33 1.98 0.66 3 1 C4.4053516 5.43795241 5.29241839 9.32130569 5 14 C4.01 14.495 4.01 14.495 3 15 C2.49363393 13.25183142 1.99515381 11.50137737 1.5 9.75 C1.2215625 8.77546875 0.943125 7.8009375 0.65625 6.796875 C0 4 0 4 0 0 Z " transform="translate(4,13)" style="fill: rgb(6, 115, 150); --darkreader-inline-fill: var(--darkreader-text-067396, #65d5f9);" data-darkreader-inline-fill=""></path><path d="M0 0 C3.7395549 2.71967629 4.26900833 6.68126758 5 11 C5.125 14 5.125 14 5 16 C4.34 16.33 3.68 16.66 3 17 C2.49453964 14.91798472 1.99583165 12.83432933 1.5 10.75 C1.2215625 9.58984375 0.943125 8.4296875 0.65625 7.234375 C0 4 0 4 0 0 Z " transform="translate(8,31)" style="fill: rgb(4, 112, 144); --darkreader-inline-fill: var(--darkreader-text-047090, #69d9fb);" data-darkreader-inline-fill=""></path><path d="M0 0 C5.95703125 -0.29296875 5.95703125 -0.29296875 8 0 C8.99 0.99 9.98 1.98 11 3 C7.7 3 4.4 3 1 3 C0.67 2.01 0.34 1.02 0 0 Z " transform="translate(9,31)" style="fill: rgb(77, 207, 214); --darkreader-inline-fill: var(--darkreader-text-4dcfd6, #59d2d9);" data-darkreader-inline-fill=""></path></svg>