<svg version="1.1" xmlns="http://www.w3.org/2000/svg"  viewBox="0 0 80 80" width="80" height="80"><path d="M0 0 C26.4 0 52.8 0 80 0 C80 26.4 80 52.8 80 80 C53.6 80 27.2 80 0 80 C0 53.6 0 27.2 0 0 Z " transform="translate(0,0)" style="fill: rgb(0, 0, 0); --darkreader-inline-fill: var(--darkreader-text-000000, #e8e6e3);" data-darkreader-inline-fill=""></path><path d="M0 0 C6.67100892 -0.10192421 13.34181493 -0.17168442 20.01342773 -0.21972656 C22.28010563 -0.23976707 24.54673232 -0.26700711 26.81323242 -0.30175781 C30.08264856 -0.35060868 33.35137757 -0.37304512 36.62109375 -0.390625 C37.62458359 -0.41127014 38.62807343 -0.43191528 39.66197205 -0.45318604 C49.24008596 -0.45619939 56.26534231 2.57484397 63.2734375 9.06640625 C68.76980624 15.22184183 70.35248467 22.30311304 70.19921875 30.35546875 C69.49253291 39.73637683 64.92162446 45.81164554 58 52 C50.80739552 57.39098871 41.55063338 56.98065614 33 56 C26.02457073 53.95266621 20.45263488 49.71044135 16 44 C15.484375 42.906875 14.96875 41.81375 14.4375 40.6875 C13.963125 39.800625 13.48875 38.91375 13 38 C11.52853516 37.61908203 11.52853516 37.61908203 10.02734375 37.23046875 C7 36 7 36 5.7578125 33.1015625 C5.54898437 31.95429687 5.34015625 30.80703125 5.125 29.625 C4.90070312 28.48289062 4.67640625 27.34078125 4.4453125 26.1640625 C4 23 4 23 4 19 C7.3 19 10.6 19 14 19 C14 18.34 14 17.68 14 17 C10.37 17 6.74 17 3 17 C2.49255577 15.10614563 1.99435426 13.20981334 1.5 11.3125 C1.2215625 10.25675781 0.943125 9.20101563 0.65625 8.11328125 C0.05766551 5.27356794 -0.05127345 2.88199527 0 0 Z " transform="translate(4,12)" style="fill: rgb(227, 128, 1); --darkreader-inline-fill: var(--darkreader-text-e38001, #fea32d);" data-darkreader-inline-fill=""></path><path d="M0 0 C4.48592028 6.05176038 4.26558417 12.98901086 3.65625 20.234375 C2.4794675 25.8332855 -0.00399522 29.51458519 -4.34375 33.234375 C-5.1275 33.935625 -5.91125 34.636875 -6.71875 35.359375 C-13.67942835 40.33128811 -19.45623741 40.86625455 -27.63671875 39.98828125 C-34.48669001 38.84465438 -39.69199546 35.71521409 -43.91796875 30.16796875 C-45.81077395 27.2230025 -47.23365414 24.56466258 -48.34375 21.234375 C-50.32375 20.904375 -52.30375 20.574375 -54.34375 20.234375 C-54.67375 17.594375 -55.00375 14.954375 -55.34375 12.234375 C-54.69148438 12.04101562 -54.03921875 11.84765625 -53.3671875 11.6484375 C-49.54089202 10.50844976 -45.73577251 9.37230885 -41.96875 8.046875 C-39.34375 7.234375 -39.34375 7.234375 -35.34375 7.234375 C-35.37855469 7.88664062 -35.41335937 8.53890625 -35.44921875 9.2109375 C-35.61752137 14.64470779 -35.6181513 18.65021317 -32.34375 23.234375 C-29.09968838 26.03606458 -27.10881 27.1387425 -22.84375 27.671875 C-18.09166614 27.07786452 -14.78084694 25.82013714 -11.53125 22.234375 C-9.14753588 18.21969859 -8.95466485 14.82557975 -9.34375 10.234375 C-11.12583561 6.97748506 -11.12583561 6.97748506 -13.34375 4.234375 C-14.00375 3.244375 -14.66375 2.254375 -15.34375 1.234375 C-13.26858433 0.62262096 -11.18308663 0.04582669 -9.09375 -0.515625 C-7.93359375 -0.84046875 -6.7734375 -1.1653125 -5.578125 -1.5 C-2.34375 -1.765625 -2.34375 -1.765625 0 0 Z " transform="translate(67.34375,25.765625)" style="fill: rgb(243, 177, 24); --darkreader-inline-fill: var(--darkreader-text-f3b118, #f4b82d);" data-darkreader-inline-fill=""></path><path d="M0 0 C4.79765866 2.39882933 7.565249 5.22414226 10 10 C10.65293024 15.22344192 9.845108 18.58517724 7 23 C3.32297423 26.40124883 0.71377437 27.83832317 -4.3125 28.3125 C-9.49723861 27.87311537 -12.41601755 25.80246279 -15.8125 21.9375 C-18.23959201 17.97750777 -18.38595477 14.55426632 -18 10 C-14.19674018 2.53975959 -8.39570848 -1.64555886 0 0 Z " transform="translate(49,26)" style="fill: rgb(149, 64, 4); --darkreader-inline-fill: var(--darkreader-text-954004, #fba365);" data-darkreader-inline-fill=""></path><path d="M0 0 C6.19081546 3.09540773 10.44847408 7.84557951 12.875 14.3125 C15.14105252 22.25717224 14.94029761 30.63226891 11 38 C6.3156403 44.56586236 1.12184732 50.32647814 -7 52 C-16.50620754 53.01360184 -24.99791747 52.87606798 -33 47 C-36.77543116 43.91362091 -39.47056247 41.12240757 -41.5625 36.6875 C-42.036875 35.800625 -42.51125 34.91375 -43 34 C-44.46953125 33.61908203 -44.46953125 33.61908203 -45.96875 33.23046875 C-49 32 -49 32 -50.27734375 29.1015625 C-50.49519531 27.95429687 -50.71304688 26.80703125 -50.9375 25.625 C-51.17339844 24.48289062 -51.40929688 23.34078125 -51.65234375 22.1640625 C-51.9633057 19.33395935 -51.94340844 17.64154363 -51 15 C-48.54510684 20.12325529 -47.49658297 24.33895411 -47 30 C-45.02 30 -43.04 30 -41 30 C-40.62488281 30.74765625 -40.24976563 31.4953125 -39.86328125 32.265625 C-35.77306428 40.13697453 -32.29129985 44.44658578 -24 48 C-21.14921909 48.76716851 -21.14921909 48.76716851 -18 49 C-17.33097656 49.07605469 -16.66195312 49.15210938 -15.97265625 49.23046875 C-9.3918498 49.65839465 -4.49860434 47.5234739 1 44 C1.82371094 43.17435547 1.82371094 43.17435547 2.6640625 42.33203125 C4 41 4 41 6 41 C6.68346682 39.34015202 7.34588315 37.67163195 8 36 C8.37125 35.154375 8.7425 34.30875 9.125 33.4375 C10.91808083 26.39325388 11.03628625 18.57787572 8.1328125 11.8125 C6.33359838 8.9337574 3.97287913 6.76310997 1.42578125 4.54296875 C0 3 0 3 0 0 Z " transform="translate(60,16)" style="fill: rgb(160, 63, 0); --darkreader-inline-fill: var(--darkreader-text-a03f00, #ff9c5c);" data-darkreader-inline-fill=""></path><path d="M0 0 C6.54696132 -0.07637583 13.09380673 -0.12873618 19.64111328 -0.16479492 C21.86609185 -0.17983512 24.09104101 -0.20027246 26.31591797 -0.22631836 C29.52318606 -0.26291135 32.73006045 -0.2797745 35.9375 -0.29296875 C36.92427734 -0.30845261 37.91105469 -0.32393646 38.92773438 -0.33988953 C44.99733127 -0.34135206 49.4496096 0.51436546 55 3 C54.67 3.99 54.34 4.98 54 6 C53.236875 5.67 52.47375 5.34 51.6875 5 C42.44703407 2.49411093 33.73744538 4.42906882 24.6875 6.875 C23.12032227 7.27912109 23.12032227 7.27912109 21.52148438 7.69140625 C17.46991141 8.74744243 13.48058878 9.83494931 9.51953125 11.1953125 C7 12 7 12 3 12 C2.86722656 11.30132812 2.73445312 10.60265625 2.59765625 9.8828125 C2.42105469 8.97273438 2.24445312 8.06265625 2.0625 7.125 C1.88847656 6.22007813 1.71445313 5.31515625 1.53515625 4.3828125 C1.10036299 2.00043683 1.10036299 2.00043683 0 0 Z " transform="translate(5,12)" style="fill: rgb(243, 150, 0); --darkreader-inline-fill: var(--darkreader-text-f39600, #ffaa22);" data-darkreader-inline-fill=""></path><path d="M0 0 C-0.03480469 0.65226562 -0.06960937 1.30453125 -0.10546875 1.9765625 C-0.27666767 7.50384189 -0.01587247 11.17460405 3 16 C3.33 16.66 3.66 17.32 4 18 C2.23050388 18.50471197 0.45934777 19.00360685 -1.3125 19.5 C-2.29863281 19.7784375 -3.28476562 20.056875 -4.30078125 20.34375 C-7 21 -7 21 -10 21 C-10.37125 19.865625 -10.7425 18.73125 -11.125 17.5625 C-11.86637873 15.6185869 -11.86637873 15.6185869 -13 14 C-16.08369887 12.94250443 -16.08369887 12.94250443 -19 13 C-19.33 10.36 -19.66 7.72 -20 5 C-19.34773438 4.80664062 -18.69546875 4.61328125 -18.0234375 4.4140625 C-14.19714202 3.27407476 -10.39202251 2.13793385 -6.625 0.8125 C-4 0 -4 0 0 0 Z " transform="translate(32,33)" style="fill: rgb(243, 150, 0); --darkreader-inline-fill: var(--darkreader-text-f39600, #ffaa22);" data-darkreader-inline-fill=""></path><path d="M0 0 C3.80777583 5.17282754 3.86898468 10.08069432 3.65625 16.25 C2.05368892 16.75512244 0.44913208 17.25391627 -1.15625 17.75 C-2.04957031 18.0284375 -2.94289063 18.306875 -3.86328125 18.59375 C-6.34375 19.25 -6.34375 19.25 -9.34375 19.25 C-9.29734375 18.66992188 -9.2509375 18.08984375 -9.203125 17.4921875 C-8.93939595 11.78433726 -9.63119774 8.83609397 -13.34375 4.25 C-14.00375 3.26 -14.66375 2.27 -15.34375 1.25 C-13.26858433 0.63824596 -11.18308663 0.06145169 -9.09375 -0.5 C-7.93359375 -0.82484375 -6.7734375 -1.1496875 -5.578125 -1.484375 C-2.34375 -1.75 -2.34375 -1.75 0 0 Z " transform="translate(67.34375,25.75)" style="fill: rgb(244, 151, 0); --darkreader-inline-fill: var(--darkreader-text-f49700, #ffaa21);" data-darkreader-inline-fill=""></path><path d="M0 0 C-0.33 2.31 -0.66 4.62 -1 7 C-2.093125 7.226875 -3.18625 7.45375 -4.3125 7.6875 C-8.13666691 8.60295348 -8.13666691 8.60295348 -9.5 11.5625 C-9.995 12.366875 -10.49 13.17125 -11 14 C-14.6875 14.8125 -14.6875 14.8125 -18 15 C-17.6298852 8.83142002 -16.24224897 6.24224897 -12 2 C-8.3563904 -0.76411763 -4.39189536 -0.14639651 0 0 Z " transform="translate(49,26)" style="fill: rgb(126, 51, 2); --darkreader-inline-fill: var(--darkreader-text-7e3302, #fdaa75);" data-darkreader-inline-fill=""></path><path d="M0 0 C0 0.66 0 1.32 0 2 C-6.21450709 7.7948261 -13.04562285 11.51948479 -21.64453125 11.23828125 C-25.51471367 10.84677026 -29.24436136 9.99440077 -33 9 C-29.88001685 7.28506986 -26.88536349 6.36132425 -23.4296875 5.52734375 C-21.83833984 5.13772461 -21.83833984 5.13772461 -20.21484375 4.74023438 C-19.11269531 4.47533203 -18.01054688 4.21042969 -16.875 3.9375 C-14.68439256 3.40702189 -12.49426201 2.87456932 -10.3046875 2.33984375 C-9.33515137 2.10644287 -8.36561523 1.87304199 -7.36669922 1.63256836 C-1.25858742 0 -1.25858742 0 0 0 Z " transform="translate(66,55)" style="fill: rgb(242, 149, 0); --darkreader-inline-fill: var(--darkreader-text-f29500, #ffaa23);" data-darkreader-inline-fill=""></path><path d="M0 0 C0.70125 0.00515625 1.4025 0.0103125 2.125 0.015625 C2.82625 0.01046875 3.5275 0.0053125 4.25 0 C6.125 0.265625 6.125 0.265625 8.125 2.265625 C8.390625 4.140625 8.390625 4.140625 8.375 6.265625 C8.38015625 6.966875 8.3853125 7.668125 8.390625 8.390625 C8.125 10.265625 8.125 10.265625 6.125 12.265625 C4.25 12.53125 4.25 12.53125 2.125 12.515625 C1.42375 12.52078125 0.7225 12.5259375 0 12.53125 C-1.875 12.265625 -1.875 12.265625 -3.875 10.265625 C-4.140625 8.390625 -4.140625 8.390625 -4.125 6.265625 C-4.13015625 5.564375 -4.1353125 4.863125 -4.140625 4.140625 C-3.75603481 1.4258707 -2.7147543 0.38459019 0 0 Z " transform="translate(42.875,33.734375)" style="fill: rgb(241, 148, 0); --darkreader-inline-fill: var(--darkreader-text-f19400, #ffaa23);" data-darkreader-inline-fill=""></path><path d="M0 0 C6.19081546 3.09540773 10.44847408 7.84557951 12.875 14.3125 C15.13341527 22.23039638 14.87306078 30.60452592 11 38 C10.01 38.66 9.02 39.32 8 40 C7.67 39.34 7.34 38.68 7 38 C7.474375 36.88625 7.94875 35.7725 8.4375 34.625 C11.26697642 27.45351598 11.18433471 18.92284302 8.1328125 11.8125 C6.33359838 8.9337574 3.97287913 6.76310997 1.42578125 4.54296875 C0 3 0 3 0 0 Z " transform="translate(60,16)" style="fill: rgb(176, 92, 1); --darkreader-inline-fill: var(--darkreader-text-b05c01, #feab51);" data-darkreader-inline-fill=""></path><path d="M0 0 C6.54696132 -0.07637583 13.09380673 -0.12873618 19.64111328 -0.16479492 C21.86609185 -0.17983512 24.09104101 -0.20027246 26.31591797 -0.22631836 C29.52318606 -0.26291135 32.73006045 -0.2797745 35.9375 -0.29296875 C36.92427734 -0.30845261 37.91105469 -0.32393646 38.92773438 -0.33988953 C44.99733127 -0.34135206 49.4496096 0.51436546 55 3 C54.67 3.99 54.34 4.98 54 6 C53.47217422 5.78937424 52.94434845 5.57874847 52.40052795 5.36174011 C46.32968216 3.11697403 40.9354884 2.53320207 34.49609375 2.48828125 C33.5322023 2.47033005 32.56831085 2.45237885 31.57521057 2.43388367 C28.52935012 2.38017147 25.48364279 2.34601119 22.4375 2.3125 C20.35870283 2.27929238 18.27992576 2.24479958 16.20117188 2.20898438 C11.1342258 2.12446779 6.06732206 2.05747135 1 2 C0.67 1.34 0.34 0.68 0 0 Z " transform="translate(5,12)" style="fill: rgb(254, 187, 40); --darkreader-inline-fill: var(--darkreader-text-febb28, #febf36);" data-darkreader-inline-fill=""></path><path d="M0 0 C3 2 3 2 3.73046875 4.8203125 C4.36523438 9.41015625 4.36523438 9.41015625 5 14 C9.29 14 13.58 14 18 14 C17.01 17.465 17.01 17.465 16 21 C15.01 20.67 14.02 20.34 13 20 C13.33 19.01 13.66 18.02 14 17 C10.37 17 6.74 17 3 17 C2.49255577 15.10614563 1.99435426 13.20981334 1.5 11.3125 C1.2215625 10.25675781 0.943125 9.20101563 0.65625 8.11328125 C0.0608285 5.28857328 -0.12786492 2.87163292 0 0 Z " transform="translate(4,12)" style="fill: rgb(143, 59, 1); --darkreader-inline-fill: var(--darkreader-text-8f3b01, #fea568);" data-darkreader-inline-fill=""></path><path d="M0 0 C3.7395549 2.71967629 4.26900833 6.68126758 5 11 C5.125 14 5.125 14 5 16 C4.34 16.33 3.68 16.66 3 17 C2.49453964 14.91798472 1.99583165 12.83432933 1.5 10.75 C1.2215625 9.58984375 0.943125 8.4296875 0.65625 7.234375 C0 4 0 4 0 0 Z " transform="translate(8,31)" style="fill: rgb(138, 58, 1); --darkreader-inline-fill: var(--darkreader-text-8a3a01, #fea96c);" data-darkreader-inline-fill=""></path><path d="M0 0 C4.29 0 8.58 0 13 0 C12.34 2.31 11.68 4.62 11 7 C10.01 6.67 9.02 6.34 8 6 C8.66 4.68 9.32 3.36 10 2 C6.7 1.67 3.4 1.34 0 1 C0 0.67 0 0.34 0 0 Z " transform="translate(9,26)" style="fill: rgb(167, 78, 1); --darkreader-inline-fill: var(--darkreader-text-a74e01, #fea557);" data-darkreader-inline-fill=""></path><path d="M0 0 C1.27875 -0.061875 2.5575 -0.12375 3.875 -0.1875 C4.95394531 -0.23970703 4.95394531 -0.23970703 6.0546875 -0.29296875 C6.69664063 -0.19628906 7.33859375 -0.09960938 8 0 C8.66 0.99 9.32 1.98 10 3 C7.03 3 4.06 3 1 3 C0.67 2.01 0.34 1.02 0 0 Z " transform="translate(9,31)" style="fill: rgb(252, 183, 39); --darkreader-inline-fill: var(--darkreader-text-fcb727, #fcbc35);" data-darkreader-inline-fill=""></path></svg>