<svg version="1.1" xmlns="http://www.w3.org/2000/svg"  viewBox="0 0 80 80" width="80" height="80"><path d="M0 0 C26.4 0 52.8 0 80 0 C80 26.4 80 52.8 80 80 C53.6 80 27.2 80 0 80 C0 53.6 0 27.2 0 0 Z " transform="translate(0,0)" style="fill: rgb(0, 0, 0); --darkreader-inline-fill: var(--darkreader-text-000000, #e8e6e3);" data-darkreader-inline-fill=""></path><path d="M0 0 C6.67100892 -0.10192421 13.34181493 -0.17168442 20.01342773 -0.21972656 C22.28010563 -0.23976707 24.54673232 -0.26700711 26.81323242 -0.30175781 C30.08264856 -0.35060868 33.35137757 -0.37304512 36.62109375 -0.390625 C37.62458359 -0.41127014 38.62807343 -0.43191528 39.66197205 -0.45318604 C49.24008596 -0.45619939 56.26534231 2.57484397 63.2734375 9.06640625 C68.76980624 15.22184183 70.35248467 22.30311304 70.19921875 30.35546875 C69.49253291 39.73637683 64.92162446 45.81164554 58 52 C50.80739552 57.39098871 41.55063338 56.98065614 33 56 C26.02457073 53.95266621 20.45263488 49.71044135 16 44 C15.484375 42.906875 14.96875 41.81375 14.4375 40.6875 C13.963125 39.800625 13.48875 38.91375 13 38 C11.52853516 37.61908203 11.52853516 37.61908203 10.02734375 37.23046875 C7 36 7 36 5.7578125 33.1015625 C5.54898437 31.95429687 5.34015625 30.80703125 5.125 29.625 C4.90070312 28.48289062 4.67640625 27.34078125 4.4453125 26.1640625 C4 23 4 23 4 19 C7.3 19 10.6 19 14 19 C14 18.34 14 17.68 14 17 C10.37 17 6.74 17 3 17 C2.49255577 15.10614563 1.99435426 13.20981334 1.5 11.3125 C1.2215625 10.25675781 0.943125 9.20101563 0.65625 8.11328125 C0.05766551 5.27356794 -0.05127345 2.88199527 0 0 Z " transform="translate(4,12)" style="fill: rgb(202, 91, 12); --darkreader-inline-fill: var(--darkreader-text-ca5b0c, #f48c41);" data-darkreader-inline-fill=""></path><path d="M0 0 C6.04644231 -0.14958846 12.09178113 -0.25779655 18.13964844 -0.32958984 C20.19192292 -0.35955241 22.24407166 -0.40033783 24.29589844 -0.45263672 C46.53070138 -1.004718 46.53070138 -1.004718 56 6 C58 8 58 8 58 11 C51.00126006 12.96455858 44.80653099 13.05641386 37.55078125 12.6796875 C33.26550957 13.06625766 31.38645123 14.41499345 28 17 C23.37567539 20.29852515 18.66891804 21.13699706 13.1875 22.1875 C12.30384766 22.36474609 11.42019531 22.54199219 10.50976562 22.72460938 C8.34138494 23.15828551 6.17166113 23.58312004 4 24 C4 22.68 4 21.36 4 20 C6.97 20 9.94 20 13 20 C13.2165625 18.576875 13.2165625 18.576875 13.4375 17.125 C14 14 14 14 15 12 C10.71 12 6.42 12 2 12 C0.69507531 7.84055256 -0.12019705 4.34963091 0 0 Z " transform="translate(7,14)" style="fill: rgb(229, 136, 51); --darkreader-inline-fill: var(--darkreader-text-e58833, #e79143);" data-darkreader-inline-fill=""></path><path d="M0 0 C4.79765866 2.39882933 7.565249 5.22414226 10 10 C10.65293024 15.22344192 9.845108 18.58517724 7 23 C3.32297423 26.40124883 0.71377437 27.83832317 -4.3125 28.3125 C-9.49723861 27.87311537 -12.41601755 25.80246279 -15.8125 21.9375 C-18.23959201 17.97750777 -18.38595477 14.55426632 -18 10 C-14.19674018 2.53975959 -8.39570848 -1.64555886 0 0 Z " transform="translate(49,26)" style="fill: rgb(148, 44, 8); --darkreader-inline-fill: var(--darkreader-text-942c08, #f78c67);" data-darkreader-inline-fill=""></path><path d="M0 0 C6.67100892 -0.10192421 13.34181493 -0.17168442 20.01342773 -0.21972656 C22.28010563 -0.23976707 24.54673232 -0.26700711 26.81323242 -0.30175781 C30.08264856 -0.35060868 33.35137757 -0.37304512 36.62109375 -0.390625 C37.62458359 -0.41127014 38.62807343 -0.43191528 39.66197205 -0.45318604 C49.24008596 -0.45619939 56.26534231 2.57484397 63.2734375 9.06640625 C68.76980624 15.22184183 70.35248467 22.30311304 70.19921875 30.35546875 C69.49253291 39.73637683 64.92162446 45.81164554 58 52 C50.80739552 57.39098871 41.55063338 56.98065614 33 56 C26.02457073 53.95266621 20.45263488 49.71044135 16 44 C15.484375 42.906875 14.96875 41.81375 14.4375 40.6875 C13.963125 39.800625 13.48875 38.91375 13 38 C11.52853516 37.61908203 11.52853516 37.61908203 10.02734375 37.23046875 C7 36 7 36 5.7578125 33.1015625 C5.54898437 31.95429687 5.34015625 30.80703125 5.125 29.625 C4.90070312 28.48289062 4.67640625 27.34078125 4.4453125 26.1640625 C4 23 4 23 4 19 C7.3 19 10.6 19 14 19 C14 18.34 14 17.68 14 17 C10.37 17 6.74 17 3 17 C2.49255577 15.10614563 1.99435426 13.20981334 1.5 11.3125 C1.2215625 10.25675781 0.943125 9.20101563 0.65625 8.11328125 C0.05766551 5.27356794 -0.05127345 2.88199527 0 0 Z M3 2 C3.144375 3.2375 3.28875 4.475 3.4375 5.75 C3.51871094 6.44609375 3.59992187 7.1421875 3.68359375 7.859375 C4.01301137 10.32991923 4.01301137 10.32991923 5 14 C9.29 14 13.58 14 18 14 C17.34 15.32 16.68 16.64 16 18 C16 19.32 16 20.64 16 22 C13.03 22 10.06 22 7 22 C7.66264086 28.06264222 7.66264086 28.06264222 9 34 C9.886875 33.95875 10.77375 33.9175 11.6875 33.875 C15 35 15 35 16.23046875 37.08203125 C16.60816406 37.94183594 16.98585938 38.80164062 17.375 39.6875 C20.432715 46.52584026 25.06829206 49.87603868 31.8125 52.875 C39.41477117 55.32017494 46.06557768 54.79568834 53.3125 51.5 C59.7025942 47.98586259 63.44658455 43.93242234 66.1171875 37.171875 C68.22289154 29.60624811 68.39028016 21.49815764 64.5625 14.5 C61.24077483 9.71419691 57.14652867 6.64934346 52 4 C51.33726074 3.65018066 50.67452148 3.30036133 49.99169922 2.93994141 C45.62037436 1.56654491 41.44081206 1.7544975 36.88671875 1.8046875 C35.43239189 1.80893234 35.43239189 1.80893234 33.94868469 1.81326294 C30.86149595 1.82443009 27.77460061 1.84952848 24.6875 1.875 C22.59049899 1.88503427 20.49349342 1.89415934 18.39648438 1.90234375 C13.2642104 1.92435812 8.1321549 1.95886429 3 2 Z " transform="translate(4,12)" style="fill: rgb(142, 47, 13); --darkreader-inline-fill: var(--darkreader-text-8e2f0d, #f2906d);" data-darkreader-inline-fill=""></path><path d="M0 0 C-0.33 0.66 -0.66 1.32 -1 2 C-1.40796839 7.30358907 -0.57498156 10.38649138 2 15 C2 15.66 2 16.32 2 17 C0.39743892 17.50512244 -1.20711792 18.00391627 -2.8125 18.5 C-3.70582031 18.7784375 -4.59914063 19.056875 -5.51953125 19.34375 C-8 20 -8 20 -11 20 C-11.37125 18.865625 -11.7425 17.73125 -12.125 16.5625 C-12.86637873 14.6185869 -12.86637873 14.6185869 -14 13 C-17.08369887 11.94250443 -17.08369887 11.94250443 -20 12 C-20.33 9.36 -20.66 6.72 -21 4 C-17.18664337 2.36468414 -13.41197547 1.26374135 -9.375 0.3125 C-8.24835937 0.04050781 -7.12171875 -0.23148438 -5.9609375 -0.51171875 C-3 -1 -3 -1 0 0 Z " transform="translate(33,34)" style="fill: rgb(213, 106, 30); --darkreader-inline-fill: var(--darkreader-text-d56a1e, #e4823d);" data-darkreader-inline-fill=""></path><path d="M0 0 C6.68937834 -0.07636198 13.37864333 -0.12873047 20.06835938 -0.16479492 C22.34183961 -0.17983716 24.61529104 -0.20027603 26.88867188 -0.22631836 C30.16543711 -0.26290221 33.44181706 -0.27977248 36.71875 -0.29296875 C37.72740112 -0.30845261 38.73605225 -0.32393646 39.77526855 -0.33988953 C45.90088643 -0.34133479 50.40153574 0.48243334 56 3 C55.67 3.99 55.34 4.98 55 6 C53.89462891 5.5155542 52.78925781 5.0311084 51.65039062 4.53198242 C46.62181288 2.65481683 41.91628565 2.52520289 36.59375 2.48828125 C35.6284436 2.47033005 34.66313721 2.45237885 33.6685791 2.43388367 C30.61242932 2.38008802 27.55643294 2.34598394 24.5 2.3125 C22.41664546 2.27929978 20.33331109 2.24480764 18.25 2.20898438 C13.16677791 2.12437933 8.08359888 2.05742208 3 2 C3.33 3.2375 3.66 4.475 4 5.75 C4.79891159 8.74591845 5 10.80107719 5 14 C9.29 14 13.58 14 18 14 C17.34 16.64 16.68 19.28 16 22 C13.03 22 10.06 22 7 22 C7.495 23.8253125 7.495 23.8253125 8 25.6875 C8.80322213 28.87210604 9.20641973 31.6972843 9 35 C8.01 35.495 8.01 35.495 7 36 C6.49453964 33.91798472 5.99583165 31.83432933 5.5 29.75 C5.2215625 28.58984375 4.943125 27.4296875 4.65625 26.234375 C4 23 4 23 4 19 C7.3 19 10.6 19 14 19 C14 18.34 14 17.68 14 17 C10.37 17 6.74 17 3 17 C2.49255577 15.10614563 1.99435426 13.20981334 1.5 11.3125 C1.2215625 10.25675781 0.943125 9.20101563 0.65625 8.11328125 C0.05766551 5.27356794 -0.05127345 2.88199527 0 0 Z " transform="translate(4,12)" style="fill: rgb(151, 51, 14); --darkreader-inline-fill: var(--darkreader-text-97330e, #f18c67);" data-darkreader-inline-fill=""></path><path d="M0 0 C5.62586601 6.75103921 6.22899135 10.29832867 6 19 C2.04 19.99 -1.92 20.98 -6 22 C-6.12375 19.958125 -6.12375 19.958125 -6.25 17.875 C-6.91548122 11.82862781 -9.73633207 8.16621267 -14 4 C-12.4176994 3.66179834 -10.83410625 3.32964061 -9.25 3 C-8.36828125 2.814375 -7.4865625 2.62875 -6.578125 2.4375 C-4 2 -4 2 0 2 C0 1.34 0 0.68 0 0 Z " transform="translate(65,23)" style="fill: rgb(213, 106, 30); --darkreader-inline-fill: var(--darkreader-text-d56a1e, #e4823d);" data-darkreader-inline-fill=""></path><path d="M0 0 C14.52 0 29.04 0 44 0 C44 0.33 44 0.66 44 1 C43.06285156 1.14695312 42.12570313 1.29390625 41.16015625 1.4453125 C27.94299115 3.60848466 14.99209922 6.77194497 2 10 C0.26265853 6.19956554 0 4.40285423 0 0 Z " transform="translate(7,14)" style="fill: rgb(214, 107, 31); --darkreader-inline-fill: var(--darkreader-text-d66b1f, #e3823d);" data-darkreader-inline-fill=""></path><path d="M0 0 C-1.89747162 5.16471565 -5.96309254 6.54908121 -10.69140625 8.796875 C-17.54239421 11.28814335 -24.30633635 10.89455726 -31 8 C-26.57615155 5.0507677 -21.73912217 4.18808542 -16.625 2.875 C-15.5834375 2.59785156 -14.541875 2.32070313 -13.46875 2.03515625 C-12.46070312 1.77347656 -11.45265625 1.51179688 -10.4140625 1.2421875 C-9.4957666 1.0035498 -8.5774707 0.76491211 -7.63134766 0.51904297 C-5.014678 0.00289529 -2.65923746 -0.09550909 0 0 Z " transform="translate(65,56)" style="fill: rgb(210, 104, 29); --darkreader-inline-fill: var(--darkreader-text-d2681d, #e5843f);" data-darkreader-inline-fill=""></path><path d="M0 0 C-0.33 2.31 -0.66 4.62 -1 7 C-2.093125 7.226875 -3.18625 7.45375 -4.3125 7.6875 C-8.13666691 8.60295348 -8.13666691 8.60295348 -9.5 11.5625 C-9.995 12.366875 -10.49 13.17125 -11 14 C-14.6875 14.8125 -14.6875 14.8125 -18 15 C-17.6298852 8.83142002 -16.24224897 6.24224897 -12 2 C-8.3563904 -0.76411763 -4.39189536 -0.14639651 0 0 Z " transform="translate(49,26)" style="fill: rgb(124, 36, 5); --darkreader-inline-fill: var(--darkreader-text-7c2405, #fa9977);" data-darkreader-inline-fill=""></path><path d="M0 0 C0.70125 0.00515625 1.4025 0.0103125 2.125 0.015625 C2.82625 0.01046875 3.5275 0.0053125 4.25 0 C6.125 0.265625 6.125 0.265625 8.125 2.265625 C8.390625 4.140625 8.390625 4.140625 8.375 6.265625 C8.38015625 6.966875 8.3853125 7.668125 8.390625 8.390625 C8.125 10.265625 8.125 10.265625 6.125 12.265625 C4.25 12.53125 4.25 12.53125 2.125 12.515625 C1.42375 12.52078125 0.7225 12.5259375 0 12.53125 C-1.875 12.265625 -1.875 12.265625 -3.875 10.265625 C-4.140625 8.390625 -4.140625 8.390625 -4.125 6.265625 C-4.13015625 5.564375 -4.1353125 4.863125 -4.140625 4.140625 C-3.75603481 1.4258707 -2.7147543 0.38459019 0 0 Z " transform="translate(42.875,33.734375)" style="fill: rgb(211, 104, 30); --darkreader-inline-fill: var(--darkreader-text-d3681e, #e4823f);" data-darkreader-inline-fill=""></path><path d="M0 0 C6.54696132 -0.07637583 13.09380673 -0.12873618 19.64111328 -0.16479492 C21.86609185 -0.17983512 24.09104101 -0.20027246 26.31591797 -0.22631836 C29.52318606 -0.26291135 32.73006045 -0.2797745 35.9375 -0.29296875 C36.92427734 -0.30845261 37.91105469 -0.32393646 38.92773438 -0.33988953 C44.99733127 -0.34135206 49.4496096 0.51436546 55 3 C54.67 3.99 54.34 4.98 54 6 C52.34871094 5.26656372 52.34871094 5.26656372 50.6640625 4.51831055 C45.54244444 2.60718461 40.78797748 2.61815414 35.375 2.70703125 C34.38749756 2.71127609 33.39999512 2.71552094 32.38256836 2.71989441 C29.25475823 2.73657354 26.1276126 2.77420565 23 2.8125 C20.86849894 2.82756075 18.7369877 2.84124671 16.60546875 2.85351562 C11.40342236 2.8864416 6.20175867 2.93653233 1 3 C0.67 2.01 0.34 1.02 0 0 Z " transform="translate(5,12)" style="fill: rgb(185, 76, 1); --darkreader-inline-fill: var(--darkreader-text-b94c01, #fe944b);" data-darkreader-inline-fill=""></path><path d="M0 0 C6.19081546 3.09540773 10.44847408 7.84557951 12.875 14.3125 C15.13341527 22.23039638 14.87306078 30.60452592 11 38 C10.01 38.66 9.02 39.32 8 40 C7.67 39.34 7.34 38.68 7 38 C7.474375 36.9275 7.94875 35.855 8.4375 34.75 C11.10225521 27.90133008 11.55953542 19.92483082 8.828125 13.05078125 C6.14574144 8.42574362 3.00318181 4.53221924 -1 1 C-0.67 0.67 -0.34 0.34 0 0 Z " transform="translate(60,16)" style="fill: rgb(173, 54, 14); --darkreader-inline-fill: var(--darkreader-text-ad360e, #f17e57);" data-darkreader-inline-fill=""></path><path d="M0 0 C1.43739513 -0.02712066 2.87493863 -0.04645067 4.3125 -0.0625 C5.51326172 -0.07990234 5.51326172 -0.07990234 6.73828125 -0.09765625 C9 0 9 0 12 1 C12 1.66 12 2.32 12 3 C9.03 3 6.06 3 3 3 C3.33 4.216875 3.66 5.43375 4 6.6875 C4.80322213 9.87210604 5.20641973 12.6972843 5 16 C4.34 16.33 3.68 16.66 3 17 C2.49453964 14.91798472 1.99583165 12.83432933 1.5 10.75 C1.2215625 9.58984375 0.943125 8.4296875 0.65625 7.234375 C0 4 0 4 0 0 Z " transform="translate(8,31)" style="fill: rgb(170, 40, 0); --darkreader-inline-fill: var(--darkreader-text-aa2800, #ff7d55);" data-darkreader-inline-fill=""></path><path d="M0 0 C3.4599577 2.67360368 4.06972239 5.84953067 5 10 C5.125 12.9375 5.125 12.9375 5 15 C4.01 15.495 4.01 15.495 3 16 C2.49193553 14.27318563 1.99389533 12.54342021 1.5 10.8125 C1.08234375 9.36810547 1.08234375 9.36810547 0.65625 7.89453125 C0.03322392 5.14654124 -0.12302812 2.80401584 0 0 Z " transform="translate(4,12)" style="fill: rgb(171, 41, 1); --darkreader-inline-fill: var(--darkreader-text-ab2901, #fe7c55);" data-darkreader-inline-fill=""></path><path d="M0 0 C1.258125 -0.020625 2.51625 -0.04125 3.8125 -0.0625 C4.52019531 -0.07410156 5.22789063 -0.08570312 5.95703125 -0.09765625 C8 0 8 0 11 1 C11 1.66 11 2.32 11 3 C7.7 3 4.4 3 1 3 C0.67 2.01 0.34 1.02 0 0 Z " transform="translate(9,31)" style="fill: rgb(185, 78, 3); --darkreader-inline-fill: var(--darkreader-text-b94e03, #fc944b);" data-darkreader-inline-fill=""></path></svg>