<svg version="1.1" xmlns="http://www.w3.org/2000/svg"  viewBox="0 0 80 80" width="80" height="80"><path d="M0 0 C26.4 0 52.8 0 80 0 C80 26.4 80 52.8 80 80 C53.6 80 27.2 80 0 80 C0 53.6 0 27.2 0 0 Z " transform="translate(0,0)" style="fill: rgb(0, 0, 0); --darkreader-inline-fill: var(--darkreader-text-000000, #e8e6e3);" data-darkreader-inline-fill=""></path><path d="M0 0 C5.98066258 4.5428379 8.86222415 13.34149906 10.03710938 20.54736328 C10.1454864 26.50128741 8.58227962 31.51464367 6.22460938 36.92236328 C5.72316406 38.10572266 5.22171875 39.28908203 4.70507812 40.50830078 C1.72472052 45.93855422 -2.70782102 47.50011037 -8.27539062 49.73486328 C-8.91412109 50.0075 -9.55285156 50.28013672 -10.2109375 50.56103516 C-18.93248874 54.08676863 -25.93587481 52.22689947 -34.30200195 48.73144531 C-42.45163918 44.71680423 -45.12301378 38.30190834 -47.94335938 30.00830078 C-50.27713431 21.32333053 -45.89535322 12.92065508 -41.96875 5.24023438 C-39.75704202 1.51790837 -36.89818855 0.02663894 -32.96289062 -1.45263672 C-31.733125 -2.02691406 -31.733125 -2.02691406 -30.47851562 -2.61279297 C-19.98062178 -7.3050334 -9.91703344 -5.43208292 0 0 Z " transform="translate(58.962890625,16.45263671875)" style="fill: rgb(48, 57, 159); --darkreader-inline-fill: var(--darkreader-text-30399f, #789ed6);" data-darkreader-inline-fill=""></path><path d="M0 0 C1.24040039 0.50080078 1.24040039 0.50080078 2.50585938 1.01171875 C4.52912812 1.8303824 6.54645162 2.66371326 8.5625 3.5 C7.62659496 4.6055189 6.68870142 5.70935453 5.75 6.8125 C4.96689453 7.73482422 4.96689453 7.73482422 4.16796875 8.67578125 C2.69077531 10.35424679 1.16210869 11.93882034 -0.4375 13.5 C-3.65274305 12.09155282 -5.75933868 10.39655214 -8.1875 7.875 C-8.80109375 7.24335938 -9.4146875 6.61171875 -10.046875 5.9609375 C-10.50578125 5.47882812 -10.9646875 4.99671875 -11.4375 4.5 C-14.90379835 5.98653506 -17.12772036 7.95722351 -19.765625 10.6328125 C-20.56484375 11.43847656 -21.3640625 12.24414062 -22.1875 13.07421875 C-23.0125 13.91597656 -23.8375 14.75773437 -24.6875 15.625 C-25.52796875 16.47449219 -26.3684375 17.32398437 -27.234375 18.19921875 C-29.30665683 20.29504923 -31.37412393 22.39540713 -33.4375 24.5 C-31.83214713 27.91059403 -30.03231099 30.11792484 -27.3125 32.75 C-26.22582031 33.80960938 -26.22582031 33.80960938 -25.1171875 34.890625 C-24.56289063 35.42171875 -24.00859375 35.9528125 -23.4375 36.5 C-25.10416667 38.16666667 -26.77083333 39.83333333 -28.4375 41.5 C-29.159375 42.263125 -29.88125 43.02625 -30.625 43.8125 C-32.4375 45.5 -32.4375 45.5 -34.4375 45.5 C-35.81714054 42.63656123 -37.16138856 39.7578193 -38.5 36.875 C-38.88994141 36.06675781 -39.27988281 35.25851563 -39.68164062 34.42578125 C-42.67071668 27.91858913 -42.47024159 24.28617075 -40.08984375 17.58984375 C-34.71051534 4.14232203 -34.71051534 4.14232203 -28.609375 1.31640625 C-27.89265625 1.04699219 -27.1759375 0.77757812 -26.4375 0.5 C-25.20773438 -0.07427734 -25.20773438 -0.07427734 -23.953125 -0.66015625 C-15.00192108 -4.66107315 -8.82688885 -3.68439035 0 0 Z " transform="translate(52.4375,14.5)" style="fill: rgb(207, 147, 250); --darkreader-inline-fill: var(--darkreader-text-cf93fa, #c883f9);" data-darkreader-inline-fill=""></path><path d="M0 0 C0.50532319 6.84993661 0.21641162 12.34648345 -4 18 C-7.9375 21 -7.9375 21 -11 21 C-11 21.66 -11 22.32 -11 23 C-10.2575 23.2475 -9.515 23.495 -8.75 23.75 C-5.72981276 25.12281238 -4.10148159 26.44820092 -2 29 C-1.25 31.25 -1.25 31.25 -1 33 C-0.34 33 0.32 33 1 33 C1.2475 32.2575 1.495 31.515 1.75 30.75 C3.48581415 26.93120887 5.55547468 24.82544304 9.1875 22.75 C13.14035893 21.69590429 16.93394062 21.84054669 21 22 C19.51346494 25.46629835 17.54277649 27.69022036 14.8671875 30.328125 C14.06152344 31.12734375 13.25585938 31.9265625 12.42578125 32.75 C11.58402344 33.575 10.74226563 34.4 9.875 35.25 C9.02550781 36.09046875 8.17601563 36.9309375 7.30078125 37.796875 C5.20495077 39.86915683 3.10459287 41.93662393 1 44 C-2.56764285 42.48623919 -4.83706287 40.39486871 -7.546875 37.6484375 C-8.39121094 36.79765625 -9.23554688 35.946875 -10.10546875 35.0703125 C-10.97816406 34.18085937 -11.85085937 33.29140625 -12.75 32.375 C-13.63816406 31.4778125 -14.52632812 30.580625 -15.44140625 29.65625 C-17.63216969 27.44192996 -19.81812763 25.22307565 -22 23 C-20.4879454 19.44710141 -18.40950829 17.16466444 -15.68359375 14.453125 C-14.83732422 13.60878906 -13.99105469 12.76445312 -13.11914062 11.89453125 C-11.79172852 10.58548828 -11.79172852 10.58548828 -10.4375 9.25 C-9.54869141 8.36183594 -8.65988281 7.47367188 -7.74414062 6.55859375 C-1.14021097 0 -1.14021097 0 0 0 Z " transform="translate(40,18)" style="fill: rgb(6, 9, 118); --darkreader-inline-fill: var(--darkreader-text-060976, #88b2f9);" data-darkreader-inline-fill=""></path><path d="M0 0 C1.10865985 0.91122727 2.21172219 1.82926659 3.3125 2.75 C4.23482422 3.51570313 4.23482422 3.51570313 5.17578125 4.296875 C7.05932329 6.05538534 8.51573656 7.89919636 10 10 C-6.76752126 18.6929977 -6.76752126 18.6929977 -15 18 C-18.26362621 16.90551496 -21.33323929 15.48083992 -24.4375 14 C-25.26443359 13.6184375 -26.09136719 13.236875 -26.94335938 12.84375 C-28.96803324 11.90748463 -30.98626097 10.95950056 -33 10 C-31.82630859 8.83597656 -31.82630859 8.83597656 -30.62890625 7.6484375 C-29.01482716 6.02236674 -27.43977492 4.35489234 -25.9375 2.625 C-24 1 -24 1 -22.14453125 1.14453125 C-19.3388687 2.26372997 -17.82619027 3.88250021 -15.75 6.0625 C-15.04359375 6.79597656 -14.3371875 7.52945313 -13.609375 8.28515625 C-13.07828125 8.85105469 -12.5471875 9.41695312 -12 10 C-8.54798361 8.52278578 -6.35038064 6.56205999 -3.75 3.875 C-2.69039062 2.78832031 -2.69039062 2.78832031 -1.609375 1.6796875 C-1.07828125 1.12539063 -0.5471875 0.57109375 0 0 Z " transform="translate(51,51)" style="fill: rgb(61, 64, 240); --darkreader-inline-fill: var(--darkreader-text-3d40f0, #4887f1);" data-darkreader-inline-fill=""></path><path d="M0 0 C5.32912437 4.33392645 8.38174337 13.88472933 9.375 20.49609375 C8.94270499 27.6424707 4.9843367 34.58413242 2 41 C-2.29378813 39.07712966 -4.77153701 36.37521131 -8 33 C-6.59155282 29.78475695 -4.89655214 27.67816132 -2.375 25.25 C-1.42753906 24.32960938 -1.42753906 24.32960938 -0.4609375 23.390625 C0.02117188 22.93171875 0.50328125 22.4728125 1 22 C-0.47721422 18.54798361 -2.43794001 16.35038064 -5.125 13.75 C-5.84945312 13.04359375 -6.57390625 12.3371875 -7.3203125 11.609375 C-7.87460937 11.07828125 -8.42890625 10.5471875 -9 10 C-8.06409496 8.8944811 -7.12620142 7.79064547 -6.1875 6.6875 C-5.66542969 6.07261719 -5.14335938 5.45773438 -4.60546875 4.82421875 C-3.12827531 3.14575321 -1.59960869 1.56117966 0 0 Z " transform="translate(60,19)" style="fill: rgb(122, 233, 214); --darkreader-inline-fill: var(--darkreader-text-7ae9d6, #76e8d5);" data-darkreader-inline-fill=""></path><path d="M0 0 C4.29378813 1.92287034 6.77153701 4.62478869 10 8 C8.59155282 11.21524305 6.89655214 13.32183868 4.375 15.75 C3.74335938 16.36359375 3.11171875 16.9771875 2.4609375 17.609375 C1.97882812 18.06828125 1.49671875 18.5271875 1 19 C2.47721422 22.45201639 4.43794001 24.64961936 7.125 27.25 C8.21167969 28.30960938 8.21167969 28.30960938 9.3203125 29.390625 C9.87460937 29.92171875 10.42890625 30.4528125 11 31 C9.33333333 32.66666667 7.66666667 34.33333333 6 36 C5.278125 36.763125 4.55625 37.52625 3.8125 38.3125 C2 40 2 40 0 40 C-1.37964054 37.13656123 -2.72388856 34.2578193 -4.0625 31.375 C-4.45244141 30.56675781 -4.84238281 29.75851563 -5.24414062 28.92578125 C-7.4142471 24.20147866 -8.69668854 21.14479751 -7 16 C-5.90696368 13.16143174 -4.70072381 10.39158521 -3.4375 7.625 C-3.10814453 6.88894531 -2.77878906 6.15289062 -2.43945312 5.39453125 C-1.63252195 3.59355443 -0.8171174 1.79637819 0 0 Z " transform="translate(18,20)" style="fill: rgb(237, 81, 231); --darkreader-inline-fill: var(--darkreader-text-ed51e7, #ee57e8);" data-darkreader-inline-fill=""></path><path d="M0 0 C-1.48653506 3.46629835 -3.45722351 5.69022036 -6.1328125 8.328125 C-7.34130859 9.52695312 -7.34130859 9.52695312 -8.57421875 10.75 C-9.41597656 11.575 -10.25773437 12.4 -11.125 13.25 C-11.97449219 14.09046875 -12.82398438 14.9309375 -13.69921875 15.796875 C-15.79504923 17.86915683 -17.89540713 19.93662393 -20 22 C-20.66 21.67 -21.32 21.34 -22 21 C-22 17.7 -22 14.4 -22 11 C-21.34 11 -20.68 11 -20 11 C-19.7525 10.2575 -19.505 9.515 -19.25 8.75 C-17.51418585 4.93120887 -15.44452532 2.82544304 -11.8125 0.75 C-7.85964107 -0.30409571 -4.06605938 -0.15945331 0 0 Z " transform="translate(61,40)" style="fill: rgb(6, 13, 121); --darkreader-inline-fill: var(--darkreader-text-060d79, #86b2f9);" data-darkreader-inline-fill=""></path><path d="M0 0 C0.66 0 1.32 0 2 0 C5 4.38461538 5 4.38461538 5 7 C6.175625 7.4640625 6.175625 7.4640625 7.375 7.9375 C10 9 10 9 12 10 C12 10.66 12 11.32 12 12 C7.61538462 15 7.61538462 15 5 15 C4.690625 15.78375 4.38125 16.5675 4.0625 17.375 C3 20 3 20 2 22 C1.34 22 0.68 22 0 22 C-3 17.61538462 -3 17.61538462 -3 15 C-3.78375 14.690625 -4.5675 14.38125 -5.375 14.0625 C-8 13 -8 13 -10 12 C-10 11.34 -10 10.68 -10 10 C-5.61538462 7 -5.61538462 7 -3 7 C-2.690625 6.21625 -2.38125 5.4325 -2.0625 4.625 C-1 2 -1 2 0 0 Z " transform="translate(39,29)" style="fill: rgb(247, 247, 250); --darkreader-inline-fill: var(--darkreader-text-f7f7fa, #e4e2de);" data-darkreader-inline-fill=""></path><path d="M0 0 C6.43690409 -0.53640867 11.8083731 -0.16033307 17 4 C21.16033307 9.1916269 21.53640867 14.56309591 21 21 C17.66765426 19.54758264 15.45774394 17.7149914 12.890625 15.15625 C12.13652344 14.40472656 11.38242187 13.65320312 10.60546875 12.87890625 C9.82816406 12.09386719 9.05085938 11.30882812 8.25 10.5 C7.45722656 9.71496094 6.66445313 8.92992187 5.84765625 8.12109375 C5.09871094 7.36957031 4.34976562 6.61804687 3.578125 5.84375 C2.89137695 5.15474609 2.20462891 4.46574219 1.49707031 3.75585938 C0 2 0 2 0 0 Z " transform="translate(19,40)" style="fill: rgb(4, 6, 58); --darkreader-inline-fill: var(--darkreader-text-04063a, #d4d1cb);" data-darkreader-inline-fill=""></path><path d="M0 0 C1.10865985 0.91122727 2.21172219 1.82926659 3.3125 2.75 C3.92738281 3.26046875 4.54226562 3.7709375 5.17578125 4.296875 C7.05932329 6.05538534 8.51573656 7.89919636 10 10 C-5.43083004 18 -5.43083004 18 -11 18 C-11.50040841 13.44514619 -11.4623366 11.59368222 -8.59375 7.91015625 C-7.57989223 6.94238292 -6.54792669 5.99327518 -5.5 5.0625 C-4.97535156 4.56943359 -4.45070313 4.07636719 -3.91015625 3.56835938 C-2.62212635 2.36229501 -1.31305737 1.17876741 0 0 Z " transform="translate(51,51)" style="fill: rgb(124, 73, 251); --darkreader-inline-fill: var(--darkreader-text-7c49fb, #7f4efb);" data-darkreader-inline-fill=""></path><path d="M0 0 C5.02474293 0.61830949 9.24720494 2.12976776 13.875 4.0625 C14.56335937 4.34416016 15.25171875 4.62582031 15.9609375 4.91601562 C17.64289909 5.60515266 19.32177697 6.30180798 21 7 C20.06409496 8.1055189 19.12620142 9.20935453 18.1875 10.3125 C17.66542969 10.92738281 17.14335938 11.54226562 16.60546875 12.17578125 C15.12827531 13.85424679 13.59960869 15.43882034 12 17 C7.02757599 14.79376682 3.26217418 11.32626433 0 7 C-0.66486753 4.3153455 -0.46279027 2.77674163 0 0 Z " transform="translate(40,11)" style="fill: rgb(249, 251, 250); --darkreader-inline-fill: var(--darkreader-text-f9fbfa, #e5e3df);" data-darkreader-inline-fill=""></path></svg>