<svg version="1.1" xmlns="http://www.w3.org/2000/svg"  viewBox="0 0 72 72" width="72" height="72"><path d="M0 0 C23.76 0 47.52 0 72 0 C72 23.76 72 47.52 72 72 C48.24 72 24.48 72 0 72 C0 48.24 0 24.48 0 0 Z " transform="translate(0,0)" style="fill: rgb(0, 0, 0); --darkreader-inline-fill: var(--darkreader-text-000000, #e8e6e3);" data-darkreader-inline-fill=""></path><path d="M0 0 C5.97862438 4.46845283 10.37480943 9.38290353 12.2578125 16.6875 C13.26670319 25.65069726 12.76022523 33.32547556 7.2578125 40.6875 C1.84603539 46.59668309 -2.91381094 50.1440216 -11.0390625 51.05859375 C-20.45905315 51.23974742 -27.00611124 50.02491664 -34.0625 43.5625 C-40.8906896 36.31825583 -42.29632917 30.09358831 -42.109375 20.2265625 C-41.1926731 11.3911165 -36.63798447 5.97041399 -30.12109375 0.28125 C-21.39060475 -5.56774756 -8.9226357 -5.18278509 0 0 Z " transform="translate(50.7421875,12.3125)" style="fill: rgb(26, 188, 156); --darkreader-inline-fill: var(--darkreader-text-1abc9c, #4fe7c9);" data-darkreader-inline-fill=""></path><path d="M0 0 C-0.33 1.98 -0.66 3.96 -1 6 C1.97 6 4.94 6 8 6 C8 4.35 8 2.7 8 1 C9.32 0.67 10.64 0.34 12 0 C11.67 1.98 11.34 3.96 11 6 C13.475 6.495 13.475 6.495 16 7 C16 7.66 16 8.32 16 9 C14.02 9.33 12.04 9.66 10 10 C9.67 12.31 9.34 14.62 9 17 C10.65 17 12.3 17 14 17 C14 17.99 14 18.98 14 20 C12.35 20.33 10.7 20.66 9 21 C8.34 22.98 7.68 24.96 7 27 C6.34 27 5.68 27 5 27 C5 24.69 5 22.38 5 20 C1.04 20.495 1.04 20.495 -3 21 C-3.66 22.98 -4.32 24.96 -5 27 C-5.66 27 -6.32 27 -7 27 C-7 24.69 -7 22.38 -7 20 C-8.32 20 -9.64 20 -11 20 C-11 19.01 -11 18.02 -11 17 C-9.35 17 -7.7 17 -6 17 C-5.67 14.69 -5.34 12.38 -5 10 C-6.65 9.67 -8.3 9.34 -10 9 C-9.67 8.01 -9.34 7.02 -9 6 C-7.35 6 -5.7 6 -4 6 C-4.020625 5.195625 -4.04125 4.39125 -4.0625 3.5625 C-3.97190304 -0.15197536 -3.76366383 0 0 0 Z " transform="translate(34,23)" style="fill: rgb(0, 0, 0); --darkreader-inline-fill: var(--darkreader-text-000000, #e8e6e3);" data-darkreader-inline-fill=""></path><path d="M0 0 C2.97 0 5.94 0 9 0 C8.67 2.31 8.34 4.62 8 7 C5.03 7 2.06 7 -1 7 C-0.67 4.69 -0.34 2.38 0 0 Z " transform="translate(32,33)" style="fill: rgb(26, 188, 156); --darkreader-inline-fill: var(--darkreader-text-1abc9c, #4fe7c9);" data-darkreader-inline-fill=""></path></svg>