<svg version="1.1" xmlns="http://www.w3.org/2000/svg"  viewBox="0 0 72 72" width="72" height="72"><path d="M0 0 C23.76 0 47.52 0 72 0 C72 23.76 72 47.52 72 72 C48.24 72 24.48 72 0 72 C0 48.24 0 24.48 0 0 Z " transform="translate(0,0)" style="fill: rgb(0, 0, 0); --darkreader-inline-fill: var(--darkreader-text-000000, #e8e6e3);" data-darkreader-inline-fill=""></path><path d="M0 0 C2.55478052 1.44986489 4.65187098 3.10108973 6.7265625 5.17578125 C6.7265625 9.17578125 6.7265625 9.17578125 5.29296875 10.6953125 C4.63167969 11.12199219 3.97039063 11.54867188 3.2890625 11.98828125 C2.33193359 12.64763672 2.33193359 12.64763672 1.35546875 13.3203125 C-1.50561579 14.25133407 -2.64069416 14.03171005 -5.53515625 13.51171875 C-11.11864765 12.72032604 -14.19414873 14.84132198 -18.6484375 17.98828125 C-19.34582031 18.45298828 -20.04320313 18.91769531 -20.76171875 19.39648438 C-22.61428212 20.63567504 -24.44469019 21.90187362 -26.2734375 23.17578125 C-29.2734375 25.17578125 -29.2734375 25.17578125 -32.8359375 24.92578125 C-36.2734375 24.17578125 -36.2734375 24.17578125 -38.2734375 22.17578125 C-38.8359375 18.92578125 -38.8359375 18.92578125 -38.2734375 15.17578125 C-29.34264969 5.39444222 -13.52731808 -4.90423388 0 0 Z " transform="translate(44.2734375,18.82421875)" style="fill: rgb(87, 100, 241); --darkreader-inline-fill: var(--darkreader-text-5764f1, #5a96f1);" data-darkreader-inline-fill=""></path><path d="M0 0 C1.875 1.0625 1.875 1.0625 3 3 C3.4375 6.4375 3.4375 6.4375 3 10 C-0.35280538 14.19539522 -5.0844866 16.83441973 -9.5625 19.6875 C-10.33013672 20.18572266 -11.09777344 20.68394531 -11.88867188 21.19726562 C-18.7358146 25.59686823 -23.81849181 26.65639607 -32 26 C-36.21659061 24.46669432 -39.16195383 22.4929799 -42 19 C-42 18.01 -42 17.02 -42 16 C-39.67408471 13.69309764 -37.0402383 12.19165119 -34 11 C-31.88671875 11.1484375 -31.88671875 11.1484375 -29.75 11.625 C-24.06523552 12.68720513 -20.48265266 9.893044 -15.796875 6.92578125 C-13.5204872 5.35838015 -11.31615538 3.74464805 -9.125 2.0625 C-5.66176217 -0.22323697 -4.05987714 -0.73815948 0 0 Z " transform="translate(63,28)" style="fill: rgb(87, 100, 241); --darkreader-inline-fill: var(--darkreader-text-5764f1, #5a96f1);" data-darkreader-inline-fill=""></path></svg>