<svg version="1.1" xmlns="http://www.w3.org/2000/svg"  viewBox="0 0 72 72" width="72" height="72"><path d="M0 0 C23.76 0 47.52 0 72 0 C72 23.76 72 47.52 72 72 C48.24 72 24.48 72 0 72 C0 48.24 0 24.48 0 0 Z " transform="translate(0,0)" style="fill: rgb(0, 0, 0); --darkreader-inline-fill: var(--darkreader-text-000000, #e8e6e3);" data-darkreader-inline-fill=""></path><path d="M0 0 C1.56002428 -0.1363128 3.12357176 -0.23259126 4.6875 -0.3125 C5.55761719 -0.37050781 6.42773438 -0.42851562 7.32421875 -0.48828125 C11.3062415 0.23836524 12.62848833 1.76004743 15 5 C15.71263745 7.94263014 15.78972667 10.79376821 15.8125 13.8125 C15.85020508 14.99489258 15.85020508 14.99489258 15.88867188 16.20117188 C15.94722981 18.13358373 15.97655488 20.06684327 16 22 C17.32 22.33 18.64 22.66 20 23 C20 25.31 20 27.62 20 30 C18.68 30 17.36 30 16 30 C15.97421875 31.16917969 15.9484375 32.33835938 15.921875 33.54296875 C15.86557633 35.09118226 15.80822938 36.6393579 15.75 38.1875 C15.72873047 39.34088867 15.72873047 39.34088867 15.70703125 40.51757812 C15.49070599 45.55795678 14.78178558 48.33974628 11 52 C7.54853184 53.54720987 3.72571649 53.07164839 0 53 C0 50.69 0 48.38 0 46 C3.465 45.505 3.465 45.505 7 45 C6.96519531 44.11957031 6.93039063 43.23914062 6.89453125 42.33203125 C6.86746094 41.17058594 6.84039062 40.00914063 6.8125 38.8125 C6.77769531 37.66394531 6.74289063 36.51539063 6.70703125 35.33203125 C7.02577499 31.70685245 8.04292219 29.99660966 10 27 C9.33333333 24.83333333 9.33333333 24.83333333 8 23 C6.9458482 19.83754459 6.68724328 17.13051782 6.4375 13.8125 C6.35371094 12.72582031 6.26992188 11.63914062 6.18359375 10.51953125 C6.12300781 9.68808594 6.06242187 8.85664063 6 8 C4.02 7.34 2.04 6.68 0 6 C0 4.02 0 2.04 0 0 Z " transform="translate(48,10)" style="fill: rgb(45, 168, 103); --darkreader-inline-fill: var(--darkreader-text-2da867, #61d598);" data-darkreader-inline-fill=""></path><path d="M0 0 C0.88300781 0.04511719 1.76601563 0.09023437 2.67578125 0.13671875 C3.67158203 0.22373047 3.67158203 0.22373047 4.6875 0.3125 C4.6875 2.2925 4.6875 4.2725 4.6875 6.3125 C2.7075 6.9725 0.7275 7.6325 -1.3125 8.3125 C-1.34988281 9.12074219 -1.38726562 9.92898437 -1.42578125 10.76171875 C-1.49152344 11.83035156 -1.55726562 12.89898437 -1.625 14 C-1.68300781 15.05574219 -1.74101562 16.11148437 -1.80078125 17.19921875 C-2.35150671 20.54981563 -3.52364078 22.47311958 -5.3125 25.3125 C-4.64583333 27.47916667 -4.64583333 27.47916667 -3.3125 29.3125 C-2.2583482 32.47495541 -1.99974328 35.18198218 -1.75 38.5 C-1.66621094 39.58667969 -1.58242188 40.67335937 -1.49609375 41.79296875 C-1.43550781 42.62441406 -1.37492187 43.45585938 -1.3125 44.3125 C0.6675 44.9725 2.6475 45.6325 4.6875 46.3125 C4.6875 48.6225 4.6875 50.9325 4.6875 53.3125 C-0.55140086 53.62683405 -3.84083673 53.12028856 -8.3125 50.3125 C-10.2881562 47.34901571 -10.57626859 46.63229627 -10.7265625 43.30078125 C-10.76523438 42.54345703 -10.80390625 41.78613281 -10.84375 41.00585938 C-10.8746875 40.22017578 -10.905625 39.43449219 -10.9375 38.625 C-10.97617188 37.82771484 -11.01484375 37.03042969 -11.0546875 36.20898438 C-11.14882494 34.24386525 -11.23174632 32.2782146 -11.3125 30.3125 C-12.6325 30.3125 -13.9525 30.3125 -15.3125 30.3125 C-15.3125 28.0025 -15.3125 25.6925 -15.3125 23.3125 C-13.9925 22.9825 -12.6725 22.6525 -11.3125 22.3125 C-11.29123047 20.55873047 -11.29123047 20.55873047 -11.26953125 18.76953125 C-11.22261562 17.22131543 -11.17436831 15.67313956 -11.125 14.125 C-11.11919922 13.35607422 -11.11339844 12.58714844 -11.10742188 11.79492188 C-10.94654508 7.63000041 -10.6243252 5.73851471 -8.09375 2.28125 C-5.00854195 0.09733868 -3.71111311 -0.24740754 0 0 Z " transform="translate(19.3125,9.6875)" style="fill: rgb(45, 169, 103); --darkreader-inline-fill: var(--darkreader-text-2da967, #60d597);" data-darkreader-inline-fill=""></path><path d="M0 0 C1.69226796 0.17049447 3.38296833 0.3762177 5.05859375 0.66796875 C3.44123937 3.74779341 1.78348313 6.79894896 0.07714844 9.83056641 C-0.64455189 11.13246397 -1.35073651 12.44301805 -2.04589844 13.75927734 C-9.07892812 27.00569792 -9.07892812 27.00569792 -13.80859375 28.6875 C-16.3780572 28.66930267 -18.4901055 28.41900558 -20.94140625 27.66796875 C-18.7494507 21.96965411 -15.94096116 16.6996094 -13.00390625 11.35546875 C-12.48505859 10.32873047 -11.96621094 9.30199219 -11.43164062 8.24414062 C-8.33894641 2.70965216 -6.64133187 0.00532243 0 0 Z " transform="translate(43.94140625,22.33203125)" style="fill: rgb(45, 168, 103); --darkreader-inline-fill: var(--darkreader-text-2da867, #61d598);" data-darkreader-inline-fill=""></path></svg>