<svg version="1.1" xmlns="http://www.w3.org/2000/svg"  viewBox="0 0 72 72" width="72" height="72"><path d="M0 0 C23.76 0 47.52 0 72 0 C72 23.76 72 47.52 72 72 C48.24 72 24.48 72 0 72 C0 48.24 0 24.48 0 0 Z " transform="translate(0,0)" style="fill: rgb(4, 4, 11); --darkreader-inline-fill: var(--darkreader-text-04040b, #e3e1dd);" data-darkreader-inline-fill=""></path><path d="M0 0 C3.5 0.6875 3.5 0.6875 5.578125 3.01171875 C8.41869511 7.6310725 8.9365627 12.91349262 9.75 18.1875 C9.92273438 19.20714844 10.09546875 20.22679688 10.2734375 21.27734375 C11.08501198 26.23052449 11.5 30.6186834 11.5 35.6875 C31.3 36.1825 31.3 36.1825 51.5 36.6875 C50.71760917 29.77620977 50.71760917 29.77620977 48.44921875 23.8671875 C47.14224822 20.86599592 46.1259177 17.78286352 45.0625 14.6875 C43.28659484 9.63962413 41.38971379 5.18261033 38.5 0.6875 C42.72672411 1.53524979 44.18933144 2.23189023 46.66015625 5.85546875 C47.31830861 7.18366981 47.95126819 8.52456368 48.5625 9.875 C48.89830078 10.585354 49.23410156 11.29570801 49.58007812 12.02758789 C58.85948187 32.15151553 58.85948187 32.15151553 57.5 42.6875 C55.84171534 46.58446895 54.35751682 48.09880249 50.5 49.6875 C48.44709778 49.94819641 48.44709778 49.94819641 46.24145508 49.9621582 C45.40991409 49.97169022 44.57837311 49.98122223 43.72163391 49.99104309 C42.38409309 49.98967598 42.38409309 49.98967598 41.01953125 49.98828125 C40.09210617 49.99256638 39.16468109 49.9968515 38.20915222 50.00126648 C36.24645808 50.00700592 34.28374266 50.00751288 32.32104492 50.00317383 C29.34060571 50.00002965 26.36117478 50.0234228 23.38085938 50.04882812 C21.46875124 50.05110295 19.55664046 50.05180376 17.64453125 50.05078125 C16.76295853 50.059991 15.8813858 50.06920074 14.97309875 50.07868958 C8.7462539 50.03291402 1.76975348 49.53196952 -3.12834167 45.27095032 C-8.62124441 38.92991158 -7.75278913 31.95990219 -7.79516602 24.06396484 C-7.80669518 22.56647296 -7.82716217 21.06902248 -7.85668945 19.57177734 C-7.899427 17.40433932 -7.9155411 15.23811987 -7.92578125 13.0703125 C-7.94036377 11.77496582 -7.95494629 10.47961914 -7.9699707 9.14501953 C-7.23792156 3.75941957 -5.38875798 1.05850603 0 0 Z " transform="translate(12.5,10.3125)" style="fill: rgb(83, 97, 233); --darkreader-inline-fill: var(--darkreader-text-5361e9, #5993ea);" data-darkreader-inline-fill=""></path><path d="M0 0 C5.61 0 11.22 0 17 0 C16 6 16 6 14 8 C8.4703371 8.75897334 5.60352073 7.5471921 1.28515625 4.38671875 C0 3 0 3 0 0 Z " transform="translate(33,33)" style="fill: rgb(79, 219, 126); --darkreader-inline-fill: var(--darkreader-text-4fdb7e, #59dd86);" data-darkreader-inline-fill=""></path><path d="M0 0 C3.69230769 0.69230769 3.69230769 0.69230769 5 2 C5.04092937 4.33297433 5.04241723 6.66705225 5 9 C3.35 8.67 1.7 8.34 0 8 C-0.38063221 5.6739143 -0.71269945 3.33944736 -1 1 C-0.67 0.67 -0.34 0.34 0 0 Z " transform="translate(48,19)" style="fill: rgb(75, 211, 120); --darkreader-inline-fill: var(--darkreader-text-4bd378, #58d682);" data-darkreader-inline-fill=""></path><path d="M0 0 C3.69230769 0.69230769 3.69230769 0.69230769 5 2 C5.04092937 4.33297433 5.04241723 6.66705225 5 9 C2.13275314 8.42655063 1.1385485 8.1385485 -1 6 C-1.1875 3.4375 -1.1875 3.4375 -1 1 C-0.67 0.67 -0.34 0.34 0 0 Z " transform="translate(26,19)" style="fill: rgb(76, 215, 121); --darkreader-inline-fill: var(--darkreader-text-4cd779, #58da82);" data-darkreader-inline-fill=""></path></svg>